%TF.GenerationSoftware,KiCad,Pcbnew,7.0.9*%
%TF.CreationDate,2024-03-08T21:06:40+01:00*%
%TF.ProjectId,SI4684 controller,53493436-3834-4206-936f-6e74726f6c6c,rev?*%
%TF.SameCoordinates,Original*%
%TF.FileFunction,Copper,L1,Top*%
%TF.FilePolarity,Positive*%
%FSLAX46Y46*%
G04 Gerber Fmt 4.6, Leading zero omitted, Abs format (unit mm)*
G04 Created by KiCad (PCBNEW 7.0.9) date 2024-03-08 21:06:40*
%MOMM*%
%LPD*%
G01*
G04 APERTURE LIST*
G04 Aperture macros list*
%AMRoundRect*
0 Rectangle with rounded corners*
0 $1 Rounding radius*
0 $2 $3 $4 $5 $6 $7 $8 $9 X,Y pos of 4 corners*
0 Add a 4 corners polygon primitive as box body*
4,1,4,$2,$3,$4,$5,$6,$7,$8,$9,$2,$3,0*
0 Add four circle primitives for the rounded corners*
1,1,$1+$1,$2,$3*
1,1,$1+$1,$4,$5*
1,1,$1+$1,$6,$7*
1,1,$1+$1,$8,$9*
0 Add four rect primitives between the rounded corners*
20,1,$1+$1,$2,$3,$4,$5,0*
20,1,$1+$1,$4,$5,$6,$7,0*
20,1,$1+$1,$6,$7,$8,$9,0*
20,1,$1+$1,$8,$9,$2,$3,0*%
G04 Aperture macros list end*
%TA.AperFunction,ComponentPad*%
%ADD10C,4.000000*%
%TD*%
%TA.AperFunction,ComponentPad*%
%ADD11R,1.500000X1.500000*%
%TD*%
%TA.AperFunction,ComponentPad*%
%ADD12C,1.500000*%
%TD*%
%TA.AperFunction,ComponentPad*%
%ADD13R,2.000000X2.000000*%
%TD*%
%TA.AperFunction,ComponentPad*%
%ADD14C,2.000000*%
%TD*%
%TA.AperFunction,ComponentPad*%
%ADD15R,2.000000X3.200000*%
%TD*%
%TA.AperFunction,ComponentPad*%
%ADD16RoundRect,0.250000X0.600000X0.600000X-0.600000X0.600000X-0.600000X-0.600000X0.600000X-0.600000X0*%
%TD*%
%TA.AperFunction,ComponentPad*%
%ADD17C,1.700000*%
%TD*%
%TA.AperFunction,ComponentPad*%
%ADD18C,1.400000*%
%TD*%
%TA.AperFunction,ComponentPad*%
%ADD19O,1.524000X2.540000*%
%TD*%
%TA.AperFunction,ComponentPad*%
%ADD20C,1.600000*%
%TD*%
%TA.AperFunction,ComponentPad*%
%ADD21R,1.600000X1.600000*%
%TD*%
%TA.AperFunction,ComponentPad*%
%ADD22O,1.600000X1.600000*%
%TD*%
%TA.AperFunction,ViaPad*%
%ADD23C,0.800000*%
%TD*%
%TA.AperFunction,Conductor*%
%ADD24C,0.250000*%
%TD*%
G04 APERTURE END LIST*
D10*
%TO.P,U1,*%
%TO.N,*%
X115862000Y-90378424D03*
X115862000Y-124478424D03*
X177062000Y-90378424D03*
X177062000Y-124478424D03*
D11*
%TO.P,U1,1,VCC*%
%TO.N,+3V3*%
X114362000Y-97268424D03*
D12*
%TO.P,U1,2,GND*%
%TO.N,GND*%
X114362000Y-99808424D03*
%TO.P,U1,3,~{CS}*%
%TO.N,Net-(M1-D5)*%
X114362000Y-102348424D03*
%TO.P,U1,4,RESET*%
%TO.N,RST*%
X114362000Y-104888424D03*
%TO.P,U1,5,D/~{C}*%
%TO.N,Net-(M1-D4)*%
X114362000Y-107428424D03*
%TO.P,U1,6,MOSI*%
%TO.N,Net-(M1-D23)*%
X114362000Y-109968424D03*
%TO.P,U1,7,SCK*%
%TO.N,Net-(M1-D18)*%
X114362000Y-112508424D03*
%TO.P,U1,8,LED*%
%TO.N,Net-(M1-D2)*%
X114362000Y-115048424D03*
%TO.P,U1,9,MISO*%
%TO.N,Net-(M1-D19)*%
X114362000Y-117588424D03*
%TO.P,U1,10,SD_CS*%
%TO.N,unconnected-(U1-SD_CS-Pad10)*%
X177882000Y-102348424D03*
%TO.P,U1,11,SD_MOSI*%
%TO.N,unconnected-(U1-SD_MOSI-Pad11)*%
X177882000Y-104888424D03*
%TO.P,U1,12,SD_MISO*%
%TO.N,unconnected-(U1-SD_MISO-Pad12)*%
X177882000Y-107428424D03*
%TO.P,U1,13,SD_SCK*%
%TO.N,unconnected-(U1-SD_SCK-Pad13)*%
X177882000Y-109968424D03*
%TO.P,U1,14,FLASH_CD*%
%TO.N,unconnected-(U1-FLASH_CD-Pad14)*%
X177882000Y-112508424D03*
%TD*%
D13*
%TO.P,SW1,A,A*%
%TO.N,Net-(M1-D27)*%
X195140000Y-102748724D03*
D14*
%TO.P,SW1,B,B*%
%TO.N,Net-(M1-D34)*%
X200140000Y-102748724D03*
%TO.P,SW1,C,C*%
%TO.N,GND*%
X197640000Y-102748724D03*
D15*
%TO.P,SW1,MP*%
%TO.N,N/C*%
X192040000Y-95248724D03*
X203240000Y-95248724D03*
D14*
%TO.P,SW1,S1,S1*%
%TO.N,GND*%
X200140000Y-88248724D03*
%TO.P,SW1,S2,S2*%
%TO.N,Net-(M1-D25)*%
X195140000Y-88248724D03*
%TD*%
%TO.P,SW3,1,1*%
%TO.N,GND*%
X187617000Y-103269424D03*
X187617000Y-109769424D03*
%TO.P,SW3,2,2*%
%TO.N,Net-(M1-VN)*%
X183117000Y-103269424D03*
X183117000Y-109769424D03*
%TD*%
%TO.P,SW2,1,1*%
%TO.N,GND*%
X187617000Y-117620424D03*
X187617000Y-124120424D03*
%TO.P,SW2,2,2*%
%TO.N,Net-(M1-D26)*%
X183117000Y-117620424D03*
X183117000Y-124120424D03*
%TD*%
%TO.P,SW4,1,1*%
%TO.N,GND*%
X187617000Y-88918424D03*
X187617000Y-95418424D03*
%TO.P,SW4,2,2*%
%TO.N,Net-(M1-VP)*%
X183117000Y-88918424D03*
X183117000Y-95418424D03*
%TD*%
D13*
%TO.P,SW5,A,A*%
%TO.N,Net-(M1-D33)*%
X195140000Y-123738424D03*
D14*
%TO.P,SW5,B,B*%
%TO.N,Net-(M1-D32)*%
X200140000Y-123738424D03*
%TO.P,SW5,C,C*%
%TO.N,GND*%
X197640000Y-123738424D03*
D15*
%TO.P,SW5,MP*%
%TO.N,N/C*%
X192040000Y-116238424D03*
X203240000Y-116238424D03*
D14*
%TO.P,SW5,S1,S1*%
%TO.N,GND*%
X200140000Y-109238424D03*
%TO.P,SW5,S2,S2*%
%TO.N,Net-(M1-D35)*%
X195140000Y-109238424D03*
%TD*%
D16*
%TO.P,J1,1,Pin_1*%
%TO.N,RST*%
X124955200Y-92169624D03*
D17*
%TO.P,J1,2,Pin_2*%
%TO.N,INT*%
X122415200Y-92169624D03*
%TO.P,J1,3,Pin_3*%
%TO.N,MISO*%
X124955200Y-94709624D03*
%TO.P,J1,4,Pin_4*%
%TO.N,+5V*%
X122415200Y-94709624D03*
%TO.P,J1,5,Pin_5*%
%TO.N,MOSI*%
X124955200Y-97249624D03*
%TO.P,J1,6,Pin_6*%
%TO.N,GND*%
X122415200Y-97249624D03*
%TO.P,J1,7,Pin_7*%
%TO.N,CLK*%
X124955200Y-99789624D03*
%TO.P,J1,8,Pin_8*%
%TO.N,SDA*%
X122415200Y-99789624D03*
%TO.P,J1,9,Pin_9*%
%TO.N,SS*%
X124955200Y-102329624D03*
%TO.P,J1,10,Pin_10*%
%TO.N,SCL*%
X122415200Y-102329624D03*
%TD*%
D18*
%TO.P,JP1,1,1*%
%TO.N,+3V3*%
X117132000Y-98042424D03*
%TO.P,JP1,2,2*%
%TO.N,Net-(M1-EN)*%
X117132000Y-95502424D03*
%TD*%
D19*
%TO.P,M1,1,3V3*%
%TO.N,+3V3*%
X173012000Y-119398424D03*
%TO.P,M1,2,GND*%
%TO.N,GND*%
X170472000Y-119398424D03*
%TO.P,M1,3,D15*%
%TO.N,SS*%
X167932000Y-119398424D03*
%TO.P,M1,4,D2*%
%TO.N,Net-(M1-D2)*%
X165392000Y-119398424D03*
%TO.P,M1,5,D4*%
%TO.N,Net-(M1-D4)*%
X162852000Y-119398424D03*
%TO.P,M1,6,RX2*%
%TO.N,MISO*%
X160312000Y-119398424D03*
%TO.P,M1,7,TX2*%
%TO.N,RST*%
X157772000Y-119398424D03*
%TO.P,M1,8,D5*%
%TO.N,Net-(M1-D5)*%
X155232000Y-119398424D03*
%TO.P,M1,9,D18*%
%TO.N,Net-(M1-D18)*%
X152692000Y-119398424D03*
%TO.P,M1,10,D19*%
%TO.N,Net-(M1-D19)*%
X150152000Y-119398424D03*
%TO.P,M1,11,D21*%
%TO.N,SDA*%
X147612000Y-119398424D03*
%TO.P,M1,12,RX0*%
%TO.N,unconnected-(M1-RX0-Pad12)*%
X145072000Y-119398424D03*
%TO.P,M1,13,TX0*%
%TO.N,unconnected-(M1-TX0-Pad13)*%
X142532000Y-119398424D03*
%TO.P,M1,14,D22*%
%TO.N,SCL*%
X139992000Y-119398424D03*
%TO.P,M1,15,D23*%
%TO.N,Net-(M1-D23)*%
X137452000Y-119398424D03*
%TO.P,M1,16,EN*%
%TO.N,Net-(M1-EN)*%
X137452000Y-93998424D03*
%TO.P,M1,17,VP*%
%TO.N,Net-(M1-VP)*%
X139992000Y-93998424D03*
%TO.P,M1,18,VN*%
%TO.N,Net-(M1-VN)*%
X142532000Y-93998424D03*
%TO.P,M1,19,D34*%
%TO.N,Net-(M1-D34)*%
X145072000Y-93998424D03*
%TO.P,M1,20,D35*%
%TO.N,Net-(M1-D35)*%
X147612000Y-93998424D03*
%TO.P,M1,21,D32*%
%TO.N,Net-(M1-D32)*%
X150152000Y-93998424D03*
%TO.P,M1,22,D33*%
%TO.N,Net-(M1-D33)*%
X152692000Y-93998424D03*
%TO.P,M1,23,D25*%
%TO.N,Net-(M1-D25)*%
X155232000Y-93998424D03*
%TO.P,M1,24,D26*%
%TO.N,Net-(M1-D26)*%
X157772000Y-93998424D03*
%TO.P,M1,25,D27*%
%TO.N,Net-(M1-D27)*%
X160312000Y-93998424D03*
%TO.P,M1,26,D14*%
%TO.N,CLK*%
X162852000Y-93998424D03*
%TO.P,M1,27,D12*%
%TO.N,unconnected-(M1-D12-Pad27)*%
X165392000Y-93998424D03*
%TO.P,M1,28,D13*%
%TO.N,MOSI*%
X167932000Y-93998424D03*
%TO.P,M1,29,GND*%
%TO.N,GND*%
X170472000Y-93998424D03*
%TO.P,M1,30,VIN*%
%TO.N,+5V*%
X173012000Y-93998424D03*
%TD*%
D20*
%TO.P,C4,1*%
%TO.N,GND*%
X203942000Y-127000000D03*
%TO.P,C4,2*%
%TO.N,Net-(M1-D32)*%
X201442000Y-127000000D03*
%TD*%
%TO.P,C7,1*%
%TO.N,GND*%
X185654000Y-127000000D03*
%TO.P,C7,2*%
%TO.N,Net-(M1-D26)*%
X183154000Y-127000000D03*
%TD*%
%TO.P,C11,1*%
%TO.N,+3V3*%
X172974000Y-123698000D03*
%TO.P,C11,2*%
%TO.N,GND*%
X170474000Y-123698000D03*
%TD*%
%TO.P,C1,1*%
%TO.N,GND*%
X198862000Y-127000000D03*
%TO.P,C1,2*%
%TO.N,Net-(M1-D33)*%
X196362000Y-127000000D03*
%TD*%
%TO.P,C2,1*%
%TO.N,GND*%
X203942000Y-106172000D03*
%TO.P,C2,2*%
%TO.N,Net-(M1-D34)*%
X201442000Y-106172000D03*
%TD*%
%TO.P,C5,1*%
%TO.N,GND*%
X198862000Y-106172000D03*
%TO.P,C5,2*%
%TO.N,Net-(M1-D27)*%
X196362000Y-106172000D03*
%TD*%
%TO.P,C6,1*%
%TO.N,GND*%
X193782000Y-127000000D03*
%TO.P,C6,2*%
%TO.N,Net-(M1-D35)*%
X191282000Y-127000000D03*
%TD*%
%TO.P,C8,1*%
%TO.N,GND*%
X185634000Y-112776000D03*
%TO.P,C8,2*%
%TO.N,Net-(M1-VN)*%
X183134000Y-112776000D03*
%TD*%
%TO.P,C9,1*%
%TO.N,GND*%
X185634000Y-98298000D03*
%TO.P,C9,2*%
%TO.N,Net-(M1-VP)*%
X183134000Y-98298000D03*
%TD*%
D21*
%TO.P,RN1,1,R1*%
%TO.N,+3V3*%
X162814000Y-99568000D03*
D22*
%TO.P,RN1,2,R1.2*%
%TO.N,Net-(M1-D27)*%
X160274000Y-99568000D03*
%TO.P,RN1,3,R2.2*%
%TO.N,Net-(M1-D26)*%
X157734000Y-99568000D03*
%TO.P,RN1,4,R3.2*%
%TO.N,Net-(M1-D25)*%
X155194000Y-99568000D03*
%TO.P,RN1,5,R4.2*%
%TO.N,Net-(M1-D33)*%
X152654000Y-99568000D03*
%TO.P,RN1,6,R5.2*%
%TO.N,Net-(M1-D32)*%
X150114000Y-99568000D03*
%TO.P,RN1,7,R6.2*%
%TO.N,Net-(M1-D35)*%
X147574000Y-99568000D03*
%TO.P,RN1,8,R7.2*%
%TO.N,Net-(M1-D34)*%
X145034000Y-99568000D03*
%TO.P,RN1,9,R8.2*%
%TO.N,Net-(M1-VN)*%
X142494000Y-99568000D03*
%TO.P,RN1,10,R9.2*%
%TO.N,Net-(M1-VP)*%
X139954000Y-99568000D03*
%TD*%
D20*
%TO.P,C10,1*%
%TO.N,+5V*%
X172974000Y-89408000D03*
%TO.P,C10,2*%
%TO.N,GND*%
X170474000Y-89408000D03*
%TD*%
%TO.P,C3,1*%
%TO.N,GND*%
X193782000Y-106172000D03*
%TO.P,C3,2*%
%TO.N,Net-(M1-D25)*%
X191282000Y-106172000D03*
%TD*%
D23*
%TO.N,GND*%
X134620000Y-118110000D03*
X111252000Y-122936000D03*
X135890000Y-94742000D03*
X116332000Y-111506000D03*
X127254000Y-95758000D03*
X111252000Y-99060000D03*
X130556000Y-94742000D03*
X116586000Y-117602000D03*
X122936000Y-116840000D03*
X134620000Y-120142000D03*
%TD*%
D24*
%TO.N,RST*%
X124955200Y-90690800D02*
X124955200Y-92169624D01*
X119634000Y-102108000D02*
X119634000Y-90424000D01*
X124206000Y-89916000D02*
X124968000Y-90678000D01*
X116853576Y-104888424D02*
X119634000Y-102108000D01*
X119634000Y-90424000D02*
X120142000Y-89916000D01*
X120142000Y-89916000D02*
X124206000Y-89916000D01*
X114362000Y-104888424D02*
X116853576Y-104888424D01*
X124968000Y-90678000D02*
X124955200Y-90690800D01*
%TO.N,+3V3*%
X172974000Y-123698000D02*
X172974000Y-119436424D01*
X172974000Y-119436424D02*
X173012000Y-119398424D01*
%TO.N,SDA*%
X132099576Y-103886000D02*
X124460000Y-103886000D01*
X123698000Y-101072424D02*
X122415200Y-99789624D01*
X124460000Y-103886000D02*
X123698000Y-103124000D01*
X123698000Y-103124000D02*
X123698000Y-101072424D01*
X147612000Y-119398424D02*
X132099576Y-103886000D01*
%TO.N,SCL*%
X139992000Y-119398424D02*
X138397000Y-117803424D01*
X138397000Y-117803424D02*
X137361424Y-117803424D01*
X122415200Y-102857200D02*
X122415200Y-102329624D01*
X137361424Y-117803424D02*
X122415200Y-102857200D01*
%TO.N,Net-(M1-D35)*%
X202692000Y-106512991D02*
X202692000Y-103426891D01*
X199653109Y-100388000D02*
X173549604Y-100388000D01*
X147612000Y-93998424D02*
X147612000Y-99530000D01*
X202692000Y-103426891D02*
X199653109Y-100388000D01*
X196465000Y-107913424D02*
X201291567Y-107913424D01*
X150680000Y-102674000D02*
X147574000Y-99568000D01*
X195140000Y-109238424D02*
X196465000Y-107913424D01*
X171263604Y-102674000D02*
X150680000Y-102674000D01*
X201291567Y-107913424D02*
X202692000Y-106512991D01*
X147612000Y-99530000D02*
X147574000Y-99568000D01*
X173549604Y-100388000D02*
X171263604Y-102674000D01*
%TO.N,Net-(M1-D26)*%
X157772000Y-93998424D02*
X157772000Y-99530000D01*
X157772000Y-99530000D02*
X157734000Y-99568000D01*
%TO.N,Net-(M1-D25)*%
X155232000Y-99530000D02*
X155194000Y-99568000D01*
X155232000Y-93998424D02*
X155232000Y-99530000D01*
%TO.N,Net-(M1-VN)*%
X183117000Y-103269424D02*
X183117000Y-109769424D01*
X142532000Y-99530000D02*
X142494000Y-99568000D01*
X142532000Y-93998424D02*
X142532000Y-99530000D01*
%TO.N,Net-(M1-D34)*%
X201442000Y-104050724D02*
X200140000Y-102748724D01*
X148590000Y-103124000D02*
X171450000Y-103124000D01*
X173736000Y-100838000D02*
X199390000Y-100838000D01*
X201442000Y-106172000D02*
X201442000Y-104050724D01*
X145034000Y-99568000D02*
X148590000Y-103124000D01*
X145072000Y-93998424D02*
X145072000Y-99530000D01*
X200140000Y-101588000D02*
X200140000Y-102748724D01*
X199390000Y-100838000D02*
X200140000Y-101588000D01*
X145072000Y-99530000D02*
X145034000Y-99568000D01*
X171450000Y-103124000D02*
X173736000Y-100838000D01*
%TO.N,Net-(M1-VP)*%
X139992000Y-93998424D02*
X139992000Y-99530000D01*
X141587000Y-92403424D02*
X174498000Y-92403424D01*
X177513000Y-95418424D02*
X174498000Y-92403424D01*
X183134000Y-98298000D02*
X183134000Y-95435424D01*
X139992000Y-93998424D02*
X141587000Y-92403424D01*
X139992000Y-99530000D02*
X139954000Y-99568000D01*
X183134000Y-95435424D02*
X183117000Y-95418424D01*
X183117000Y-95418424D02*
X177513000Y-95418424D01*
X183117000Y-95418424D02*
X183117000Y-88918424D01*
%TO.N,Net-(M1-D33)*%
X154860000Y-101774000D02*
X152654000Y-99568000D01*
X170890812Y-101774000D02*
X154860000Y-101774000D01*
X197487000Y-128125000D02*
X201907991Y-128125000D01*
X205682000Y-105144099D02*
X200025901Y-99488000D01*
X152692000Y-93998424D02*
X152692000Y-99530000D01*
X173176812Y-99488000D02*
X170890812Y-101774000D01*
X200025901Y-99488000D02*
X173176812Y-99488000D01*
X152692000Y-99530000D02*
X152654000Y-99568000D01*
X205682000Y-123419009D02*
X205682000Y-105144099D01*
X202567000Y-127465991D02*
X202567000Y-126534009D01*
X202567000Y-126534009D02*
X205682000Y-123419009D01*
X201907991Y-128125000D02*
X202567000Y-127465991D01*
X196362000Y-127000000D02*
X197487000Y-128125000D01*
%TO.N,Net-(M1-D32)*%
X150152000Y-99530000D02*
X150114000Y-99568000D01*
X150114000Y-99568000D02*
X152770000Y-102224000D01*
X201442000Y-127000000D02*
X201442000Y-125040424D01*
X201442000Y-125040424D02*
X200140000Y-123738424D01*
X150152000Y-93998424D02*
X150152000Y-99530000D01*
X152770000Y-102224000D02*
X171077208Y-102224000D01*
X171077208Y-102224000D02*
X173363208Y-99938000D01*
X199839505Y-99938000D02*
X205232000Y-105330495D01*
X205232000Y-118646424D02*
X200140000Y-123738424D01*
X173363208Y-99938000D02*
X199839505Y-99938000D01*
X205232000Y-105330495D02*
X205232000Y-118646424D01*
%TO.N,Net-(M1-D27)*%
X160312000Y-93998424D02*
X160312000Y-99530000D01*
X160312000Y-99530000D02*
X160274000Y-99568000D01*
%TO.N,MISO*%
X146831576Y-116586000D02*
X124955200Y-94709624D01*
X160312000Y-119398424D02*
X160312000Y-117640000D01*
X159258000Y-116586000D02*
X146831576Y-116586000D01*
X160312000Y-117640000D02*
X159258000Y-116586000D01*
%TO.N,Net-(M1-D19)*%
X118217000Y-121443424D02*
X114362000Y-117588424D01*
X150152000Y-119398424D02*
X148107000Y-121443424D01*
X148107000Y-121443424D02*
X118217000Y-121443424D01*
%TO.N,Net-(M1-D18)*%
X113287000Y-118033704D02*
X113287000Y-113583424D01*
X150197000Y-121893424D02*
X117146720Y-121893424D01*
X152692000Y-119398424D02*
X150197000Y-121893424D01*
X113287000Y-113583424D02*
X114362000Y-112508424D01*
X117146720Y-121893424D02*
X113287000Y-118033704D01*
%TD*%
%TA.AperFunction,Conductor*%
%TO.N,GND*%
G36*
X205977621Y-86271926D02*
G01*
X206024114Y-86325582D01*
X206035500Y-86377924D01*
X206035500Y-104733083D01*
X206015498Y-104801204D01*
X205961842Y-104847697D01*
X205891568Y-104857801D01*
X205826988Y-104828307D01*
X205820405Y-104822178D01*
X200268066Y-99269839D01*
X200264351Y-99265786D01*
X200238355Y-99234805D01*
X200238352Y-99234803D01*
X200203336Y-99214586D01*
X200198701Y-99211633D01*
X200165584Y-99188445D01*
X200160053Y-99185866D01*
X200144697Y-99179505D01*
X200138948Y-99177412D01*
X200115075Y-99173202D01*
X200099135Y-99170391D01*
X200093773Y-99169203D01*
X200054709Y-99158736D01*
X200054706Y-99158736D01*
X200043028Y-99159757D01*
X200014425Y-99162260D01*
X200008941Y-99162500D01*
X186867487Y-99162500D01*
X186799366Y-99142498D01*
X186752873Y-99088842D01*
X186742769Y-99018568D01*
X186764275Y-98964227D01*
X186771088Y-98954496D01*
X186867811Y-98747073D01*
X186867813Y-98747068D01*
X186927048Y-98526002D01*
X186946995Y-98298000D01*
X186927048Y-98069997D01*
X186867813Y-97848931D01*
X186867811Y-97848926D01*
X186771086Y-97641498D01*
X186721100Y-97570110D01*
X186721097Y-97570110D01*
X186032726Y-98258480D01*
X186019165Y-98172852D01*
X185961641Y-98059955D01*
X185872045Y-97970359D01*
X185759148Y-97912835D01*
X185673517Y-97899272D01*
X186361888Y-97210899D01*
X186361888Y-97210898D01*
X186290501Y-97160913D01*
X186083073Y-97064188D01*
X186083068Y-97064186D01*
X185862000Y-97004951D01*
X185862004Y-97004951D01*
X185634000Y-96985004D01*
X185405997Y-97004951D01*
X185184931Y-97064186D01*
X185184926Y-97064188D01*
X184977500Y-97160913D01*
X184906109Y-97210900D01*
X185594481Y-97899272D01*
X185508852Y-97912835D01*
X185395955Y-97970359D01*
X185306359Y-98059955D01*
X185248835Y-98172852D01*
X185235272Y-98258482D01*
X184546900Y-97570109D01*
X184496913Y-97641500D01*
X184400188Y-97848926D01*
X184400183Y-97848938D01*
X184346995Y-98047438D01*
X184310044Y-98108060D01*
X184246183Y-98139082D01*
X184175689Y-98130653D01*
X184120942Y-98085449D01*
X184104716Y-98051406D01*
X184062814Y-97913273D01*
X183969910Y-97739462D01*
X183844883Y-97587117D01*
X183692538Y-97462090D01*
X183526104Y-97373129D01*
X183475456Y-97323377D01*
X183459500Y-97262007D01*
X183459500Y-96659488D01*
X183479502Y-96591367D01*
X183533158Y-96544874D01*
X183539983Y-96541997D01*
X183570575Y-96530145D01*
X183654401Y-96497671D01*
X183843562Y-96380548D01*
X184007981Y-96230660D01*
X184142058Y-96053113D01*
X184142059Y-96053109D01*
X184142061Y-96053108D01*
X184241225Y-95853961D01*
X184241226Y-95853957D01*
X184241229Y-95853952D01*
X184302115Y-95639960D01*
X184322643Y-95418424D01*
X186104337Y-95418424D01*
X186122960Y-95655056D01*
X186178371Y-95885861D01*
X186269206Y-96105157D01*
X186383897Y-96292315D01*
X187090097Y-95586115D01*
X187093884Y-95604339D01*
X187163442Y-95738580D01*
X187266638Y-95849076D01*
X187395819Y-95927633D01*
X187451421Y-95943212D01*
X186743107Y-96651525D01*
X186743107Y-96651526D01*
X186930261Y-96766215D01*
X187149562Y-96857052D01*
X187380367Y-96912463D01*
X187617000Y-96931086D01*
X187853632Y-96912463D01*
X188036869Y-96868472D01*
X190839500Y-96868472D01*
X190851133Y-96926955D01*
X190895448Y-96993276D01*
X190961769Y-97037591D01*
X191020252Y-97049224D01*
X191020253Y-97049224D01*
X193059747Y-97049224D01*
X193059748Y-97049224D01*
X193118231Y-97037591D01*
X193184552Y-96993276D01*
X193228867Y-96926955D01*
X193240500Y-96868472D01*
X202039500Y-96868472D01*
X202051133Y-96926955D01*
X202095448Y-96993276D01*
X202161769Y-97037591D01*
X202220252Y-97049224D01*
X202220253Y-97049224D01*
X204259747Y-97049224D01*
X204259748Y-97049224D01*
X204318231Y-97037591D01*
X204384552Y-96993276D01*
X204428867Y-96926955D01*
X204440500Y-96868472D01*
X204440500Y-93628976D01*
X204428867Y-93570493D01*
X204384552Y-93504172D01*
X204318231Y-93459857D01*
X204318228Y-93459856D01*
X204259750Y-93448224D01*
X204259748Y-93448224D01*
X202220252Y-93448224D01*
X202220249Y-93448224D01*
X202161771Y-93459856D01*
X202161768Y-93459857D01*
X202095448Y-93504172D01*
X202051133Y-93570492D01*
X202051132Y-93570495D01*
X202039500Y-93628973D01*
X202039500Y-93628976D01*
X202039500Y-96868472D01*
X193240500Y-96868472D01*
X193240500Y-93628976D01*
X193228867Y-93570493D01*
X193184552Y-93504172D01*
X193118231Y-93459857D01*
X193118228Y-93459856D01*
X193059750Y-93448224D01*
X193059748Y-93448224D01*
X191020252Y-93448224D01*
X191020249Y-93448224D01*
X190961771Y-93459856D01*
X190961768Y-93459857D01*
X190895448Y-93504172D01*
X190851133Y-93570492D01*
X190851132Y-93570495D01*
X190839500Y-93628973D01*
X190839500Y-93628976D01*
X190839500Y-96868472D01*
X188036869Y-96868472D01*
X188084437Y-96857052D01*
X188303738Y-96766215D01*
X188490891Y-96651526D01*
X188490892Y-96651525D01*
X187784625Y-95945258D01*
X187905458Y-95892773D01*
X188022739Y-95797358D01*
X188109928Y-95673839D01*
X188141837Y-95584052D01*
X188850101Y-96292316D01*
X188850102Y-96292315D01*
X188964791Y-96105162D01*
X189055628Y-95885861D01*
X189111039Y-95655056D01*
X189129662Y-95418424D01*
X189111039Y-95181791D01*
X189055628Y-94950986D01*
X188964791Y-94731685D01*
X188850102Y-94544531D01*
X188850101Y-94544531D01*
X188143902Y-95250730D01*
X188140116Y-95232509D01*
X188070558Y-95098268D01*
X187967362Y-94987772D01*
X187838181Y-94909215D01*
X187782577Y-94893635D01*
X188490891Y-94185321D01*
X188303733Y-94070630D01*
X188084437Y-93979795D01*
X187853632Y-93924384D01*
X187617000Y-93905761D01*
X187380367Y-93924384D01*
X187149562Y-93979795D01*
X186930262Y-94070632D01*
X186743107Y-94185320D01*
X186743107Y-94185322D01*
X187449374Y-94891589D01*
X187328542Y-94944075D01*
X187211261Y-95039490D01*
X187124072Y-95163009D01*
X187092162Y-95252795D01*
X186383898Y-94544531D01*
X186383896Y-94544531D01*
X186269208Y-94731686D01*
X186178371Y-94950986D01*
X186122960Y-95181791D01*
X186104337Y-95418424D01*
X184322643Y-95418424D01*
X184302115Y-95196888D01*
X184299942Y-95189252D01*
X184241231Y-94982903D01*
X184241230Y-94982902D01*
X184241229Y-94982896D01*
X184241227Y-94982892D01*
X184241225Y-94982886D01*
X184142061Y-94783739D01*
X184142057Y-94783734D01*
X184007982Y-94606188D01*
X183843561Y-94456299D01*
X183843560Y-94456298D01*
X183654412Y-94339183D01*
X183654399Y-94339176D01*
X183522982Y-94288264D01*
X183466688Y-94245004D01*
X183442718Y-94178176D01*
X183442500Y-94170773D01*
X183442500Y-90166073D01*
X183462502Y-90097952D01*
X183516158Y-90051459D01*
X183522945Y-90048597D01*
X183654401Y-89997671D01*
X183843562Y-89880548D01*
X184007981Y-89730660D01*
X184142058Y-89553113D01*
X184142059Y-89553109D01*
X184142061Y-89553108D01*
X184241225Y-89353961D01*
X184241226Y-89353957D01*
X184241229Y-89353952D01*
X184302115Y-89139960D01*
X184322643Y-88918424D01*
X186104337Y-88918424D01*
X186122960Y-89155056D01*
X186178371Y-89385861D01*
X186269206Y-89605157D01*
X186383897Y-89792315D01*
X187090097Y-89086115D01*
X187093884Y-89104339D01*
X187163442Y-89238580D01*
X187266638Y-89349076D01*
X187395819Y-89427633D01*
X187451421Y-89443212D01*
X186743107Y-90151525D01*
X186743107Y-90151526D01*
X186930261Y-90266215D01*
X187149562Y-90357052D01*
X187380367Y-90412463D01*
X187617000Y-90431086D01*
X187853632Y-90412463D01*
X188084437Y-90357052D01*
X188303738Y-90266215D01*
X188490891Y-90151526D01*
X188490892Y-90151525D01*
X187784625Y-89445258D01*
X187905458Y-89392773D01*
X188022739Y-89297358D01*
X188109928Y-89173839D01*
X188141837Y-89084052D01*
X188850101Y-89792316D01*
X188850102Y-89792315D01*
X188964791Y-89605162D01*
X189055628Y-89385861D01*
X189111039Y-89155056D01*
X189129662Y-88918424D01*
X189111039Y-88681791D01*
X189055628Y-88450986D01*
X188971849Y-88248724D01*
X193934357Y-88248724D01*
X193954885Y-88470263D01*
X194015768Y-88684244D01*
X194015774Y-88684261D01*
X194114938Y-88883408D01*
X194114942Y-88883413D01*
X194249017Y-89060959D01*
X194413438Y-89210848D01*
X194413439Y-89210849D01*
X194602587Y-89327964D01*
X194602590Y-89327965D01*
X194602599Y-89327971D01*
X194669643Y-89353944D01*
X194810053Y-89408340D01*
X194810056Y-89408340D01*
X194810060Y-89408342D01*
X195028757Y-89449224D01*
X195028760Y-89449224D01*
X195251240Y-89449224D01*
X195251243Y-89449224D01*
X195469940Y-89408342D01*
X195469944Y-89408340D01*
X195469946Y-89408340D01*
X195527970Y-89385861D01*
X195677401Y-89327971D01*
X195866562Y-89210848D01*
X196030981Y-89060960D01*
X196049847Y-89035978D01*
X196070974Y-89008000D01*
X196165058Y-88883413D01*
X196165059Y-88883409D01*
X196165061Y-88883408D01*
X196264225Y-88684261D01*
X196264226Y-88684257D01*
X196264229Y-88684252D01*
X196325115Y-88470260D01*
X196345643Y-88248724D01*
X198627337Y-88248724D01*
X198645960Y-88485356D01*
X198701371Y-88716161D01*
X198792206Y-88935457D01*
X198906897Y-89122615D01*
X199655638Y-88373874D01*
X199680507Y-88458568D01*
X199758239Y-88579522D01*
X199866900Y-88673676D01*
X199997685Y-88733404D01*
X200012412Y-88735521D01*
X199266107Y-89481825D01*
X199266107Y-89481826D01*
X199453261Y-89596515D01*
X199672562Y-89687352D01*
X199903367Y-89742763D01*
X200140000Y-89761386D01*
X200376632Y-89742763D01*
X200607437Y-89687352D01*
X200826738Y-89596515D01*
X201013891Y-89481826D01*
X201013892Y-89481825D01*
X200267588Y-88735521D01*
X200282315Y-88733404D01*
X200413100Y-88673676D01*
X200521761Y-88579522D01*
X200599493Y-88458568D01*
X200624360Y-88373875D01*
X201373101Y-89122616D01*
X201373102Y-89122615D01*
X201487791Y-88935462D01*
X201578628Y-88716161D01*
X201634039Y-88485356D01*
X201652662Y-88248724D01*
X201634039Y-88012091D01*
X201578628Y-87781286D01*
X201487791Y-87561985D01*
X201373102Y-87374831D01*
X201373101Y-87374831D01*
X200624360Y-88123572D01*
X200599493Y-88038880D01*
X200521761Y-87917926D01*
X200413100Y-87823772D01*
X200282315Y-87764044D01*
X200267587Y-87761926D01*
X201013891Y-87015621D01*
X200826733Y-86900930D01*
X200607437Y-86810095D01*
X200376632Y-86754684D01*
X200140000Y-86736061D01*
X199903367Y-86754684D01*
X199672562Y-86810095D01*
X199453262Y-86900932D01*
X199266107Y-87015620D01*
X199266107Y-87015622D01*
X200012411Y-87761926D01*
X199997685Y-87764044D01*
X199866900Y-87823772D01*
X199758239Y-87917926D01*
X199680507Y-88038880D01*
X199655639Y-88123572D01*
X198906898Y-87374831D01*
X198906896Y-87374831D01*
X198792208Y-87561986D01*
X198701371Y-87781286D01*
X198645960Y-88012091D01*
X198627337Y-88248724D01*
X196345643Y-88248724D01*
X196325115Y-88027188D01*
X196264229Y-87813196D01*
X196264227Y-87813192D01*
X196264225Y-87813186D01*
X196165061Y-87614039D01*
X196165057Y-87614034D01*
X196030982Y-87436488D01*
X195866561Y-87286599D01*
X195866560Y-87286598D01*
X195677412Y-87169483D01*
X195677405Y-87169479D01*
X195677401Y-87169477D01*
X195677396Y-87169475D01*
X195469946Y-87089107D01*
X195430972Y-87081821D01*
X195251243Y-87048224D01*
X195028757Y-87048224D01*
X194887674Y-87074597D01*
X194810053Y-87089107D01*
X194602603Y-87169475D01*
X194602587Y-87169483D01*
X194413439Y-87286598D01*
X194413438Y-87286599D01*
X194249017Y-87436488D01*
X194114942Y-87614034D01*
X194114938Y-87614039D01*
X194015774Y-87813186D01*
X194015768Y-87813203D01*
X193954885Y-88027184D01*
X193934357Y-88248724D01*
X188971849Y-88248724D01*
X188964791Y-88231685D01*
X188850102Y-88044531D01*
X188850101Y-88044531D01*
X188143902Y-88750730D01*
X188140116Y-88732509D01*
X188070558Y-88598268D01*
X187967362Y-88487772D01*
X187838181Y-88409215D01*
X187782577Y-88393635D01*
X188490891Y-87685321D01*
X188303733Y-87570630D01*
X188084437Y-87479795D01*
X187853632Y-87424384D01*
X187617000Y-87405761D01*
X187380367Y-87424384D01*
X187149562Y-87479795D01*
X186930262Y-87570632D01*
X186743107Y-87685320D01*
X186743107Y-87685322D01*
X187449374Y-88391589D01*
X187328542Y-88444075D01*
X187211261Y-88539490D01*
X187124072Y-88663009D01*
X187092162Y-88752795D01*
X186383898Y-88044531D01*
X186383896Y-88044531D01*
X186269208Y-88231686D01*
X186178371Y-88450986D01*
X186122960Y-88681791D01*
X186104337Y-88918424D01*
X184322643Y-88918424D01*
X184302115Y-88696888D01*
X184298517Y-88684244D01*
X184241231Y-88482903D01*
X184241225Y-88482886D01*
X184142061Y-88283739D01*
X184142057Y-88283734D01*
X184007982Y-88106188D01*
X183843561Y-87956299D01*
X183843560Y-87956298D01*
X183654412Y-87839183D01*
X183654405Y-87839179D01*
X183654401Y-87839177D01*
X183654396Y-87839175D01*
X183446946Y-87758807D01*
X183407972Y-87751521D01*
X183228243Y-87717924D01*
X183005757Y-87717924D01*
X182864674Y-87744297D01*
X182787053Y-87758807D01*
X182579603Y-87839175D01*
X182579587Y-87839183D01*
X182390439Y-87956298D01*
X182390438Y-87956299D01*
X182226017Y-88106188D01*
X182091942Y-88283734D01*
X182091938Y-88283739D01*
X181992774Y-88482886D01*
X181992768Y-88482903D01*
X181931885Y-88696884D01*
X181911357Y-88918424D01*
X181931885Y-89139963D01*
X181992768Y-89353944D01*
X181992774Y-89353961D01*
X182091938Y-89553108D01*
X182091942Y-89553113D01*
X182226017Y-89730659D01*
X182390438Y-89880548D01*
X182390439Y-89880549D01*
X182579587Y-89997664D01*
X182579590Y-89997665D01*
X182579599Y-89997671D01*
X182711019Y-90048583D01*
X182767311Y-90091841D01*
X182791282Y-90158668D01*
X182791500Y-90166073D01*
X182791500Y-94170773D01*
X182771498Y-94238894D01*
X182717842Y-94285387D01*
X182711018Y-94288264D01*
X182579600Y-94339176D01*
X182579587Y-94339183D01*
X182390439Y-94456298D01*
X182390438Y-94456299D01*
X182226017Y-94606188D01*
X182091942Y-94783734D01*
X182091938Y-94783739D01*
X181992774Y-94982886D01*
X181992770Y-94982898D01*
X181987504Y-95001407D01*
X181949622Y-95061453D01*
X181885291Y-95091487D01*
X181866314Y-95092924D01*
X177700016Y-95092924D01*
X177631895Y-95072922D01*
X177610921Y-95056019D01*
X174740165Y-92185263D01*
X174736450Y-92181210D01*
X174710454Y-92150229D01*
X174710451Y-92150227D01*
X174675435Y-92130010D01*
X174670800Y-92127057D01*
X174637683Y-92103869D01*
X174632152Y-92101290D01*
X174616796Y-92094929D01*
X174611047Y-92092836D01*
X174587174Y-92088626D01*
X174571234Y-92085815D01*
X174565872Y-92084627D01*
X174526808Y-92074160D01*
X174526805Y-92074160D01*
X174515127Y-92075181D01*
X174486524Y-92077684D01*
X174481040Y-92077924D01*
X141603960Y-92077924D01*
X141598475Y-92077684D01*
X141569872Y-92075181D01*
X141558195Y-92074160D01*
X141558192Y-92074160D01*
X141519126Y-92084627D01*
X141513761Y-92085816D01*
X141473952Y-92092836D01*
X141468235Y-92094917D01*
X141452832Y-92101297D01*
X141447316Y-92103869D01*
X141414191Y-92127062D01*
X141409558Y-92130013D01*
X141374547Y-92150228D01*
X141374545Y-92150229D01*
X141348547Y-92181211D01*
X141344834Y-92185263D01*
X140783428Y-92746668D01*
X140721116Y-92780694D01*
X140650301Y-92775629D01*
X140617208Y-92757211D01*
X140580664Y-92728924D01*
X140503754Y-92669391D01*
X140503752Y-92669390D01*
X140503751Y-92669389D01*
X140328008Y-92583184D01*
X140328005Y-92583183D01*
X140138501Y-92534116D01*
X140138497Y-92534115D01*
X140138494Y-92534115D01*
X139942999Y-92524201D01*
X139749505Y-92553843D01*
X139749498Y-92553846D01*
X139565939Y-92621827D01*
X139565939Y-92621828D01*
X139565936Y-92621829D01*
X139565935Y-92621830D01*
X139511065Y-92656030D01*
X139399809Y-92725376D01*
X139399800Y-92725383D01*
X139257927Y-92860246D01*
X139146101Y-93020910D01*
X139068906Y-93200797D01*
X139068905Y-93200800D01*
X139068905Y-93200801D01*
X139056998Y-93258737D01*
X139029500Y-93392545D01*
X139029500Y-94555238D01*
X139029501Y-94555257D01*
X139044339Y-94701171D01*
X139102941Y-94887950D01*
X139139861Y-94954465D01*
X139197940Y-95059104D01*
X139198434Y-95059679D01*
X139325449Y-95207635D01*
X139480246Y-95327457D01*
X139595991Y-95384232D01*
X139648340Y-95432188D01*
X139666500Y-95497354D01*
X139666500Y-98516244D01*
X139646498Y-98584365D01*
X139592842Y-98630858D01*
X139577084Y-98636816D01*
X139569273Y-98639185D01*
X139569271Y-98639186D01*
X139395461Y-98732090D01*
X139243117Y-98857117D01*
X139118090Y-99009461D01*
X139025186Y-99183271D01*
X138967974Y-99371873D01*
X138967974Y-99371875D01*
X138948659Y-99567996D01*
X138948659Y-99568003D01*
X138967974Y-99764124D01*
X138967974Y-99764126D01*
X139025186Y-99952728D01*
X139054774Y-100008082D01*
X139118090Y-100126538D01*
X139243117Y-100278883D01*
X139395462Y-100403910D01*
X139569273Y-100496814D01*
X139757868Y-100554024D01*
X139757872Y-100554024D01*
X139757874Y-100554025D01*
X139953997Y-100573341D01*
X139954000Y-100573341D01*
X139954003Y-100573341D01*
X140150124Y-100554025D01*
X140150126Y-100554025D01*
X140150127Y-100554024D01*
X140150132Y-100554024D01*
X140338727Y-100496814D01*
X140512538Y-100403910D01*
X140664883Y-100278883D01*
X140789910Y-100126538D01*
X140882814Y-99952727D01*
X140940024Y-99764132D01*
X140956329Y-99598580D01*
X140959341Y-99568003D01*
X140959341Y-99567996D01*
X140940025Y-99371875D01*
X140940025Y-99371873D01*
X140940024Y-99371870D01*
X140940024Y-99371868D01*
X140882814Y-99183273D01*
X140875929Y-99170393D01*
X140847088Y-99116435D01*
X140789910Y-99009462D01*
X140664883Y-98857117D01*
X140512538Y-98732090D01*
X140481145Y-98715310D01*
X140384104Y-98663440D01*
X140333456Y-98613687D01*
X140317500Y-98552318D01*
X140317500Y-95499962D01*
X140337502Y-95431841D01*
X140391158Y-95385348D01*
X140399741Y-95381805D01*
X140418058Y-95375021D01*
X140418059Y-95375019D01*
X140418065Y-95375018D01*
X140584191Y-95271471D01*
X140584195Y-95271466D01*
X140584199Y-95271464D01*
X140651346Y-95207635D01*
X140726071Y-95136603D01*
X140837899Y-94975936D01*
X140915095Y-94796047D01*
X140954500Y-94604301D01*
X140954500Y-93548440D01*
X140974502Y-93480319D01*
X140991399Y-93459350D01*
X141415516Y-93035233D01*
X141477825Y-93001211D01*
X141548640Y-93006275D01*
X141605476Y-93048822D01*
X141630287Y-93115342D01*
X141620397Y-93174018D01*
X141608907Y-93200791D01*
X141608907Y-93200794D01*
X141608906Y-93200798D01*
X141608905Y-93200801D01*
X141589408Y-93295675D01*
X141569500Y-93392545D01*
X141569500Y-94555238D01*
X141569501Y-94555257D01*
X141584339Y-94701171D01*
X141642941Y-94887950D01*
X141679861Y-94954465D01*
X141737940Y-95059104D01*
X141738434Y-95059679D01*
X141865449Y-95207635D01*
X142020246Y-95327457D01*
X142135991Y-95384232D01*
X142188340Y-95432188D01*
X142206500Y-95497354D01*
X142206500Y-98516244D01*
X142186498Y-98584365D01*
X142132842Y-98630858D01*
X142117084Y-98636816D01*
X142109273Y-98639185D01*
X142109271Y-98639186D01*
X141935461Y-98732090D01*
X141783117Y-98857117D01*
X141658090Y-99009461D01*
X141565186Y-99183271D01*
X141507974Y-99371873D01*
X141507974Y-99371875D01*
X141488659Y-99567996D01*
X141488659Y-99568003D01*
X141507974Y-99764124D01*
X141507974Y-99764126D01*
X141565186Y-99952728D01*
X141594774Y-100008082D01*
X141658090Y-100126538D01*
X141783117Y-100278883D01*
X141935462Y-100403910D01*
X142109273Y-100496814D01*
X142297868Y-100554024D01*
X142297872Y-100554024D01*
X142297874Y-100554025D01*
X142493997Y-100573341D01*
X142494000Y-100573341D01*
X142494003Y-100573341D01*
X142690124Y-100554025D01*
X142690126Y-100554025D01*
X142690127Y-100554024D01*
X142690132Y-100554024D01*
X142878727Y-100496814D01*
X143052538Y-100403910D01*
X143204883Y-100278883D01*
X143329910Y-100126538D01*
X143422814Y-99952727D01*
X143480024Y-99764132D01*
X143496329Y-99598580D01*
X143499341Y-99568003D01*
X143499341Y-99567996D01*
X143480025Y-99371875D01*
X143480025Y-99371873D01*
X143480024Y-99371870D01*
X143480024Y-99371868D01*
X143422814Y-99183273D01*
X143415929Y-99170393D01*
X143387088Y-99116435D01*
X143329910Y-99009462D01*
X143204883Y-98857117D01*
X143052538Y-98732090D01*
X143021145Y-98715310D01*
X142924104Y-98663440D01*
X142873456Y-98613687D01*
X142857500Y-98552318D01*
X142857500Y-95499962D01*
X142877502Y-95431841D01*
X142931158Y-95385348D01*
X142939741Y-95381805D01*
X142958058Y-95375021D01*
X142958059Y-95375019D01*
X142958065Y-95375018D01*
X143124191Y-95271471D01*
X143124195Y-95271466D01*
X143124199Y-95271464D01*
X143191346Y-95207635D01*
X143266071Y-95136603D01*
X143377899Y-94975936D01*
X143455095Y-94796047D01*
X143494500Y-94604301D01*
X143494500Y-93441609D01*
X143479660Y-93295675D01*
X143421059Y-93108899D01*
X143326059Y-92937743D01*
X143325565Y-92937168D01*
X143325417Y-92936995D01*
X143325194Y-92936501D01*
X143322406Y-92932495D01*
X143323152Y-92931975D01*
X143296223Y-92872279D01*
X143306652Y-92802053D01*
X143353392Y-92748612D01*
X143421022Y-92728924D01*
X144188116Y-92728924D01*
X144256237Y-92748926D01*
X144302730Y-92802582D01*
X144312834Y-92872856D01*
X144291532Y-92926904D01*
X144226101Y-93020910D01*
X144148906Y-93200797D01*
X144148905Y-93200800D01*
X144148905Y-93200801D01*
X144136998Y-93258737D01*
X144109500Y-93392545D01*
X144109500Y-94555238D01*
X144109501Y-94555257D01*
X144124339Y-94701171D01*
X144182941Y-94887950D01*
X144219861Y-94954465D01*
X144277940Y-95059104D01*
X144278434Y-95059679D01*
X144405449Y-95207635D01*
X144560246Y-95327457D01*
X144675991Y-95384232D01*
X144728340Y-95432188D01*
X144746500Y-95497354D01*
X144746500Y-98516244D01*
X144726498Y-98584365D01*
X144672842Y-98630858D01*
X144657084Y-98636816D01*
X144649273Y-98639185D01*
X144649271Y-98639186D01*
X144475461Y-98732090D01*
X144323117Y-98857117D01*
X144198090Y-99009461D01*
X144105186Y-99183271D01*
X144047974Y-99371873D01*
X144047974Y-99371875D01*
X144028659Y-99567996D01*
X144028659Y-99568003D01*
X144047974Y-99764124D01*
X144047974Y-99764126D01*
X144105186Y-99952728D01*
X144134774Y-100008082D01*
X144198090Y-100126538D01*
X144323117Y-100278883D01*
X144475462Y-100403910D01*
X144649273Y-100496814D01*
X144837868Y-100554024D01*
X144837872Y-100554024D01*
X144837874Y-100554025D01*
X145033997Y-100573341D01*
X145034000Y-100573341D01*
X145034003Y-100573341D01*
X145230124Y-100554025D01*
X145230125Y-100554024D01*
X145230132Y-100554024D01*
X145410726Y-100499240D01*
X145481716Y-100498607D01*
X145536393Y-100530719D01*
X148347849Y-103342176D01*
X148351554Y-103346219D01*
X148377544Y-103377193D01*
X148377546Y-103377195D01*
X148412561Y-103397410D01*
X148417198Y-103400364D01*
X148450316Y-103423553D01*
X148455876Y-103426146D01*
X148471196Y-103432492D01*
X148476955Y-103434588D01*
X148516779Y-103441610D01*
X148522126Y-103442794D01*
X148561193Y-103453263D01*
X148592012Y-103450566D01*
X148601470Y-103449740D01*
X148606962Y-103449500D01*
X171433040Y-103449500D01*
X171438525Y-103449739D01*
X171478807Y-103453264D01*
X171517870Y-103442796D01*
X171523231Y-103441607D01*
X171563045Y-103434588D01*
X171563047Y-103434586D01*
X171568838Y-103432479D01*
X171584101Y-103426157D01*
X171589681Y-103423555D01*
X171589681Y-103423554D01*
X171589684Y-103423554D01*
X171622817Y-103400352D01*
X171627428Y-103397415D01*
X171662455Y-103377194D01*
X171688453Y-103346209D01*
X171692146Y-103342178D01*
X173833924Y-101200402D01*
X173896234Y-101166379D01*
X173923017Y-101163500D01*
X177664376Y-101163500D01*
X177732497Y-101183502D01*
X177778990Y-101237158D01*
X177789094Y-101307432D01*
X177759600Y-101372012D01*
X177700952Y-101410074D01*
X177516503Y-101466025D01*
X177516499Y-101466027D01*
X177351374Y-101554288D01*
X177206643Y-101673067D01*
X177087864Y-101817798D01*
X176999603Y-101982923D01*
X176999601Y-101982927D01*
X176945253Y-102162089D01*
X176945251Y-102162100D01*
X176926901Y-102348420D01*
X176926901Y-102348427D01*
X176945251Y-102534747D01*
X176945253Y-102534758D01*
X176999601Y-102713920D01*
X176999603Y-102713924D01*
X177059375Y-102825749D01*
X177087864Y-102879049D01*
X177206643Y-103023781D01*
X177351375Y-103142560D01*
X177472513Y-103207309D01*
X177516499Y-103230820D01*
X177516503Y-103230822D01*
X177695665Y-103285170D01*
X177695666Y-103285170D01*
X177695669Y-103285171D01*
X177695672Y-103285171D01*
X177695676Y-103285172D01*
X177881997Y-103303523D01*
X177882000Y-103303523D01*
X177882003Y-103303523D01*
X178068323Y-103285172D01*
X178068325Y-103285171D01*
X178068331Y-103285171D01*
X178120245Y-103269423D01*
X178247496Y-103230822D01*
X178247498Y-103230820D01*
X178247501Y-103230820D01*
X178412625Y-103142560D01*
X178557357Y-103023781D01*
X178676136Y-102879049D01*
X178764396Y-102713925D01*
X178775648Y-102676835D01*
X178818503Y-102535558D01*
X178818747Y-102534755D01*
X178830254Y-102417926D01*
X178837099Y-102348427D01*
X178837099Y-102348420D01*
X178818748Y-102162100D01*
X178818746Y-102162089D01*
X178764398Y-101982927D01*
X178764396Y-101982923D01*
X178733793Y-101925669D01*
X178676136Y-101817799D01*
X178557357Y-101673067D01*
X178412625Y-101554288D01*
X178374914Y-101534131D01*
X178247500Y-101466027D01*
X178247496Y-101466025D01*
X178063048Y-101410074D01*
X178003667Y-101371159D01*
X177974751Y-101306318D01*
X177985482Y-101236137D01*
X178032452Y-101182898D01*
X178099624Y-101163500D01*
X196894422Y-101163500D01*
X196962543Y-101183502D01*
X197009036Y-101237158D01*
X197019140Y-101307432D01*
X196989646Y-101372012D01*
X196957003Y-101397558D01*
X196957485Y-101398345D01*
X196766107Y-101515620D01*
X196766107Y-101515622D01*
X197512411Y-102261926D01*
X197497685Y-102264044D01*
X197366900Y-102323772D01*
X197258239Y-102417926D01*
X197180507Y-102538880D01*
X197155639Y-102623572D01*
X196377405Y-101845338D01*
X196343379Y-101783026D01*
X196340500Y-101756243D01*
X196340500Y-101728977D01*
X196340499Y-101728973D01*
X196333261Y-101692586D01*
X196328867Y-101670493D01*
X196284552Y-101604172D01*
X196218231Y-101559857D01*
X196218228Y-101559856D01*
X196159750Y-101548224D01*
X196159748Y-101548224D01*
X194120252Y-101548224D01*
X194120249Y-101548224D01*
X194061771Y-101559856D01*
X194061768Y-101559857D01*
X193995448Y-101604172D01*
X193951133Y-101670492D01*
X193951132Y-101670495D01*
X193939500Y-101728973D01*
X193939500Y-103768474D01*
X193948235Y-103812390D01*
X193951133Y-103826955D01*
X193995448Y-103893276D01*
X194061769Y-103937591D01*
X194120252Y-103949224D01*
X194120253Y-103949224D01*
X196159747Y-103949224D01*
X196159748Y-103949224D01*
X196218231Y-103937591D01*
X196284552Y-103893276D01*
X196328867Y-103826955D01*
X196340500Y-103768472D01*
X196340500Y-103741204D01*
X196360502Y-103673083D01*
X196377405Y-103652108D01*
X197155638Y-102873874D01*
X197180507Y-102958568D01*
X197258239Y-103079522D01*
X197366900Y-103173676D01*
X197497685Y-103233404D01*
X197512412Y-103235521D01*
X196766107Y-103981825D01*
X196766107Y-103981826D01*
X196953261Y-104096515D01*
X197172562Y-104187352D01*
X197403367Y-104242763D01*
X197640000Y-104261386D01*
X197876632Y-104242763D01*
X198107437Y-104187352D01*
X198326738Y-104096515D01*
X198513891Y-103981826D01*
X198513892Y-103981825D01*
X197767588Y-103235521D01*
X197782315Y-103233404D01*
X197913100Y-103173676D01*
X198021761Y-103079522D01*
X198099493Y-102958568D01*
X198124360Y-102873875D01*
X198873101Y-103622616D01*
X198965772Y-103471392D01*
X199018420Y-103423761D01*
X199088461Y-103412154D01*
X199153659Y-103440257D01*
X199173755Y-103461295D01*
X199249017Y-103560959D01*
X199413438Y-103710848D01*
X199413439Y-103710849D01*
X199602587Y-103827964D01*
X199602590Y-103827965D01*
X199602599Y-103827971D01*
X199690817Y-103862147D01*
X199810053Y-103908340D01*
X199810056Y-103908340D01*
X199810060Y-103908342D01*
X200028757Y-103949224D01*
X200028760Y-103949224D01*
X200251240Y-103949224D01*
X200251243Y-103949224D01*
X200469940Y-103908342D01*
X200469944Y-103908340D01*
X200469946Y-103908340D01*
X200659601Y-103834867D01*
X200730348Y-103828910D01*
X200793084Y-103862147D01*
X200794213Y-103863263D01*
X201079595Y-104148645D01*
X201113621Y-104210957D01*
X201116500Y-104237740D01*
X201116500Y-105136007D01*
X201096498Y-105204128D01*
X201049896Y-105247129D01*
X200883461Y-105336090D01*
X200731117Y-105461117D01*
X200606090Y-105613461D01*
X200513186Y-105787271D01*
X200455974Y-105975873D01*
X200455974Y-105975875D01*
X200436659Y-106171996D01*
X200436659Y-106172003D01*
X200455974Y-106368124D01*
X200455974Y-106368126D01*
X200513186Y-106556728D01*
X200584654Y-106690434D01*
X200606090Y-106730538D01*
X200731117Y-106882883D01*
X200883462Y-107007910D01*
X201057273Y-107100814D01*
X201245868Y-107158024D01*
X201245873Y-107158024D01*
X201245875Y-107158025D01*
X201290963Y-107162466D01*
X201356796Y-107189048D01*
X201397806Y-107247002D01*
X201400974Y-107317928D01*
X201367710Y-107376954D01*
X201193646Y-107551019D01*
X201131334Y-107585044D01*
X201104550Y-107587924D01*
X199488882Y-107587924D01*
X199420761Y-107567922D01*
X199374268Y-107514266D01*
X199364164Y-107443992D01*
X199393658Y-107379412D01*
X199435632Y-107347729D01*
X199518497Y-107309088D01*
X199589888Y-107259099D01*
X199589888Y-107259097D01*
X198901518Y-106570727D01*
X198987148Y-106557165D01*
X199100045Y-106499641D01*
X199189641Y-106410045D01*
X199247165Y-106297148D01*
X199260727Y-106211518D01*
X199949097Y-106899888D01*
X199949099Y-106899888D01*
X199999088Y-106828497D01*
X200095811Y-106621073D01*
X200095813Y-106621068D01*
X200155048Y-106400002D01*
X200174995Y-106172000D01*
X200155048Y-105943997D01*
X200095813Y-105722931D01*
X200095811Y-105722926D01*
X199999086Y-105515498D01*
X199949100Y-105444110D01*
X199949098Y-105444110D01*
X199260727Y-106132481D01*
X199247165Y-106046852D01*
X199189641Y-105933955D01*
X199100045Y-105844359D01*
X198987148Y-105786835D01*
X198901517Y-105773272D01*
X199589888Y-105084899D01*
X199589888Y-105084898D01*
X199518501Y-105034913D01*
X199311073Y-104938188D01*
X199311068Y-104938186D01*
X199090000Y-104878951D01*
X199090004Y-104878951D01*
X198862000Y-104859004D01*
X198633997Y-104878951D01*
X198412931Y-104938186D01*
X198412926Y-104938188D01*
X198205500Y-105034913D01*
X198134109Y-105084900D01*
X198822481Y-105773272D01*
X198736852Y-105786835D01*
X198623955Y-105844359D01*
X198534359Y-105933955D01*
X198476835Y-106046852D01*
X198463272Y-106132481D01*
X197774900Y-105444109D01*
X197724913Y-105515500D01*
X197628188Y-105722926D01*
X197628183Y-105722938D01*
X197574995Y-105921438D01*
X197538044Y-105982060D01*
X197474183Y-106013082D01*
X197403689Y-106004653D01*
X197348942Y-105959449D01*
X197332716Y-105925406D01*
X197290814Y-105787273D01*
X197197910Y-105613462D01*
X197072883Y-105461117D01*
X196920538Y-105336090D01*
X196746728Y-105243186D01*
X196594153Y-105196903D01*
X196558132Y-105185976D01*
X196558131Y-105185975D01*
X196558125Y-105185974D01*
X196362003Y-105166659D01*
X196361997Y-105166659D01*
X196165875Y-105185974D01*
X196165873Y-105185974D01*
X195977271Y-105243186D01*
X195803461Y-105336090D01*
X195651117Y-105461117D01*
X195526090Y-105613461D01*
X195433186Y-105787271D01*
X195375974Y-105975873D01*
X195375974Y-105975875D01*
X195356659Y-106171996D01*
X195356659Y-106172003D01*
X195375974Y-106368124D01*
X195375974Y-106368126D01*
X195433186Y-106556728D01*
X195504654Y-106690434D01*
X195526090Y-106730538D01*
X195651117Y-106882883D01*
X195803462Y-107007910D01*
X195977273Y-107100814D01*
X196165868Y-107158024D01*
X196165872Y-107158024D01*
X196165874Y-107158025D01*
X196361997Y-107177341D01*
X196362000Y-107177341D01*
X196362003Y-107177341D01*
X196558124Y-107158025D01*
X196558126Y-107158025D01*
X196558127Y-107158024D01*
X196558132Y-107158024D01*
X196746727Y-107100814D01*
X196920538Y-107007910D01*
X197072883Y-106882883D01*
X197197910Y-106730538D01*
X197290814Y-106556727D01*
X197332716Y-106418594D01*
X197371629Y-106359216D01*
X197436470Y-106330301D01*
X197506651Y-106341031D01*
X197559890Y-106388000D01*
X197574996Y-106422561D01*
X197628187Y-106621071D01*
X197628188Y-106621073D01*
X197724913Y-106828501D01*
X197774899Y-106899888D01*
X198463272Y-106211516D01*
X198476835Y-106297148D01*
X198534359Y-106410045D01*
X198623955Y-106499641D01*
X198736852Y-106557165D01*
X198822482Y-106570727D01*
X198134110Y-107259098D01*
X198134110Y-107259100D01*
X198205498Y-107309086D01*
X198288368Y-107347729D01*
X198341653Y-107394646D01*
X198361114Y-107462924D01*
X198340572Y-107530883D01*
X198286549Y-107576949D01*
X198235118Y-107587924D01*
X196481960Y-107587924D01*
X196476475Y-107587684D01*
X196446297Y-107585044D01*
X196436195Y-107584160D01*
X196436192Y-107584160D01*
X196397126Y-107594627D01*
X196391761Y-107595816D01*
X196351952Y-107602836D01*
X196346235Y-107604917D01*
X196330832Y-107611297D01*
X196325316Y-107613869D01*
X196292191Y-107637062D01*
X196287558Y-107640013D01*
X196252547Y-107660228D01*
X196252545Y-107660229D01*
X196226547Y-107691211D01*
X196222834Y-107695263D01*
X195794212Y-108123884D01*
X195731900Y-108157910D01*
X195661085Y-108152845D01*
X195659601Y-108152281D01*
X195469943Y-108078807D01*
X195469942Y-108078806D01*
X195469940Y-108078806D01*
X195251243Y-108037924D01*
X195028757Y-108037924D01*
X194887674Y-108064297D01*
X194810053Y-108078807D01*
X194602603Y-108159175D01*
X194602587Y-108159183D01*
X194413439Y-108276298D01*
X194413438Y-108276299D01*
X194249017Y-108426188D01*
X194114942Y-108603734D01*
X194114938Y-108603739D01*
X194015774Y-108802886D01*
X194015768Y-108802903D01*
X193954885Y-109016884D01*
X193934357Y-109238424D01*
X193954885Y-109459963D01*
X194015768Y-109673944D01*
X194015774Y-109673961D01*
X194114938Y-109873108D01*
X194114942Y-109873113D01*
X194249017Y-110050659D01*
X194413438Y-110200548D01*
X194413439Y-110200549D01*
X194602587Y-110317664D01*
X194602590Y-110317665D01*
X194602599Y-110317671D01*
X194692989Y-110352688D01*
X194810053Y-110398040D01*
X194810056Y-110398040D01*
X194810060Y-110398042D01*
X195028757Y-110438924D01*
X195028760Y-110438924D01*
X195251240Y-110438924D01*
X195251243Y-110438924D01*
X195469940Y-110398042D01*
X195469944Y-110398040D01*
X195469946Y-110398040D01*
X195523298Y-110377370D01*
X195677401Y-110317671D01*
X195866562Y-110200548D01*
X196030981Y-110050660D01*
X196165058Y-109873113D01*
X196165059Y-109873109D01*
X196165061Y-109873108D01*
X196264225Y-109673961D01*
X196264226Y-109673957D01*
X196264229Y-109673952D01*
X196325115Y-109459960D01*
X196345643Y-109238424D01*
X196325115Y-109016888D01*
X196264229Y-108802896D01*
X196228721Y-108731588D01*
X196216262Y-108661697D01*
X196243568Y-108596162D01*
X196252406Y-108586342D01*
X196562922Y-108275828D01*
X196625234Y-108241803D01*
X196652017Y-108238924D01*
X198758881Y-108238924D01*
X198827002Y-108258926D01*
X198873495Y-108312582D01*
X198883599Y-108382856D01*
X198866314Y-108430759D01*
X198792206Y-108551690D01*
X198701371Y-108770986D01*
X198645960Y-109001791D01*
X198627337Y-109238424D01*
X198645960Y-109475056D01*
X198701371Y-109705861D01*
X198792206Y-109925157D01*
X198906898Y-110112315D01*
X199655638Y-109363574D01*
X199680507Y-109448268D01*
X199758239Y-109569222D01*
X199866900Y-109663376D01*
X199997685Y-109723104D01*
X200012412Y-109725221D01*
X199266107Y-110471525D01*
X199266107Y-110471526D01*
X199453261Y-110586215D01*
X199672562Y-110677052D01*
X199903367Y-110732463D01*
X200140000Y-110751086D01*
X200376632Y-110732463D01*
X200607437Y-110677052D01*
X200826738Y-110586215D01*
X201013891Y-110471526D01*
X201013892Y-110471525D01*
X200267588Y-109725221D01*
X200282315Y-109723104D01*
X200413100Y-109663376D01*
X200521761Y-109569222D01*
X200599493Y-109448268D01*
X200624360Y-109363575D01*
X201373101Y-110112316D01*
X201373102Y-110112315D01*
X201487791Y-109925162D01*
X201578628Y-109705861D01*
X201634039Y-109475056D01*
X201652662Y-109238424D01*
X201634039Y-109001791D01*
X201578628Y-108770986D01*
X201487791Y-108551685D01*
X201387506Y-108388036D01*
X201368967Y-108319503D01*
X201390423Y-108251826D01*
X201422666Y-108218989D01*
X201431249Y-108212978D01*
X201431251Y-108212978D01*
X201464380Y-108189779D01*
X201468995Y-108186839D01*
X201504022Y-108166618D01*
X201530020Y-108135633D01*
X201533713Y-108131602D01*
X202910192Y-106755124D01*
X202914210Y-106751442D01*
X202945194Y-106725446D01*
X202965421Y-106690409D01*
X202968352Y-106685808D01*
X202991554Y-106652675D01*
X202991555Y-106652672D01*
X202994147Y-106647113D01*
X203000480Y-106631824D01*
X203002585Y-106626040D01*
X203002588Y-106626036D01*
X203009611Y-106586197D01*
X203010791Y-106580875D01*
X203021263Y-106541798D01*
X203020337Y-106531210D01*
X203017740Y-106501520D01*
X203017500Y-106496028D01*
X203017500Y-103880511D01*
X203037502Y-103812390D01*
X203091158Y-103765897D01*
X203161432Y-103755793D01*
X203226012Y-103785287D01*
X203232595Y-103791416D01*
X204869595Y-105428416D01*
X204903621Y-105490728D01*
X204906500Y-105517511D01*
X204906500Y-118459407D01*
X204886498Y-118527528D01*
X204869595Y-118548502D01*
X200794212Y-122623884D01*
X200731900Y-122657910D01*
X200661084Y-122652845D01*
X200659601Y-122652281D01*
X200469943Y-122578807D01*
X200469942Y-122578806D01*
X200469940Y-122578806D01*
X200251243Y-122537924D01*
X200028757Y-122537924D01*
X199905778Y-122560913D01*
X199810053Y-122578807D01*
X199602603Y-122659175D01*
X199602587Y-122659183D01*
X199413439Y-122776298D01*
X199413438Y-122776299D01*
X199249017Y-122926188D01*
X199173755Y-123025852D01*
X199116741Y-123068160D01*
X199045905Y-123072927D01*
X198983736Y-123038640D01*
X198965773Y-123015755D01*
X198873102Y-122864531D01*
X198873101Y-122864531D01*
X198124360Y-123613272D01*
X198099493Y-123528580D01*
X198021761Y-123407626D01*
X197913100Y-123313472D01*
X197782315Y-123253744D01*
X197767587Y-123251626D01*
X198513891Y-122505321D01*
X198326733Y-122390630D01*
X198107437Y-122299795D01*
X197876632Y-122244384D01*
X197640000Y-122225761D01*
X197403367Y-122244384D01*
X197172562Y-122299795D01*
X196953262Y-122390632D01*
X196766107Y-122505320D01*
X196766107Y-122505322D01*
X197512411Y-123251626D01*
X197497685Y-123253744D01*
X197366900Y-123313472D01*
X197258239Y-123407626D01*
X197180507Y-123528580D01*
X197155639Y-123613272D01*
X196377405Y-122835038D01*
X196343379Y-122772726D01*
X196340500Y-122745943D01*
X196340500Y-122718677D01*
X196340499Y-122718673D01*
X196334865Y-122690350D01*
X196328867Y-122660193D01*
X196284552Y-122593872D01*
X196218231Y-122549557D01*
X196218228Y-122549556D01*
X196159750Y-122537924D01*
X196159748Y-122537924D01*
X194120252Y-122537924D01*
X194120249Y-122537924D01*
X194061771Y-122549556D01*
X194061768Y-122549557D01*
X193995448Y-122593872D01*
X193951133Y-122660192D01*
X193951132Y-122660195D01*
X193939500Y-122718673D01*
X193939500Y-124758174D01*
X193949244Y-124807162D01*
X193951133Y-124816655D01*
X193995448Y-124882976D01*
X194061769Y-124927291D01*
X194120252Y-124938924D01*
X194120253Y-124938924D01*
X196159747Y-124938924D01*
X196159748Y-124938924D01*
X196218231Y-124927291D01*
X196284552Y-124882976D01*
X196328867Y-124816655D01*
X196340500Y-124758172D01*
X196340500Y-124730904D01*
X196360502Y-124662783D01*
X196377405Y-124641808D01*
X197155638Y-123863574D01*
X197180507Y-123948268D01*
X197258239Y-124069222D01*
X197366900Y-124163376D01*
X197497685Y-124223104D01*
X197512412Y-124225221D01*
X196766107Y-124971525D01*
X196766107Y-124971526D01*
X196953261Y-125086215D01*
X197172562Y-125177052D01*
X197403367Y-125232463D01*
X197640000Y-125251086D01*
X197876632Y-125232463D01*
X198107437Y-125177052D01*
X198326738Y-125086215D01*
X198513891Y-124971526D01*
X198513892Y-124971525D01*
X197767588Y-124225221D01*
X197782315Y-124223104D01*
X197913100Y-124163376D01*
X198021761Y-124069222D01*
X198099493Y-123948268D01*
X198124360Y-123863575D01*
X198873101Y-124612316D01*
X198965772Y-124461092D01*
X199018420Y-124413461D01*
X199088461Y-124401854D01*
X199153659Y-124429957D01*
X199173755Y-124450995D01*
X199249017Y-124550659D01*
X199413438Y-124700548D01*
X199413439Y-124700549D01*
X199602587Y-124817664D01*
X199602590Y-124817665D01*
X199602599Y-124817671D01*
X199690817Y-124851847D01*
X199810053Y-124898040D01*
X199810056Y-124898040D01*
X199810060Y-124898042D01*
X200028757Y-124938924D01*
X200028760Y-124938924D01*
X200251240Y-124938924D01*
X200251243Y-124938924D01*
X200469940Y-124898042D01*
X200469944Y-124898040D01*
X200469946Y-124898040D01*
X200659601Y-124824567D01*
X200730348Y-124818610D01*
X200793084Y-124851847D01*
X200794213Y-124852963D01*
X201079595Y-125138345D01*
X201113621Y-125200657D01*
X201116500Y-125227440D01*
X201116500Y-125964007D01*
X201096498Y-126032128D01*
X201049896Y-126075129D01*
X200883461Y-126164090D01*
X200731117Y-126289117D01*
X200606090Y-126441461D01*
X200513186Y-126615271D01*
X200455974Y-126803873D01*
X200455974Y-126803875D01*
X200436659Y-126999996D01*
X200436659Y-127000003D01*
X200455974Y-127196124D01*
X200455974Y-127196126D01*
X200513186Y-127384728D01*
X200606090Y-127558538D01*
X200634837Y-127593566D01*
X200662591Y-127658913D01*
X200650610Y-127728891D01*
X200602697Y-127781283D01*
X200537438Y-127799500D01*
X200130186Y-127799500D01*
X200062065Y-127779498D01*
X200015572Y-127725842D01*
X200005468Y-127655568D01*
X200015991Y-127620250D01*
X200095811Y-127449074D01*
X200095813Y-127449068D01*
X200155048Y-127228002D01*
X200174995Y-127000000D01*
X200155048Y-126771997D01*
X200095813Y-126550931D01*
X200095811Y-126550926D01*
X199999086Y-126343498D01*
X199949100Y-126272110D01*
X199949097Y-126272110D01*
X199260726Y-126960480D01*
X199247165Y-126874852D01*
X199189641Y-126761955D01*
X199100045Y-126672359D01*
X198987148Y-126614835D01*
X198901517Y-126601272D01*
X199589888Y-125912899D01*
X199589888Y-125912898D01*
X199518501Y-125862913D01*
X199311073Y-125766188D01*
X199311068Y-125766186D01*
X199090000Y-125706951D01*
X199090004Y-125706951D01*
X198862000Y-125687004D01*
X198633997Y-125706951D01*
X198412931Y-125766186D01*
X198412926Y-125766188D01*
X198205500Y-125862913D01*
X198134109Y-125912900D01*
X198822481Y-126601272D01*
X198736852Y-126614835D01*
X198623955Y-126672359D01*
X198534359Y-126761955D01*
X198476835Y-126874852D01*
X198463272Y-126960482D01*
X197774900Y-126272109D01*
X197724913Y-126343500D01*
X197628188Y-126550926D01*
X197628183Y-126550938D01*
X197574995Y-126749438D01*
X197538044Y-126810060D01*
X197474183Y-126841082D01*
X197403689Y-126832653D01*
X197348942Y-126787449D01*
X197332716Y-126753406D01*
X197290814Y-126615273D01*
X197197910Y-126441462D01*
X197072883Y-126289117D01*
X196920538Y-126164090D01*
X196746728Y-126071186D01*
X196558125Y-126013974D01*
X196362003Y-125994659D01*
X196361997Y-125994659D01*
X196165875Y-126013974D01*
X196165873Y-126013974D01*
X195977271Y-126071186D01*
X195803461Y-126164090D01*
X195651117Y-126289117D01*
X195526090Y-126441461D01*
X195433186Y-126615271D01*
X195375974Y-126803873D01*
X195375974Y-126803875D01*
X195356659Y-126999996D01*
X195356659Y-127000003D01*
X195375974Y-127196124D01*
X195375974Y-127196126D01*
X195433186Y-127384728D01*
X195478749Y-127469969D01*
X195526090Y-127558538D01*
X195651117Y-127710883D01*
X195803462Y-127835910D01*
X195977273Y-127928814D01*
X196165868Y-127986024D01*
X196165872Y-127986024D01*
X196165874Y-127986025D01*
X196361997Y-128005341D01*
X196362000Y-128005341D01*
X196362003Y-128005341D01*
X196558124Y-127986025D01*
X196558126Y-127986024D01*
X196558132Y-127986024D01*
X196738723Y-127931241D01*
X196809715Y-127930608D01*
X196864393Y-127962721D01*
X197244844Y-128343171D01*
X197248558Y-128347225D01*
X197274543Y-128378192D01*
X197274546Y-128378195D01*
X197293958Y-128389402D01*
X197309564Y-128398412D01*
X197314183Y-128401354D01*
X197347316Y-128424554D01*
X197347320Y-128424555D01*
X197352876Y-128427146D01*
X197368182Y-128433486D01*
X197373949Y-128435585D01*
X197373955Y-128435588D01*
X197413784Y-128442610D01*
X197419131Y-128443796D01*
X197458193Y-128454263D01*
X197483539Y-128452045D01*
X197498470Y-128450740D01*
X197503962Y-128450500D01*
X201891031Y-128450500D01*
X201896516Y-128450739D01*
X201936798Y-128454264D01*
X201936806Y-128454262D01*
X201949949Y-128450740D01*
X201975861Y-128443796D01*
X201981222Y-128442607D01*
X202021036Y-128435588D01*
X202021038Y-128435586D01*
X202026829Y-128433479D01*
X202042092Y-128427157D01*
X202047672Y-128424555D01*
X202047672Y-128424554D01*
X202047675Y-128424554D01*
X202080808Y-128401352D01*
X202085419Y-128398415D01*
X202120446Y-128378194D01*
X202146439Y-128347215D01*
X202150145Y-128343171D01*
X202731082Y-127762234D01*
X202793392Y-127728211D01*
X202831156Y-127725811D01*
X202854901Y-127727888D01*
X203543272Y-127039516D01*
X203556835Y-127125148D01*
X203614359Y-127238045D01*
X203703955Y-127327641D01*
X203816852Y-127385165D01*
X203902482Y-127398727D01*
X203214110Y-128087098D01*
X203214110Y-128087100D01*
X203285498Y-128137086D01*
X203492926Y-128233811D01*
X203492931Y-128233813D01*
X203713999Y-128293048D01*
X203713995Y-128293048D01*
X203942000Y-128312995D01*
X204170002Y-128293048D01*
X204391068Y-128233813D01*
X204391073Y-128233811D01*
X204598497Y-128137088D01*
X204669888Y-128087099D01*
X204669888Y-128087097D01*
X203981518Y-127398727D01*
X204067148Y-127385165D01*
X204180045Y-127327641D01*
X204269641Y-127238045D01*
X204327165Y-127125148D01*
X204340727Y-127039518D01*
X205029097Y-127727888D01*
X205029099Y-127727888D01*
X205079088Y-127656497D01*
X205175811Y-127449073D01*
X205175813Y-127449068D01*
X205235048Y-127228002D01*
X205254995Y-127000000D01*
X205235048Y-126771997D01*
X205175813Y-126550931D01*
X205175811Y-126550926D01*
X205079086Y-126343498D01*
X205029100Y-126272110D01*
X205029098Y-126272110D01*
X204340727Y-126960481D01*
X204327165Y-126874852D01*
X204269641Y-126761955D01*
X204180045Y-126672359D01*
X204067148Y-126614835D01*
X203981517Y-126601272D01*
X204669888Y-125912899D01*
X204669888Y-125912898D01*
X204598501Y-125862913D01*
X204391073Y-125766188D01*
X204391068Y-125766186D01*
X204170000Y-125706951D01*
X204169994Y-125706950D01*
X204148951Y-125705109D01*
X204082833Y-125679246D01*
X204041194Y-125621742D01*
X204037254Y-125550855D01*
X204070836Y-125490498D01*
X205820407Y-123740927D01*
X205882717Y-123706903D01*
X205953533Y-123711968D01*
X206010368Y-123754515D01*
X206035179Y-123821035D01*
X206035500Y-123830024D01*
X206035500Y-128669924D01*
X206015498Y-128738045D01*
X205961842Y-128784538D01*
X205909500Y-128795924D01*
X106162500Y-128795924D01*
X106094379Y-128775922D01*
X106047886Y-128722266D01*
X106036500Y-128669924D01*
X106036500Y-127000003D01*
X182148659Y-127000003D01*
X182167974Y-127196124D01*
X182167974Y-127196126D01*
X182225186Y-127384728D01*
X182270749Y-127469969D01*
X182318090Y-127558538D01*
X182443117Y-127710883D01*
X182595462Y-127835910D01*
X182769273Y-127928814D01*
X182957868Y-127986024D01*
X182957872Y-127986024D01*
X182957874Y-127986025D01*
X183153997Y-128005341D01*
X183154000Y-128005341D01*
X183154003Y-128005341D01*
X183350124Y-127986025D01*
X183350126Y-127986025D01*
X183350127Y-127986024D01*
X183350132Y-127986024D01*
X183538727Y-127928814D01*
X183712538Y-127835910D01*
X183864883Y-127710883D01*
X183989910Y-127558538D01*
X184082814Y-127384727D01*
X184124716Y-127246594D01*
X184163629Y-127187216D01*
X184228470Y-127158301D01*
X184298651Y-127169031D01*
X184351890Y-127216000D01*
X184366996Y-127250561D01*
X184420187Y-127449071D01*
X184420188Y-127449073D01*
X184516913Y-127656501D01*
X184566899Y-127727888D01*
X185255272Y-127039516D01*
X185268835Y-127125148D01*
X185326359Y-127238045D01*
X185415955Y-127327641D01*
X185528852Y-127385165D01*
X185614482Y-127398727D01*
X184926110Y-128087098D01*
X184926110Y-128087100D01*
X184997498Y-128137086D01*
X185204926Y-128233811D01*
X185204931Y-128233813D01*
X185425999Y-128293048D01*
X185425995Y-128293048D01*
X185654000Y-128312995D01*
X185882002Y-128293048D01*
X186103068Y-128233813D01*
X186103073Y-128233811D01*
X186310497Y-128137088D01*
X186381888Y-128087099D01*
X186381888Y-128087097D01*
X185693518Y-127398727D01*
X185779148Y-127385165D01*
X185892045Y-127327641D01*
X185981641Y-127238045D01*
X186039165Y-127125148D01*
X186052727Y-127039518D01*
X186741097Y-127727888D01*
X186741099Y-127727888D01*
X186791088Y-127656497D01*
X186887811Y-127449073D01*
X186887813Y-127449068D01*
X186947048Y-127228002D01*
X186966995Y-127000003D01*
X190276659Y-127000003D01*
X190295974Y-127196124D01*
X190295974Y-127196126D01*
X190353186Y-127384728D01*
X190398749Y-127469969D01*
X190446090Y-127558538D01*
X190571117Y-127710883D01*
X190723462Y-127835910D01*
X190897273Y-127928814D01*
X191085868Y-127986024D01*
X191085872Y-127986024D01*
X191085874Y-127986025D01*
X191281997Y-128005341D01*
X191282000Y-128005341D01*
X191282003Y-128005341D01*
X191478124Y-127986025D01*
X191478126Y-127986025D01*
X191478127Y-127986024D01*
X191478132Y-127986024D01*
X191666727Y-127928814D01*
X191840538Y-127835910D01*
X191992883Y-127710883D01*
X192117910Y-127558538D01*
X192210814Y-127384727D01*
X192252716Y-127246594D01*
X192291629Y-127187216D01*
X192356470Y-127158301D01*
X192426651Y-127169031D01*
X192479890Y-127216000D01*
X192494996Y-127250561D01*
X192548187Y-127449071D01*
X192548188Y-127449073D01*
X192644913Y-127656501D01*
X192694899Y-127727888D01*
X193383272Y-127039516D01*
X193396835Y-127125148D01*
X193454359Y-127238045D01*
X193543955Y-127327641D01*
X193656852Y-127385165D01*
X193742482Y-127398727D01*
X193054110Y-128087098D01*
X193054110Y-128087100D01*
X193125498Y-128137086D01*
X193332926Y-128233811D01*
X193332931Y-128233813D01*
X193553999Y-128293048D01*
X193553995Y-128293048D01*
X193782000Y-128312995D01*
X194010002Y-128293048D01*
X194231068Y-128233813D01*
X194231073Y-128233811D01*
X194438497Y-128137088D01*
X194509888Y-128087099D01*
X194509888Y-128087097D01*
X193821518Y-127398727D01*
X193907148Y-127385165D01*
X194020045Y-127327641D01*
X194109641Y-127238045D01*
X194167165Y-127125148D01*
X194180727Y-127039518D01*
X194869097Y-127727888D01*
X194869099Y-127727888D01*
X194919088Y-127656497D01*
X195015811Y-127449073D01*
X195015813Y-127449068D01*
X195075048Y-127228002D01*
X195094995Y-127000000D01*
X195075048Y-126771997D01*
X195015813Y-126550931D01*
X195015811Y-126550926D01*
X194919086Y-126343498D01*
X194869100Y-126272110D01*
X194869098Y-126272110D01*
X194180727Y-126960481D01*
X194167165Y-126874852D01*
X194109641Y-126761955D01*
X194020045Y-126672359D01*
X193907148Y-126614835D01*
X193821517Y-126601272D01*
X194509888Y-125912899D01*
X194509888Y-125912898D01*
X194438501Y-125862913D01*
X194231073Y-125766188D01*
X194231068Y-125766186D01*
X194010000Y-125706951D01*
X194010004Y-125706951D01*
X193782000Y-125687004D01*
X193553997Y-125706951D01*
X193332931Y-125766186D01*
X193332926Y-125766188D01*
X193125500Y-125862913D01*
X193054109Y-125912900D01*
X193742481Y-126601272D01*
X193656852Y-126614835D01*
X193543955Y-126672359D01*
X193454359Y-126761955D01*
X193396835Y-126874852D01*
X193383272Y-126960481D01*
X192694900Y-126272109D01*
X192644913Y-126343500D01*
X192548188Y-126550926D01*
X192548183Y-126550938D01*
X192494995Y-126749438D01*
X192458044Y-126810060D01*
X192394183Y-126841082D01*
X192323689Y-126832653D01*
X192268942Y-126787449D01*
X192252716Y-126753406D01*
X192210814Y-126615273D01*
X192117910Y-126441462D01*
X191992883Y-126289117D01*
X191840538Y-126164090D01*
X191666728Y-126071186D01*
X191478125Y-126013974D01*
X191282003Y-125994659D01*
X191281997Y-125994659D01*
X191085875Y-126013974D01*
X191085873Y-126013974D01*
X190897271Y-126071186D01*
X190723461Y-126164090D01*
X190571117Y-126289117D01*
X190446090Y-126441461D01*
X190353186Y-126615271D01*
X190295974Y-126803873D01*
X190295974Y-126803875D01*
X190276659Y-126999996D01*
X190276659Y-127000003D01*
X186966995Y-127000003D01*
X186966995Y-127000000D01*
X186947048Y-126771997D01*
X186887813Y-126550931D01*
X186887811Y-126550926D01*
X186791086Y-126343498D01*
X186741100Y-126272110D01*
X186741098Y-126272110D01*
X186052727Y-126960481D01*
X186039165Y-126874852D01*
X185981641Y-126761955D01*
X185892045Y-126672359D01*
X185779148Y-126614835D01*
X185693517Y-126601272D01*
X186381888Y-125912899D01*
X186381888Y-125912898D01*
X186310501Y-125862913D01*
X186103073Y-125766188D01*
X186103068Y-125766186D01*
X185882000Y-125706951D01*
X185882004Y-125706951D01*
X185654000Y-125687004D01*
X185425997Y-125706951D01*
X185204931Y-125766186D01*
X185204926Y-125766188D01*
X184997500Y-125862913D01*
X184926109Y-125912900D01*
X185614481Y-126601272D01*
X185528852Y-126614835D01*
X185415955Y-126672359D01*
X185326359Y-126761955D01*
X185268835Y-126874852D01*
X185255272Y-126960481D01*
X184566900Y-126272109D01*
X184516913Y-126343500D01*
X184420188Y-126550926D01*
X184420183Y-126550938D01*
X184366995Y-126749438D01*
X184330044Y-126810060D01*
X184266183Y-126841082D01*
X184195689Y-126832653D01*
X184140942Y-126787449D01*
X184124716Y-126753406D01*
X184082814Y-126615273D01*
X183989910Y-126441462D01*
X183864883Y-126289117D01*
X183712538Y-126164090D01*
X183538728Y-126071186D01*
X183350125Y-126013974D01*
X183154003Y-125994659D01*
X183153997Y-125994659D01*
X182957875Y-126013974D01*
X182957873Y-126013974D01*
X182769271Y-126071186D01*
X182595461Y-126164090D01*
X182443117Y-126289117D01*
X182318090Y-126441461D01*
X182225186Y-126615271D01*
X182167974Y-126803873D01*
X182167974Y-126803875D01*
X182148659Y-126999996D01*
X182148659Y-127000003D01*
X106036500Y-127000003D01*
X106036500Y-124478427D01*
X113656778Y-124478427D01*
X113675643Y-124766258D01*
X113675645Y-124766273D01*
X113731919Y-125049178D01*
X113731920Y-125049182D01*
X113774715Y-125175250D01*
X113824641Y-125322326D01*
X113824644Y-125322332D01*
X113952220Y-125581032D01*
X114112473Y-125820869D01*
X114112476Y-125820873D01*
X114302672Y-126037751D01*
X114345294Y-126075129D01*
X114519546Y-126227944D01*
X114519548Y-126227945D01*
X114519550Y-126227947D01*
X114519554Y-126227950D01*
X114636974Y-126306407D01*
X114759389Y-126388202D01*
X115018098Y-126515783D01*
X115291247Y-126608505D01*
X115506831Y-126651387D01*
X115574150Y-126664778D01*
X115574152Y-126664778D01*
X115574161Y-126664780D01*
X115738640Y-126675560D01*
X115861997Y-126683646D01*
X115862000Y-126683646D01*
X115862003Y-126683646D01*
X115969939Y-126676571D01*
X116149839Y-126664780D01*
X116432753Y-126608505D01*
X116705902Y-126515783D01*
X116964611Y-126388202D01*
X117204454Y-126227944D01*
X117421327Y-126037751D01*
X117611520Y-125820878D01*
X117771778Y-125581035D01*
X117899359Y-125322326D01*
X117992081Y-125049177D01*
X118048356Y-124766263D01*
X118062487Y-124550660D01*
X118067222Y-124478427D01*
X118067222Y-124478420D01*
X118055943Y-124306339D01*
X118048356Y-124190585D01*
X118045047Y-124173952D01*
X118026902Y-124082727D01*
X117992081Y-123907671D01*
X117920907Y-123698000D01*
X169161004Y-123698000D01*
X169180951Y-123926002D01*
X169240186Y-124147068D01*
X169240188Y-124147073D01*
X169336913Y-124354501D01*
X169386899Y-124425888D01*
X170075272Y-123737516D01*
X170088835Y-123823148D01*
X170146359Y-123936045D01*
X170235955Y-124025641D01*
X170348852Y-124083165D01*
X170434482Y-124096727D01*
X169746110Y-124785098D01*
X169746110Y-124785100D01*
X169817498Y-124835086D01*
X170024926Y-124931811D01*
X170024931Y-124931813D01*
X170245999Y-124991048D01*
X170245995Y-124991048D01*
X170474000Y-125010995D01*
X170702002Y-124991048D01*
X170923068Y-124931813D01*
X170923073Y-124931811D01*
X171130497Y-124835088D01*
X171201888Y-124785099D01*
X171201888Y-124785097D01*
X170513518Y-124096727D01*
X170599148Y-124083165D01*
X170712045Y-124025641D01*
X170801641Y-123936045D01*
X170859165Y-123823148D01*
X170872727Y-123737518D01*
X171561097Y-124425888D01*
X171561099Y-124425888D01*
X171611088Y-124354497D01*
X171707811Y-124147073D01*
X171707813Y-124147068D01*
X171761003Y-123948562D01*
X171797955Y-123887939D01*
X171861815Y-123856918D01*
X171932310Y-123865346D01*
X171987057Y-123910549D01*
X172003284Y-123944597D01*
X172045183Y-124082722D01*
X172045185Y-124082726D01*
X172102831Y-124190574D01*
X172138090Y-124256538D01*
X172263117Y-124408883D01*
X172415462Y-124533910D01*
X172589273Y-124626814D01*
X172777868Y-124684024D01*
X172777872Y-124684024D01*
X172777874Y-124684025D01*
X172973997Y-124703341D01*
X172974000Y-124703341D01*
X172974003Y-124703341D01*
X173170124Y-124684025D01*
X173170126Y-124684025D01*
X173170127Y-124684024D01*
X173170132Y-124684024D01*
X173358727Y-124626814D01*
X173532538Y-124533910D01*
X173600144Y-124478427D01*
X174856778Y-124478427D01*
X174875643Y-124766258D01*
X174875645Y-124766273D01*
X174931919Y-125049178D01*
X174931920Y-125049182D01*
X174974715Y-125175250D01*
X175024641Y-125322326D01*
X175024644Y-125322332D01*
X175152220Y-125581032D01*
X175312473Y-125820869D01*
X175312476Y-125820873D01*
X175502672Y-126037751D01*
X175545294Y-126075129D01*
X175719546Y-126227944D01*
X175719548Y-126227945D01*
X175719550Y-126227947D01*
X175719554Y-126227950D01*
X175836974Y-126306407D01*
X175959389Y-126388202D01*
X176218098Y-126515783D01*
X176491247Y-126608505D01*
X176706831Y-126651387D01*
X176774150Y-126664778D01*
X176774152Y-126664778D01*
X176774161Y-126664780D01*
X176938640Y-126675560D01*
X177061997Y-126683646D01*
X177062000Y-126683646D01*
X177062003Y-126683646D01*
X177169939Y-126676571D01*
X177349839Y-126664780D01*
X177632753Y-126608505D01*
X177905902Y-126515783D01*
X178164611Y-126388202D01*
X178404454Y-126227944D01*
X178621327Y-126037751D01*
X178811520Y-125820878D01*
X178971778Y-125581035D01*
X179099359Y-125322326D01*
X179192081Y-125049177D01*
X179248356Y-124766263D01*
X179262487Y-124550660D01*
X179267222Y-124478427D01*
X179267222Y-124478420D01*
X179255943Y-124306339D01*
X179248356Y-124190585D01*
X179245047Y-124173952D01*
X179234400Y-124120424D01*
X181911357Y-124120424D01*
X181931885Y-124341963D01*
X181992768Y-124555944D01*
X181992774Y-124555961D01*
X182091938Y-124755108D01*
X182091942Y-124755113D01*
X182226017Y-124932659D01*
X182390438Y-125082548D01*
X182390439Y-125082549D01*
X182579587Y-125199664D01*
X182579590Y-125199665D01*
X182579599Y-125199671D01*
X182651279Y-125227440D01*
X182787053Y-125280040D01*
X182787056Y-125280040D01*
X182787060Y-125280042D01*
X183005757Y-125320924D01*
X183005760Y-125320924D01*
X183228240Y-125320924D01*
X183228243Y-125320924D01*
X183446940Y-125280042D01*
X183446944Y-125280040D01*
X183446946Y-125280040D01*
X183521684Y-125251086D01*
X183654401Y-125199671D01*
X183843562Y-125082548D01*
X184007981Y-124932660D01*
X184012036Y-124927291D01*
X184034352Y-124897738D01*
X184142058Y-124755113D01*
X184142059Y-124755109D01*
X184142061Y-124755108D01*
X184241225Y-124555961D01*
X184241226Y-124555957D01*
X184241229Y-124555952D01*
X184302115Y-124341960D01*
X184322643Y-124120424D01*
X186104337Y-124120424D01*
X186122960Y-124357056D01*
X186178371Y-124587861D01*
X186269206Y-124807157D01*
X186383897Y-124994315D01*
X187090097Y-124288115D01*
X187093884Y-124306339D01*
X187163442Y-124440580D01*
X187266638Y-124551076D01*
X187395819Y-124629633D01*
X187451421Y-124645212D01*
X186743107Y-125353525D01*
X186743107Y-125353526D01*
X186930261Y-125468215D01*
X187149562Y-125559052D01*
X187380367Y-125614463D01*
X187617000Y-125633086D01*
X187853632Y-125614463D01*
X188084437Y-125559052D01*
X188303738Y-125468215D01*
X188490891Y-125353526D01*
X188490892Y-125353525D01*
X187784625Y-124647258D01*
X187905458Y-124594773D01*
X188022739Y-124499358D01*
X188109928Y-124375839D01*
X188141837Y-124286052D01*
X188850101Y-124994316D01*
X188850102Y-124994315D01*
X188964791Y-124807162D01*
X189055628Y-124587861D01*
X189111039Y-124357056D01*
X189129662Y-124120424D01*
X189111039Y-123883791D01*
X189055628Y-123652986D01*
X188964791Y-123433685D01*
X188850102Y-123246531D01*
X188850101Y-123246531D01*
X188143902Y-123952730D01*
X188140116Y-123934509D01*
X188070558Y-123800268D01*
X187967362Y-123689772D01*
X187838181Y-123611215D01*
X187782577Y-123595635D01*
X188490891Y-122887321D01*
X188303733Y-122772630D01*
X188084437Y-122681795D01*
X187853632Y-122626384D01*
X187617000Y-122607761D01*
X187380367Y-122626384D01*
X187149562Y-122681795D01*
X186930262Y-122772632D01*
X186743107Y-122887320D01*
X186743107Y-122887322D01*
X187449374Y-123593589D01*
X187328542Y-123646075D01*
X187211261Y-123741490D01*
X187124072Y-123865009D01*
X187092162Y-123954795D01*
X186383898Y-123246531D01*
X186383896Y-123246531D01*
X186269208Y-123433686D01*
X186178371Y-123652986D01*
X186122960Y-123883791D01*
X186104337Y-124120424D01*
X184322643Y-124120424D01*
X184302115Y-123898888D01*
X184292571Y-123865346D01*
X184241231Y-123684903D01*
X184241225Y-123684886D01*
X184142061Y-123485739D01*
X184142057Y-123485734D01*
X184007982Y-123308188D01*
X183843561Y-123158299D01*
X183843560Y-123158298D01*
X183654412Y-123041183D01*
X183654405Y-123041179D01*
X183654401Y-123041177D01*
X183654396Y-123041175D01*
X183446946Y-122960807D01*
X183407972Y-122953521D01*
X183228243Y-122919924D01*
X183005757Y-122919924D01*
X182864674Y-122946297D01*
X182787053Y-122960807D01*
X182579603Y-123041175D01*
X182579587Y-123041183D01*
X182390439Y-123158298D01*
X182390438Y-123158299D01*
X182226017Y-123308188D01*
X182091942Y-123485734D01*
X182091938Y-123485739D01*
X181992774Y-123684886D01*
X181992768Y-123684903D01*
X181931885Y-123898884D01*
X181911357Y-124120424D01*
X179234400Y-124120424D01*
X179226902Y-124082727D01*
X179192081Y-123907671D01*
X179099359Y-123634522D01*
X178971778Y-123375813D01*
X178875413Y-123231592D01*
X178811526Y-123135978D01*
X178811523Y-123135974D01*
X178811521Y-123135972D01*
X178811520Y-123135970D01*
X178706094Y-123015755D01*
X178621327Y-122919096D01*
X178458499Y-122776300D01*
X178404454Y-122728904D01*
X178404452Y-122728902D01*
X178404449Y-122728900D01*
X178404445Y-122728897D01*
X178164608Y-122568644D01*
X177905908Y-122441068D01*
X177905902Y-122441065D01*
X177757332Y-122390632D01*
X177632758Y-122348344D01*
X177632754Y-122348343D01*
X177349849Y-122292069D01*
X177349834Y-122292067D01*
X177062003Y-122273202D01*
X177061997Y-122273202D01*
X176774165Y-122292067D01*
X176774150Y-122292069D01*
X176491245Y-122348343D01*
X176491241Y-122348344D01*
X176222855Y-122439449D01*
X176218098Y-122441065D01*
X176218095Y-122441066D01*
X176218091Y-122441068D01*
X175959391Y-122568644D01*
X175719554Y-122728897D01*
X175719550Y-122728900D01*
X175502672Y-122919096D01*
X175312476Y-123135974D01*
X175312473Y-123135978D01*
X175152220Y-123375815D01*
X175024644Y-123634515D01*
X175024640Y-123634525D01*
X174931920Y-123907665D01*
X174931919Y-123907669D01*
X174875645Y-124190574D01*
X174875643Y-124190589D01*
X174856778Y-124478420D01*
X174856778Y-124478427D01*
X173600144Y-124478427D01*
X173684883Y-124408883D01*
X173809910Y-124256538D01*
X173902814Y-124082727D01*
X173960024Y-123894132D01*
X173960634Y-123887939D01*
X173979341Y-123698003D01*
X173979341Y-123697996D01*
X173960025Y-123501875D01*
X173960025Y-123501873D01*
X173960024Y-123501870D01*
X173960024Y-123501868D01*
X173902814Y-123313273D01*
X173809910Y-123139462D01*
X173684883Y-122987117D01*
X173532538Y-122862090D01*
X173481927Y-122835038D01*
X173366104Y-122773129D01*
X173315456Y-122723377D01*
X173299500Y-122662007D01*
X173299500Y-120914035D01*
X173319502Y-120845914D01*
X173373158Y-120799421D01*
X173381741Y-120795878D01*
X173438057Y-120775021D01*
X173438057Y-120775020D01*
X173438065Y-120775018D01*
X173604191Y-120671471D01*
X173604195Y-120671466D01*
X173604199Y-120671464D01*
X173717952Y-120563332D01*
X173746071Y-120536603D01*
X173857899Y-120375936D01*
X173935095Y-120196047D01*
X173974500Y-120004301D01*
X173974500Y-118841609D01*
X173959660Y-118695675D01*
X173901059Y-118508899D01*
X173806059Y-118337743D01*
X173678551Y-118189213D01*
X173523754Y-118069391D01*
X173523752Y-118069390D01*
X173523751Y-118069389D01*
X173348008Y-117983184D01*
X173348005Y-117983183D01*
X173158501Y-117934116D01*
X173158497Y-117934115D01*
X173158494Y-117934115D01*
X172962999Y-117924201D01*
X172769505Y-117953843D01*
X172769503Y-117953844D01*
X172753176Y-117959890D01*
X172585939Y-118021827D01*
X172585939Y-118021828D01*
X172585936Y-118021829D01*
X172585935Y-118021830D01*
X172539571Y-118050729D01*
X172419809Y-118125376D01*
X172419800Y-118125383D01*
X172277927Y-118260246D01*
X172166101Y-118420910D01*
X172088906Y-118600797D01*
X172049500Y-118792545D01*
X172049500Y-119955238D01*
X172049501Y-119955257D01*
X172064339Y-120101171D01*
X172122941Y-120287950D01*
X172156286Y-120348025D01*
X172217941Y-120459105D01*
X172345449Y-120607635D01*
X172500246Y-120727457D01*
X172577989Y-120765591D01*
X172630339Y-120813549D01*
X172648500Y-120878715D01*
X172648500Y-122662007D01*
X172628498Y-122730128D01*
X172581896Y-122773129D01*
X172415461Y-122862090D01*
X172263117Y-122987117D01*
X172138090Y-123139461D01*
X172045185Y-123313273D01*
X172045183Y-123313278D01*
X172003284Y-123451402D01*
X171964369Y-123510783D01*
X171899528Y-123539699D01*
X171829347Y-123528968D01*
X171776108Y-123481998D01*
X171761003Y-123447437D01*
X171707813Y-123248931D01*
X171707811Y-123248926D01*
X171611086Y-123041498D01*
X171561100Y-122970110D01*
X171561098Y-122970110D01*
X170872727Y-123658481D01*
X170859165Y-123572852D01*
X170801641Y-123459955D01*
X170712045Y-123370359D01*
X170599148Y-123312835D01*
X170513517Y-123299272D01*
X171201888Y-122610899D01*
X171201888Y-122610898D01*
X171130501Y-122560913D01*
X170923073Y-122464188D01*
X170923068Y-122464186D01*
X170702000Y-122404951D01*
X170702004Y-122404951D01*
X170474000Y-122385004D01*
X170245997Y-122404951D01*
X170024931Y-122464186D01*
X170024926Y-122464188D01*
X169817500Y-122560913D01*
X169746109Y-122610900D01*
X170434481Y-123299272D01*
X170348852Y-123312835D01*
X170235955Y-123370359D01*
X170146359Y-123459955D01*
X170088835Y-123572852D01*
X170075272Y-123658481D01*
X169386900Y-122970109D01*
X169336913Y-123041500D01*
X169240188Y-123248926D01*
X169240186Y-123248931D01*
X169180951Y-123469997D01*
X169161004Y-123698000D01*
X117920907Y-123698000D01*
X117899359Y-123634522D01*
X117771778Y-123375813D01*
X117675413Y-123231592D01*
X117611526Y-123135978D01*
X117611523Y-123135974D01*
X117611521Y-123135972D01*
X117611520Y-123135970D01*
X117506094Y-123015755D01*
X117421327Y-122919096D01*
X117258499Y-122776300D01*
X117204454Y-122728904D01*
X117204452Y-122728902D01*
X117204449Y-122728900D01*
X117204445Y-122728897D01*
X116964608Y-122568644D01*
X116705908Y-122441068D01*
X116705902Y-122441065D01*
X116557332Y-122390632D01*
X116432758Y-122348344D01*
X116432754Y-122348343D01*
X116149849Y-122292069D01*
X116149834Y-122292067D01*
X115862003Y-122273202D01*
X115861997Y-122273202D01*
X115574165Y-122292067D01*
X115574150Y-122292069D01*
X115291245Y-122348343D01*
X115291241Y-122348344D01*
X115022855Y-122439449D01*
X115018098Y-122441065D01*
X115018095Y-122441066D01*
X115018091Y-122441068D01*
X114759391Y-122568644D01*
X114519554Y-122728897D01*
X114519550Y-122728900D01*
X114302672Y-122919096D01*
X114112476Y-123135974D01*
X114112473Y-123135978D01*
X113952220Y-123375815D01*
X113824644Y-123634515D01*
X113824640Y-123634525D01*
X113731920Y-123907665D01*
X113731919Y-123907669D01*
X113675645Y-124190574D01*
X113675643Y-124190589D01*
X113656778Y-124478420D01*
X113656778Y-124478427D01*
X106036500Y-124478427D01*
X106036500Y-118062511D01*
X112957736Y-118062511D01*
X112959580Y-118069393D01*
X112968203Y-118101576D01*
X112969393Y-118106944D01*
X112976412Y-118146751D01*
X112978505Y-118152500D01*
X112984866Y-118167856D01*
X112987445Y-118173387D01*
X113010634Y-118206504D01*
X113013587Y-118211140D01*
X113033806Y-118246159D01*
X113064787Y-118272155D01*
X113068829Y-118275859D01*
X116904569Y-122111600D01*
X116908274Y-122115643D01*
X116934264Y-122146617D01*
X116934266Y-122146619D01*
X116953678Y-122157826D01*
X116969284Y-122166836D01*
X116973903Y-122169778D01*
X117007036Y-122192978D01*
X117007040Y-122192979D01*
X117012596Y-122195570D01*
X117027902Y-122201910D01*
X117033669Y-122204009D01*
X117033675Y-122204012D01*
X117073504Y-122211034D01*
X117078851Y-122212220D01*
X117117913Y-122222687D01*
X117143259Y-122220469D01*
X117158190Y-122219164D01*
X117163682Y-122218924D01*
X150180040Y-122218924D01*
X150185525Y-122219163D01*
X150225807Y-122222688D01*
X150225815Y-122222686D01*
X150238958Y-122219164D01*
X150264870Y-122212220D01*
X150270231Y-122211031D01*
X150310045Y-122204012D01*
X150310047Y-122204010D01*
X150315838Y-122201903D01*
X150331101Y-122195581D01*
X150336681Y-122192979D01*
X150336681Y-122192978D01*
X150336684Y-122192978D01*
X150369817Y-122169776D01*
X150374428Y-122166839D01*
X150409455Y-122146618D01*
X150435453Y-122115633D01*
X150439146Y-122111602D01*
X151900572Y-120650176D01*
X151962882Y-120616152D01*
X152033697Y-120621217D01*
X152066788Y-120639634D01*
X152180246Y-120727457D01*
X152355995Y-120813665D01*
X152545499Y-120862732D01*
X152713072Y-120871229D01*
X152741000Y-120872646D01*
X152741000Y-120872645D01*
X152741001Y-120872646D01*
X152934497Y-120843004D01*
X153118065Y-120775018D01*
X153284191Y-120671471D01*
X153284195Y-120671466D01*
X153284199Y-120671464D01*
X153397952Y-120563332D01*
X153426071Y-120536603D01*
X153537899Y-120375936D01*
X153615095Y-120196047D01*
X153654500Y-120004301D01*
X153654500Y-119955238D01*
X154269500Y-119955238D01*
X154269501Y-119955257D01*
X154284339Y-120101171D01*
X154342941Y-120287950D01*
X154376286Y-120348025D01*
X154437941Y-120459105D01*
X154565449Y-120607635D01*
X154720246Y-120727457D01*
X154895995Y-120813665D01*
X155085499Y-120862732D01*
X155253072Y-120871229D01*
X155281000Y-120872646D01*
X155281000Y-120872645D01*
X155281001Y-120872646D01*
X155474497Y-120843004D01*
X155658065Y-120775018D01*
X155824191Y-120671471D01*
X155824195Y-120671466D01*
X155824199Y-120671464D01*
X155937952Y-120563332D01*
X155966071Y-120536603D01*
X156077899Y-120375936D01*
X156155095Y-120196047D01*
X156194500Y-120004301D01*
X156194500Y-119955238D01*
X156809500Y-119955238D01*
X156809501Y-119955257D01*
X156824339Y-120101171D01*
X156882941Y-120287950D01*
X156916286Y-120348025D01*
X156977941Y-120459105D01*
X157105449Y-120607635D01*
X157260246Y-120727457D01*
X157435995Y-120813665D01*
X157625499Y-120862732D01*
X157793072Y-120871229D01*
X157821000Y-120872646D01*
X157821000Y-120872645D01*
X157821001Y-120872646D01*
X158014497Y-120843004D01*
X158198065Y-120775018D01*
X158364191Y-120671471D01*
X158364195Y-120671466D01*
X158364199Y-120671464D01*
X158477952Y-120563332D01*
X158506071Y-120536603D01*
X158617899Y-120375936D01*
X158695095Y-120196047D01*
X158734500Y-120004301D01*
X158734500Y-118841609D01*
X158719660Y-118695675D01*
X158661059Y-118508899D01*
X158566059Y-118337743D01*
X158438551Y-118189213D01*
X158283754Y-118069391D01*
X158283752Y-118069390D01*
X158283751Y-118069389D01*
X158108008Y-117983184D01*
X158108005Y-117983183D01*
X157918501Y-117934116D01*
X157918497Y-117934115D01*
X157918494Y-117934115D01*
X157722999Y-117924201D01*
X157529505Y-117953843D01*
X157529503Y-117953844D01*
X157513176Y-117959890D01*
X157345939Y-118021827D01*
X157345939Y-118021828D01*
X157345936Y-118021829D01*
X157345935Y-118021830D01*
X157299571Y-118050729D01*
X157179809Y-118125376D01*
X157179800Y-118125383D01*
X157037927Y-118260246D01*
X156926101Y-118420910D01*
X156848906Y-118600797D01*
X156809500Y-118792545D01*
X156809500Y-119955238D01*
X156194500Y-119955238D01*
X156194500Y-118841609D01*
X156179660Y-118695675D01*
X156121059Y-118508899D01*
X156026059Y-118337743D01*
X155898551Y-118189213D01*
X155743754Y-118069391D01*
X155743752Y-118069390D01*
X155743751Y-118069389D01*
X155568008Y-117983184D01*
X155568005Y-117983183D01*
X155378501Y-117934116D01*
X155378497Y-117934115D01*
X155378494Y-117934115D01*
X155182999Y-117924201D01*
X154989505Y-117953843D01*
X154989503Y-117953844D01*
X154973176Y-117959890D01*
X154805939Y-118021827D01*
X154805939Y-118021828D01*
X154805936Y-118021829D01*
X154805935Y-118021830D01*
X154759571Y-118050729D01*
X154639809Y-118125376D01*
X154639800Y-118125383D01*
X154497927Y-118260246D01*
X154386101Y-118420910D01*
X154308906Y-118600797D01*
X154269500Y-118792545D01*
X154269500Y-119955238D01*
X153654500Y-119955238D01*
X153654500Y-118841609D01*
X153639660Y-118695675D01*
X153581059Y-118508899D01*
X153486059Y-118337743D01*
X153358551Y-118189213D01*
X153203754Y-118069391D01*
X153203752Y-118069390D01*
X153203751Y-118069389D01*
X153028008Y-117983184D01*
X153028005Y-117983183D01*
X152838501Y-117934116D01*
X152838497Y-117934115D01*
X152838494Y-117934115D01*
X152642999Y-117924201D01*
X152449505Y-117953843D01*
X152449503Y-117953844D01*
X152433176Y-117959890D01*
X152265939Y-118021827D01*
X152265939Y-118021828D01*
X152265936Y-118021829D01*
X152265935Y-118021830D01*
X152219571Y-118050729D01*
X152099809Y-118125376D01*
X152099800Y-118125383D01*
X151957927Y-118260246D01*
X151846101Y-118420910D01*
X151768906Y-118600797D01*
X151729500Y-118792545D01*
X151729500Y-119848408D01*
X151709498Y-119916529D01*
X151692599Y-119937498D01*
X151434051Y-120196047D01*
X151268486Y-120361612D01*
X151206174Y-120395637D01*
X151135358Y-120390572D01*
X151078523Y-120348025D01*
X151053712Y-120281505D01*
X151063604Y-120222824D01*
X151075092Y-120196053D01*
X151075095Y-120196047D01*
X151114500Y-120004301D01*
X151114500Y-118841609D01*
X151099660Y-118695675D01*
X151041059Y-118508899D01*
X150946059Y-118337743D01*
X150818551Y-118189213D01*
X150663754Y-118069391D01*
X150663752Y-118069390D01*
X150663751Y-118069389D01*
X150488008Y-117983184D01*
X150488005Y-117983183D01*
X150298501Y-117934116D01*
X150298497Y-117934115D01*
X150298494Y-117934115D01*
X150102999Y-117924201D01*
X149909505Y-117953843D01*
X149909503Y-117953844D01*
X149893176Y-117959890D01*
X149725939Y-118021827D01*
X149725939Y-118021828D01*
X149725936Y-118021829D01*
X149725935Y-118021830D01*
X149679571Y-118050729D01*
X149559809Y-118125376D01*
X149559800Y-118125383D01*
X149417927Y-118260246D01*
X149306101Y-118420910D01*
X149228906Y-118600797D01*
X149189500Y-118792545D01*
X149189500Y-119848408D01*
X149169498Y-119916529D01*
X149152599Y-119937498D01*
X148894051Y-120196047D01*
X148728486Y-120361612D01*
X148666174Y-120395637D01*
X148595358Y-120390572D01*
X148538523Y-120348025D01*
X148513712Y-120281505D01*
X148523604Y-120222824D01*
X148535092Y-120196053D01*
X148535095Y-120196047D01*
X148574500Y-120004301D01*
X148574500Y-118841609D01*
X148559660Y-118695675D01*
X148501059Y-118508899D01*
X148406059Y-118337743D01*
X148278551Y-118189213D01*
X148123754Y-118069391D01*
X148123752Y-118069390D01*
X148123751Y-118069389D01*
X147948008Y-117983184D01*
X147948005Y-117983183D01*
X147758501Y-117934116D01*
X147758497Y-117934115D01*
X147758494Y-117934115D01*
X147562999Y-117924201D01*
X147369505Y-117953843D01*
X147369503Y-117953844D01*
X147353176Y-117959890D01*
X147185939Y-118021827D01*
X147185939Y-118021828D01*
X147185936Y-118021829D01*
X147185935Y-118021830D01*
X147079998Y-118087861D01*
X147019807Y-118125378D01*
X146995785Y-118148212D01*
X146932630Y-118180645D01*
X146861965Y-118173786D01*
X146819883Y-118145980D01*
X132341741Y-103667839D01*
X132338026Y-103663786D01*
X132328227Y-103652108D01*
X132312031Y-103632806D01*
X132312030Y-103632805D01*
X132312027Y-103632803D01*
X132277011Y-103612586D01*
X132272376Y-103609633D01*
X132239259Y-103586445D01*
X132233728Y-103583866D01*
X132218372Y-103577505D01*
X132212623Y-103575412D01*
X132188750Y-103571202D01*
X132172810Y-103568391D01*
X132167448Y-103567203D01*
X132128384Y-103556736D01*
X132128381Y-103556736D01*
X132116703Y-103557757D01*
X132088100Y-103560260D01*
X132082616Y-103560500D01*
X125365832Y-103560500D01*
X125297711Y-103540498D01*
X125251218Y-103486842D01*
X125241114Y-103416568D01*
X125270608Y-103351988D01*
X125329257Y-103313925D01*
X125359154Y-103304856D01*
X125541650Y-103207309D01*
X125701610Y-103076034D01*
X125832885Y-102916074D01*
X125930432Y-102733578D01*
X125990500Y-102535558D01*
X125991325Y-102527188D01*
X126010783Y-102329627D01*
X126010783Y-102329620D01*
X125990501Y-102123696D01*
X125990500Y-102123694D01*
X125990500Y-102123690D01*
X125930432Y-101925670D01*
X125832885Y-101743174D01*
X125701610Y-101583214D01*
X125541650Y-101451939D01*
X125541648Y-101451938D01*
X125541647Y-101451937D01*
X125359154Y-101354392D01*
X125354615Y-101353015D01*
X125161134Y-101294324D01*
X125161133Y-101294323D01*
X125161127Y-101294322D01*
X124955203Y-101274041D01*
X124955197Y-101274041D01*
X124749272Y-101294322D01*
X124551245Y-101354392D01*
X124368752Y-101451937D01*
X124229433Y-101566273D01*
X124164086Y-101594026D01*
X124094107Y-101582044D01*
X124041716Y-101534131D01*
X124023500Y-101468873D01*
X124023500Y-101089385D01*
X124023740Y-101083893D01*
X124024867Y-101071001D01*
X124027263Y-101043617D01*
X124016796Y-101004555D01*
X124015610Y-100999208D01*
X124008588Y-100959379D01*
X124008585Y-100959373D01*
X124006486Y-100953606D01*
X124000146Y-100938300D01*
X123997555Y-100932744D01*
X123997554Y-100932740D01*
X123974354Y-100899607D01*
X123971410Y-100894985D01*
X123951195Y-100859971D01*
X123951194Y-100859969D01*
X123920215Y-100833974D01*
X123916175Y-100830272D01*
X123417467Y-100331564D01*
X123383441Y-100269252D01*
X123388506Y-100198437D01*
X123390155Y-100194245D01*
X123390423Y-100193593D01*
X123390432Y-100193578D01*
X123450500Y-99995558D01*
X123454719Y-99952728D01*
X123470783Y-99789627D01*
X123899617Y-99789627D01*
X123919898Y-99995551D01*
X123919899Y-99995557D01*
X123919900Y-99995558D01*
X123972098Y-100167634D01*
X123979968Y-100193578D01*
X124053723Y-100331564D01*
X124077515Y-100376074D01*
X124208790Y-100536034D01*
X124368750Y-100667309D01*
X124551246Y-100764856D01*
X124749266Y-100824924D01*
X124749270Y-100824924D01*
X124749272Y-100824925D01*
X124955197Y-100845207D01*
X124955200Y-100845207D01*
X124955203Y-100845207D01*
X125161127Y-100824925D01*
X125161128Y-100824924D01*
X125161134Y-100824924D01*
X125359154Y-100764856D01*
X125541650Y-100667309D01*
X125701610Y-100536034D01*
X125832885Y-100376074D01*
X125930432Y-100193578D01*
X125990500Y-99995558D01*
X125994719Y-99952728D01*
X126010783Y-99789627D01*
X126010783Y-99789620D01*
X125990501Y-99583696D01*
X125990500Y-99583694D01*
X125990500Y-99583690D01*
X125930432Y-99385670D01*
X125832885Y-99203174D01*
X125701610Y-99043214D01*
X125541650Y-98911939D01*
X125541648Y-98911938D01*
X125541647Y-98911937D01*
X125359154Y-98814392D01*
X125161127Y-98754322D01*
X124955203Y-98734041D01*
X124955197Y-98734041D01*
X124749272Y-98754322D01*
X124551245Y-98814392D01*
X124368752Y-98911937D01*
X124208790Y-99043214D01*
X124077513Y-99203176D01*
X123979968Y-99385669D01*
X123919898Y-99583696D01*
X123899617Y-99789620D01*
X123899617Y-99789627D01*
X123470783Y-99789627D01*
X123470783Y-99789620D01*
X123450501Y-99583696D01*
X123450500Y-99583694D01*
X123450500Y-99583690D01*
X123390432Y-99385670D01*
X123292885Y-99203174D01*
X123161610Y-99043214D01*
X123001650Y-98911939D01*
X123001648Y-98911938D01*
X123001647Y-98911937D01*
X122819154Y-98814392D01*
X122621127Y-98754322D01*
X122415203Y-98734041D01*
X122415197Y-98734041D01*
X122209272Y-98754322D01*
X122011245Y-98814392D01*
X121828752Y-98911937D01*
X121668790Y-99043214D01*
X121537513Y-99203176D01*
X121439968Y-99385669D01*
X121379898Y-99583696D01*
X121359617Y-99789620D01*
X121359617Y-99789627D01*
X121379898Y-99995551D01*
X121379899Y-99995557D01*
X121379900Y-99995558D01*
X121432098Y-100167634D01*
X121439968Y-100193578D01*
X121513723Y-100331564D01*
X121537515Y-100376074D01*
X121668790Y-100536034D01*
X121828750Y-100667309D01*
X122011246Y-100764856D01*
X122209266Y-100824924D01*
X122209270Y-100824924D01*
X122209272Y-100824925D01*
X122415197Y-100845207D01*
X122415200Y-100845207D01*
X122415203Y-100845207D01*
X122621127Y-100824925D01*
X122621128Y-100824924D01*
X122621134Y-100824924D01*
X122819154Y-100764856D01*
X122819162Y-100764851D01*
X122819814Y-100764582D01*
X122820190Y-100764541D01*
X122825078Y-100763059D01*
X122825358Y-100763985D01*
X122890403Y-100756986D01*
X122953893Y-100788759D01*
X122957139Y-100791890D01*
X123335595Y-101170345D01*
X123369620Y-101232658D01*
X123372500Y-101259441D01*
X123372500Y-101489913D01*
X123352498Y-101558034D01*
X123298842Y-101604527D01*
X123228568Y-101614631D01*
X123166935Y-101586482D01*
X123166395Y-101587141D01*
X123055782Y-101496364D01*
X123001650Y-101451939D01*
X123001648Y-101451938D01*
X123001647Y-101451937D01*
X122819154Y-101354392D01*
X122814615Y-101353015D01*
X122621134Y-101294324D01*
X122621133Y-101294323D01*
X122621127Y-101294322D01*
X122415203Y-101274041D01*
X122415197Y-101274041D01*
X122209272Y-101294322D01*
X122011245Y-101354392D01*
X121828752Y-101451937D01*
X121668790Y-101583214D01*
X121537513Y-101743176D01*
X121439968Y-101925669D01*
X121379898Y-102123696D01*
X121359617Y-102329620D01*
X121359617Y-102329627D01*
X121379898Y-102535551D01*
X121439968Y-102733578D01*
X121534382Y-102910214D01*
X121537515Y-102916074D01*
X121668790Y-103076034D01*
X121828750Y-103207309D01*
X122011246Y-103304856D01*
X122209266Y-103364924D01*
X122209270Y-103364924D01*
X122209272Y-103364925D01*
X122415197Y-103385207D01*
X122415200Y-103385207D01*
X122417504Y-103384980D01*
X122418701Y-103385207D01*
X122421391Y-103385207D01*
X122421391Y-103385717D01*
X122487258Y-103398207D01*
X122518952Y-103421278D01*
X136971438Y-117873764D01*
X137005464Y-117936076D01*
X137000399Y-118006891D01*
X136957852Y-118063727D01*
X136948993Y-118069788D01*
X136859810Y-118125376D01*
X136859800Y-118125383D01*
X136717927Y-118260246D01*
X136606101Y-118420910D01*
X136528906Y-118600797D01*
X136489500Y-118792545D01*
X136489500Y-119955238D01*
X136489501Y-119955257D01*
X136504339Y-120101171D01*
X136562941Y-120287950D01*
X136596286Y-120348025D01*
X136657941Y-120459105D01*
X136785449Y-120607635D01*
X136940246Y-120727457D01*
X137115995Y-120813665D01*
X137305499Y-120862732D01*
X137328602Y-120863903D01*
X137371628Y-120866086D01*
X137438649Y-120889512D01*
X137457389Y-120913493D01*
X137459253Y-120909412D01*
X137518979Y-120871028D01*
X137535397Y-120867377D01*
X137581069Y-120860380D01*
X137694497Y-120843004D01*
X137878065Y-120775018D01*
X138044191Y-120671471D01*
X138044195Y-120671466D01*
X138044199Y-120671464D01*
X138157952Y-120563332D01*
X138186071Y-120536603D01*
X138297899Y-120375936D01*
X138375095Y-120196047D01*
X138414500Y-120004301D01*
X138414500Y-118841609D01*
X138399660Y-118695675D01*
X138399659Y-118695668D01*
X138357080Y-118559961D01*
X138355771Y-118488977D01*
X138393048Y-118428553D01*
X138457074Y-118397875D01*
X138527522Y-118406682D01*
X138566396Y-118433146D01*
X138992595Y-118859345D01*
X139026621Y-118921657D01*
X139029500Y-118948440D01*
X139029500Y-119955238D01*
X139029501Y-119955257D01*
X139044339Y-120101171D01*
X139102941Y-120287950D01*
X139136286Y-120348025D01*
X139197941Y-120459105D01*
X139325449Y-120607635D01*
X139480246Y-120727457D01*
X139655995Y-120813665D01*
X139845499Y-120862732D01*
X139868602Y-120863903D01*
X139911628Y-120866086D01*
X139978649Y-120889512D01*
X139997389Y-120913493D01*
X139999253Y-120909412D01*
X140058979Y-120871028D01*
X140075397Y-120867377D01*
X140121069Y-120860380D01*
X140234497Y-120843004D01*
X140418065Y-120775018D01*
X140584191Y-120671471D01*
X140584195Y-120671466D01*
X140584199Y-120671464D01*
X140697952Y-120563332D01*
X140726071Y-120536603D01*
X140837899Y-120375936D01*
X140915095Y-120196047D01*
X140954500Y-120004301D01*
X140954500Y-119955238D01*
X141569500Y-119955238D01*
X141569501Y-119955257D01*
X141584339Y-120101171D01*
X141642941Y-120287950D01*
X141676286Y-120348025D01*
X141737941Y-120459105D01*
X141865449Y-120607635D01*
X142020246Y-120727457D01*
X142195995Y-120813665D01*
X142385499Y-120862732D01*
X142408602Y-120863903D01*
X142451628Y-120866086D01*
X142518649Y-120889512D01*
X142537389Y-120913493D01*
X142539253Y-120909412D01*
X142598979Y-120871028D01*
X142615397Y-120867377D01*
X142661069Y-120860380D01*
X142774497Y-120843004D01*
X142958065Y-120775018D01*
X143124191Y-120671471D01*
X143124195Y-120671466D01*
X143124199Y-120671464D01*
X143237952Y-120563332D01*
X143266071Y-120536603D01*
X143377899Y-120375936D01*
X143455095Y-120196047D01*
X143494500Y-120004301D01*
X143494500Y-118841609D01*
X143479660Y-118695675D01*
X143421059Y-118508899D01*
X143326059Y-118337743D01*
X143198551Y-118189213D01*
X143043754Y-118069391D01*
X143043752Y-118069390D01*
X143043751Y-118069389D01*
X142868008Y-117983184D01*
X142868005Y-117983183D01*
X142678501Y-117934116D01*
X142678497Y-117934115D01*
X142678494Y-117934115D01*
X142482999Y-117924201D01*
X142289505Y-117953843D01*
X142289503Y-117953844D01*
X142273176Y-117959890D01*
X142105939Y-118021827D01*
X142105939Y-118021828D01*
X142105936Y-118021829D01*
X142105935Y-118021830D01*
X142059571Y-118050729D01*
X141939809Y-118125376D01*
X141939800Y-118125383D01*
X141797927Y-118260246D01*
X141686101Y-118420910D01*
X141608906Y-118600797D01*
X141569500Y-118792545D01*
X141569500Y-119955238D01*
X140954500Y-119955238D01*
X140954500Y-118841609D01*
X140939660Y-118695675D01*
X140881059Y-118508899D01*
X140786059Y-118337743D01*
X140658551Y-118189213D01*
X140503754Y-118069391D01*
X140503752Y-118069390D01*
X140503751Y-118069389D01*
X140328008Y-117983184D01*
X140328005Y-117983183D01*
X140138501Y-117934116D01*
X140138497Y-117934115D01*
X140138494Y-117934115D01*
X139942999Y-117924201D01*
X139749505Y-117953843D01*
X139749503Y-117953844D01*
X139733176Y-117959890D01*
X139565939Y-118021827D01*
X139565939Y-118021828D01*
X139565936Y-118021829D01*
X139565935Y-118021830D01*
X139519571Y-118050729D01*
X139399809Y-118125376D01*
X139399805Y-118125379D01*
X139375787Y-118148211D01*
X139312632Y-118180646D01*
X139241967Y-118173788D01*
X139199883Y-118145981D01*
X138639165Y-117585263D01*
X138635450Y-117581210D01*
X138609454Y-117550229D01*
X138609451Y-117550227D01*
X138574435Y-117530010D01*
X138569800Y-117527057D01*
X138536683Y-117503869D01*
X138531152Y-117501290D01*
X138515796Y-117494929D01*
X138510047Y-117492836D01*
X138486174Y-117488626D01*
X138470234Y-117485815D01*
X138464872Y-117484627D01*
X138425808Y-117474160D01*
X138425805Y-117474160D01*
X138414127Y-117475181D01*
X138385524Y-117477684D01*
X138380040Y-117477924D01*
X137548440Y-117477924D01*
X137480319Y-117457922D01*
X137459345Y-117441019D01*
X124444921Y-104426595D01*
X124410895Y-104364283D01*
X124415960Y-104293468D01*
X124458507Y-104236632D01*
X124525027Y-104211821D01*
X124534016Y-104211500D01*
X131912560Y-104211500D01*
X131980681Y-104231502D01*
X132001655Y-104248405D01*
X145524199Y-117770949D01*
X145558225Y-117833261D01*
X145553160Y-117904076D01*
X145510613Y-117960912D01*
X145444093Y-117985723D01*
X145403522Y-117982022D01*
X145346454Y-117967246D01*
X145218501Y-117934116D01*
X145218498Y-117934115D01*
X145218495Y-117934115D01*
X145022999Y-117924201D01*
X144829505Y-117953843D01*
X144829503Y-117953844D01*
X144813176Y-117959890D01*
X144645939Y-118021827D01*
X144645939Y-118021828D01*
X144645936Y-118021829D01*
X144645935Y-118021830D01*
X144599571Y-118050729D01*
X144479809Y-118125376D01*
X144479800Y-118125383D01*
X144337927Y-118260246D01*
X144226101Y-118420910D01*
X144148906Y-118600797D01*
X144109500Y-118792545D01*
X144109500Y-119955238D01*
X144109501Y-119955257D01*
X144124339Y-120101171D01*
X144182941Y-120287950D01*
X144216286Y-120348025D01*
X144277941Y-120459105D01*
X144405449Y-120607635D01*
X144560246Y-120727457D01*
X144735995Y-120813665D01*
X144925499Y-120862732D01*
X144948602Y-120863903D01*
X144991628Y-120866086D01*
X145058649Y-120889512D01*
X145077389Y-120913493D01*
X145079253Y-120909412D01*
X145138979Y-120871028D01*
X145155397Y-120867377D01*
X145201069Y-120860380D01*
X145314497Y-120843004D01*
X145498065Y-120775018D01*
X145664191Y-120671471D01*
X145664195Y-120671466D01*
X145664199Y-120671464D01*
X145777952Y-120563332D01*
X145806071Y-120536603D01*
X145917899Y-120375936D01*
X145995095Y-120196047D01*
X146034500Y-120004301D01*
X146034500Y-118841609D01*
X146019660Y-118695675D01*
X146019659Y-118695668D01*
X145977080Y-118559961D01*
X145975771Y-118488977D01*
X146013048Y-118428553D01*
X146077074Y-118397875D01*
X146147522Y-118406682D01*
X146186396Y-118433146D01*
X146612595Y-118859345D01*
X146646621Y-118921657D01*
X146649500Y-118948440D01*
X146649500Y-119955238D01*
X146649501Y-119955257D01*
X146664339Y-120101171D01*
X146722941Y-120287950D01*
X146756286Y-120348025D01*
X146817941Y-120459105D01*
X146945449Y-120607635D01*
X147100246Y-120727457D01*
X147275995Y-120813665D01*
X147465499Y-120862732D01*
X147488602Y-120863903D01*
X147531628Y-120866086D01*
X147598649Y-120889512D01*
X147617389Y-120913493D01*
X147619253Y-120909412D01*
X147678979Y-120871028D01*
X147695397Y-120867377D01*
X147741069Y-120860380D01*
X147854497Y-120843004D01*
X147937862Y-120812128D01*
X148008688Y-120807227D01*
X148070921Y-120841396D01*
X148104803Y-120903786D01*
X148099575Y-120974590D01*
X148070717Y-121019381D01*
X148009077Y-121081020D01*
X147946768Y-121115044D01*
X147919984Y-121117924D01*
X147714477Y-121117924D01*
X147646356Y-121097922D01*
X147621388Y-121069107D01*
X147616170Y-121079153D01*
X147554577Y-121114463D01*
X147525247Y-121117924D01*
X145174477Y-121117924D01*
X145106356Y-121097922D01*
X145081388Y-121069107D01*
X145076170Y-121079153D01*
X145014577Y-121114463D01*
X144985247Y-121117924D01*
X142634477Y-121117924D01*
X142566356Y-121097922D01*
X142541388Y-121069107D01*
X142536170Y-121079153D01*
X142474577Y-121114463D01*
X142445247Y-121117924D01*
X140094477Y-121117924D01*
X140026356Y-121097922D01*
X140001388Y-121069107D01*
X139996170Y-121079153D01*
X139934577Y-121114463D01*
X139905247Y-121117924D01*
X137554477Y-121117924D01*
X137486356Y-121097922D01*
X137461388Y-121069107D01*
X137456170Y-121079153D01*
X137394577Y-121114463D01*
X137365247Y-121117924D01*
X118404017Y-121117924D01*
X118335896Y-121097922D01*
X118314922Y-121081019D01*
X115284631Y-118050729D01*
X115250605Y-117988417D01*
X115253151Y-117925061D01*
X115298747Y-117774755D01*
X115302375Y-117737921D01*
X115317099Y-117588427D01*
X115317099Y-117588420D01*
X115298748Y-117402100D01*
X115298746Y-117402089D01*
X115244398Y-117222927D01*
X115244396Y-117222923D01*
X115156136Y-117057799D01*
X115037357Y-116913067D01*
X114892625Y-116794288D01*
X114852360Y-116772766D01*
X114727500Y-116706027D01*
X114727496Y-116706025D01*
X114548334Y-116651677D01*
X114548323Y-116651675D01*
X114362003Y-116633325D01*
X114361997Y-116633325D01*
X114175676Y-116651675D01*
X114175665Y-116651677D01*
X113996503Y-116706025D01*
X113996499Y-116706027D01*
X113831371Y-116794289D01*
X113818432Y-116804909D01*
X113753085Y-116832662D01*
X113683107Y-116820680D01*
X113630716Y-116772766D01*
X113612500Y-116707509D01*
X113612500Y-115929338D01*
X113632502Y-115861217D01*
X113686158Y-115814724D01*
X113756432Y-115804620D01*
X113818432Y-115831938D01*
X113831375Y-115842560D01*
X113831377Y-115842561D01*
X113996499Y-115930820D01*
X113996503Y-115930822D01*
X114175665Y-115985170D01*
X114175666Y-115985170D01*
X114175669Y-115985171D01*
X114175672Y-115985171D01*
X114175676Y-115985172D01*
X114361997Y-116003523D01*
X114362000Y-116003523D01*
X114362003Y-116003523D01*
X114548323Y-115985172D01*
X114548325Y-115985171D01*
X114548331Y-115985171D01*
X114576449Y-115976641D01*
X114727496Y-115930822D01*
X114727498Y-115930820D01*
X114727501Y-115930820D01*
X114892625Y-115842560D01*
X115037357Y-115723781D01*
X115156136Y-115579049D01*
X115244396Y-115413925D01*
X115298747Y-115234755D01*
X115317099Y-115048424D01*
X115298747Y-114862093D01*
X115298746Y-114862089D01*
X115244398Y-114682927D01*
X115244396Y-114682923D01*
X115210056Y-114618677D01*
X115156136Y-114517799D01*
X115037357Y-114373067D01*
X114892625Y-114254288D01*
X114852360Y-114232766D01*
X114727500Y-114166027D01*
X114727496Y-114166025D01*
X114548334Y-114111677D01*
X114548323Y-114111675D01*
X114362003Y-114093325D01*
X114361997Y-114093325D01*
X114175676Y-114111675D01*
X114175665Y-114111677D01*
X113996503Y-114166025D01*
X113996499Y-114166027D01*
X113831371Y-114254289D01*
X113818432Y-114264909D01*
X113753085Y-114292662D01*
X113683107Y-114280680D01*
X113630716Y-114232766D01*
X113612500Y-114167509D01*
X113612500Y-113770440D01*
X113632502Y-113702319D01*
X113649400Y-113681349D01*
X113899694Y-113431054D01*
X113962005Y-113397031D01*
X114025363Y-113399575D01*
X114175669Y-113445171D01*
X114175673Y-113445171D01*
X114175675Y-113445172D01*
X114361997Y-113463523D01*
X114362000Y-113463523D01*
X114362003Y-113463523D01*
X114548323Y-113445172D01*
X114548325Y-113445171D01*
X114548331Y-113445171D01*
X114594862Y-113431056D01*
X114727496Y-113390822D01*
X114727498Y-113390820D01*
X114727501Y-113390820D01*
X114892625Y-113302560D01*
X115037357Y-113183781D01*
X115156136Y-113039049D01*
X115244396Y-112873925D01*
X115253153Y-112845059D01*
X115298746Y-112694758D01*
X115298748Y-112694747D01*
X115317099Y-112508427D01*
X115317099Y-112508420D01*
X115298748Y-112322100D01*
X115298746Y-112322089D01*
X115244398Y-112142927D01*
X115244396Y-112142923D01*
X115202808Y-112065117D01*
X115156136Y-111977799D01*
X115037357Y-111833067D01*
X114892625Y-111714288D01*
X114845125Y-111688899D01*
X114727500Y-111626027D01*
X114727496Y-111626025D01*
X114548334Y-111571677D01*
X114548323Y-111571675D01*
X114362003Y-111553325D01*
X114361997Y-111553325D01*
X114175676Y-111571675D01*
X114175665Y-111571677D01*
X113996503Y-111626025D01*
X113996499Y-111626027D01*
X113831374Y-111714288D01*
X113686643Y-111833067D01*
X113567864Y-111977798D01*
X113479603Y-112142923D01*
X113479601Y-112142927D01*
X113425253Y-112322089D01*
X113425251Y-112322100D01*
X113406901Y-112508420D01*
X113406901Y-112508427D01*
X113425251Y-112694747D01*
X113425252Y-112694752D01*
X113470847Y-112845059D01*
X113471480Y-112916052D01*
X113439367Y-112970729D01*
X113068843Y-113341253D01*
X113064792Y-113344966D01*
X113033806Y-113370968D01*
X113033804Y-113370971D01*
X113013589Y-113405982D01*
X113010638Y-113410615D01*
X112987445Y-113443740D01*
X112984873Y-113449256D01*
X112978493Y-113464659D01*
X112976412Y-113470376D01*
X112969392Y-113510185D01*
X112968203Y-113515550D01*
X112957736Y-113554616D01*
X112957736Y-113554618D01*
X112961260Y-113594889D01*
X112961500Y-113600383D01*
X112961500Y-118016743D01*
X112961260Y-118022230D01*
X112959800Y-118038923D01*
X112958311Y-118055944D01*
X112957736Y-118062511D01*
X106036500Y-118062511D01*
X106036500Y-109968427D01*
X113406901Y-109968427D01*
X113425251Y-110154747D01*
X113425253Y-110154758D01*
X113479601Y-110333920D01*
X113479603Y-110333924D01*
X113553152Y-110471525D01*
X113567864Y-110499049D01*
X113686643Y-110643781D01*
X113831375Y-110762560D01*
X113992465Y-110848664D01*
X113996499Y-110850820D01*
X113996503Y-110850822D01*
X114175665Y-110905170D01*
X114175666Y-110905170D01*
X114175669Y-110905171D01*
X114175672Y-110905171D01*
X114175676Y-110905172D01*
X114361997Y-110923523D01*
X114362000Y-110923523D01*
X114362003Y-110923523D01*
X114548323Y-110905172D01*
X114548325Y-110905171D01*
X114548331Y-110905171D01*
X114576449Y-110896641D01*
X114727496Y-110850822D01*
X114727498Y-110850820D01*
X114727501Y-110850820D01*
X114892625Y-110762560D01*
X115037357Y-110643781D01*
X115156136Y-110499049D01*
X115244396Y-110333925D01*
X115249327Y-110317672D01*
X115298746Y-110154758D01*
X115298748Y-110154747D01*
X115317099Y-109968427D01*
X115317099Y-109968420D01*
X115298748Y-109782100D01*
X115298746Y-109782089D01*
X115244398Y-109602927D01*
X115244396Y-109602923D01*
X115234019Y-109583509D01*
X115156136Y-109437799D01*
X115037357Y-109293067D01*
X114892625Y-109174288D01*
X114818626Y-109134735D01*
X114727500Y-109086027D01*
X114727496Y-109086025D01*
X114548334Y-109031677D01*
X114548323Y-109031675D01*
X114362003Y-109013325D01*
X114361997Y-109013325D01*
X114175676Y-109031675D01*
X114175665Y-109031677D01*
X113996503Y-109086025D01*
X113996499Y-109086027D01*
X113831374Y-109174288D01*
X113686643Y-109293067D01*
X113567864Y-109437798D01*
X113479603Y-109602923D01*
X113479601Y-109602927D01*
X113425253Y-109782089D01*
X113425251Y-109782100D01*
X113406901Y-109968420D01*
X113406901Y-109968427D01*
X106036500Y-109968427D01*
X106036500Y-107428427D01*
X113406901Y-107428427D01*
X113425251Y-107614747D01*
X113425253Y-107614758D01*
X113479601Y-107793920D01*
X113479603Y-107793924D01*
X113479604Y-107793925D01*
X113567864Y-107959049D01*
X113686643Y-108103781D01*
X113831375Y-108222560D01*
X113996499Y-108310820D01*
X113996503Y-108310822D01*
X114175665Y-108365170D01*
X114175666Y-108365170D01*
X114175669Y-108365171D01*
X114175672Y-108365171D01*
X114175676Y-108365172D01*
X114361997Y-108383523D01*
X114362000Y-108383523D01*
X114362003Y-108383523D01*
X114548323Y-108365172D01*
X114548325Y-108365171D01*
X114548331Y-108365171D01*
X114576449Y-108356641D01*
X114727496Y-108310822D01*
X114727498Y-108310820D01*
X114727501Y-108310820D01*
X114892625Y-108222560D01*
X115037357Y-108103781D01*
X115156136Y-107959049D01*
X115244396Y-107793925D01*
X115298747Y-107614755D01*
X115299921Y-107602836D01*
X115317099Y-107428427D01*
X115317099Y-107428420D01*
X115298748Y-107242100D01*
X115298746Y-107242089D01*
X115244398Y-107062927D01*
X115244396Y-107062923D01*
X115214991Y-107007910D01*
X115156136Y-106897799D01*
X115037357Y-106753067D01*
X114892625Y-106634288D01*
X114888015Y-106631824D01*
X114727500Y-106546027D01*
X114727496Y-106546025D01*
X114548334Y-106491677D01*
X114548323Y-106491675D01*
X114362003Y-106473325D01*
X114361997Y-106473325D01*
X114175676Y-106491675D01*
X114175665Y-106491677D01*
X113996503Y-106546025D01*
X113996499Y-106546027D01*
X113831374Y-106634288D01*
X113686643Y-106753067D01*
X113567864Y-106897798D01*
X113479603Y-107062923D01*
X113479601Y-107062927D01*
X113425253Y-107242089D01*
X113425251Y-107242100D01*
X113406901Y-107428420D01*
X113406901Y-107428427D01*
X106036500Y-107428427D01*
X106036500Y-104888427D01*
X113406901Y-104888427D01*
X113425251Y-105074747D01*
X113425253Y-105074758D01*
X113479601Y-105253920D01*
X113479603Y-105253924D01*
X113523522Y-105336090D01*
X113567864Y-105419049D01*
X113686643Y-105563781D01*
X113831375Y-105682560D01*
X113996499Y-105770820D01*
X113996503Y-105770822D01*
X114175665Y-105825170D01*
X114175666Y-105825170D01*
X114175669Y-105825171D01*
X114175672Y-105825171D01*
X114175676Y-105825172D01*
X114361997Y-105843523D01*
X114362000Y-105843523D01*
X114362003Y-105843523D01*
X114548323Y-105825172D01*
X114548325Y-105825171D01*
X114548331Y-105825171D01*
X114576449Y-105816641D01*
X114727496Y-105770822D01*
X114727498Y-105770820D01*
X114727501Y-105770820D01*
X114892625Y-105682560D01*
X115037357Y-105563781D01*
X115156136Y-105419049D01*
X115205483Y-105326724D01*
X115230177Y-105280528D01*
X115279929Y-105229880D01*
X115341299Y-105213924D01*
X116836616Y-105213924D01*
X116842101Y-105214163D01*
X116882383Y-105217688D01*
X116921446Y-105207220D01*
X116926807Y-105206031D01*
X116966621Y-105199012D01*
X116966623Y-105199010D01*
X116972414Y-105196903D01*
X116987677Y-105190581D01*
X116993257Y-105187979D01*
X116993257Y-105187978D01*
X116993260Y-105187978D01*
X117026393Y-105164776D01*
X117031004Y-105161839D01*
X117066031Y-105141618D01*
X117092029Y-105110633D01*
X117095722Y-105106602D01*
X119852192Y-102350133D01*
X119856210Y-102346451D01*
X119887194Y-102320455D01*
X119907421Y-102285418D01*
X119910352Y-102280817D01*
X119933554Y-102247684D01*
X119933555Y-102247681D01*
X119936147Y-102242122D01*
X119942480Y-102226833D01*
X119944585Y-102221049D01*
X119944588Y-102221045D01*
X119951611Y-102181206D01*
X119952791Y-102175884D01*
X119963263Y-102136807D01*
X119962116Y-102123696D01*
X119959740Y-102096529D01*
X119959500Y-102091037D01*
X119959500Y-97249627D01*
X123899617Y-97249627D01*
X123919898Y-97455551D01*
X123919899Y-97455557D01*
X123919900Y-97455558D01*
X123979968Y-97653578D01*
X124077515Y-97836074D01*
X124208790Y-97996034D01*
X124368750Y-98127309D01*
X124551246Y-98224856D01*
X124749266Y-98284924D01*
X124749270Y-98284924D01*
X124749272Y-98284925D01*
X124955197Y-98305207D01*
X124955200Y-98305207D01*
X124955203Y-98305207D01*
X125161127Y-98284925D01*
X125161128Y-98284924D01*
X125161134Y-98284924D01*
X125359154Y-98224856D01*
X125541650Y-98127309D01*
X125701610Y-97996034D01*
X125832885Y-97836074D01*
X125930432Y-97653578D01*
X125990500Y-97455558D01*
X125998973Y-97369537D01*
X126010783Y-97249627D01*
X126010783Y-97249620D01*
X125990501Y-97043696D01*
X125990500Y-97043694D01*
X125990500Y-97043690D01*
X125930432Y-96845670D01*
X125832885Y-96663174D01*
X125701610Y-96503214D01*
X125541650Y-96371939D01*
X125541648Y-96371938D01*
X125541647Y-96371937D01*
X125359154Y-96274392D01*
X125161127Y-96214322D01*
X124955203Y-96194041D01*
X124955197Y-96194041D01*
X124749272Y-96214322D01*
X124551245Y-96274392D01*
X124368752Y-96371937D01*
X124208790Y-96503214D01*
X124077513Y-96663176D01*
X123979968Y-96845669D01*
X123919898Y-97043696D01*
X123899617Y-97249620D01*
X123899617Y-97249627D01*
X119959500Y-97249627D01*
X119959500Y-94709627D01*
X121359617Y-94709627D01*
X121379898Y-94915551D01*
X121379899Y-94915557D01*
X121379900Y-94915558D01*
X121400327Y-94982896D01*
X121439968Y-95113578D01*
X121524360Y-95271464D01*
X121537515Y-95296074D01*
X121668790Y-95456034D01*
X121828750Y-95587309D01*
X122011246Y-95684856D01*
X122209266Y-95744924D01*
X122209270Y-95744924D01*
X122209272Y-95744925D01*
X122415197Y-95765207D01*
X122415200Y-95765207D01*
X122415203Y-95765207D01*
X122621127Y-95744925D01*
X122621128Y-95744924D01*
X122621134Y-95744924D01*
X122819154Y-95684856D01*
X123001650Y-95587309D01*
X123161610Y-95456034D01*
X123292885Y-95296074D01*
X123390432Y-95113578D01*
X123450500Y-94915558D01*
X123453220Y-94887949D01*
X123470783Y-94709627D01*
X123899617Y-94709627D01*
X123919898Y-94915551D01*
X123919899Y-94915557D01*
X123919900Y-94915558D01*
X123940327Y-94982896D01*
X123979968Y-95113578D01*
X124064360Y-95271464D01*
X124077515Y-95296074D01*
X124208790Y-95456034D01*
X124368750Y-95587309D01*
X124551246Y-95684856D01*
X124749266Y-95744924D01*
X124749270Y-95744924D01*
X124749272Y-95744925D01*
X124955197Y-95765207D01*
X124955200Y-95765207D01*
X124955203Y-95765207D01*
X125161127Y-95744925D01*
X125161128Y-95744924D01*
X125161134Y-95744924D01*
X125359154Y-95684856D01*
X125359164Y-95684850D01*
X125359806Y-95684585D01*
X125360180Y-95684544D01*
X125365078Y-95683059D01*
X125365359Y-95683986D01*
X125430394Y-95676983D01*
X125493887Y-95708751D01*
X125497140Y-95711890D01*
X146589420Y-116804170D01*
X146593124Y-116808212D01*
X146619121Y-116839194D01*
X146645353Y-116854339D01*
X146654134Y-116859409D01*
X146658772Y-116862363D01*
X146691892Y-116885554D01*
X146697446Y-116888144D01*
X146712757Y-116894485D01*
X146718525Y-116896585D01*
X146718531Y-116896588D01*
X146758358Y-116903610D01*
X146763690Y-116904792D01*
X146802769Y-116915264D01*
X146833562Y-116912570D01*
X146843058Y-116911740D01*
X146848550Y-116911500D01*
X159070984Y-116911500D01*
X159139105Y-116931502D01*
X159160079Y-116948405D01*
X159949595Y-117737921D01*
X159983621Y-117800233D01*
X159986500Y-117827016D01*
X159986500Y-117896886D01*
X159966498Y-117965007D01*
X159912842Y-118011500D01*
X159904263Y-118015042D01*
X159885934Y-118021830D01*
X159719809Y-118125376D01*
X159719800Y-118125383D01*
X159577927Y-118260246D01*
X159466101Y-118420910D01*
X159388906Y-118600797D01*
X159349500Y-118792545D01*
X159349500Y-119955238D01*
X159349501Y-119955257D01*
X159364339Y-120101171D01*
X159422941Y-120287950D01*
X159456286Y-120348025D01*
X159517941Y-120459105D01*
X159645449Y-120607635D01*
X159800246Y-120727457D01*
X159975995Y-120813665D01*
X160165499Y-120862732D01*
X160333072Y-120871229D01*
X160361000Y-120872646D01*
X160361000Y-120872645D01*
X160361001Y-120872646D01*
X160554497Y-120843004D01*
X160738065Y-120775018D01*
X160904191Y-120671471D01*
X160904195Y-120671466D01*
X160904199Y-120671464D01*
X161017952Y-120563332D01*
X161046071Y-120536603D01*
X161157899Y-120375936D01*
X161235095Y-120196047D01*
X161274500Y-120004301D01*
X161274500Y-119955238D01*
X161889500Y-119955238D01*
X161889501Y-119955257D01*
X161904339Y-120101171D01*
X161962941Y-120287950D01*
X161996286Y-120348025D01*
X162057941Y-120459105D01*
X162185449Y-120607635D01*
X162340246Y-120727457D01*
X162515995Y-120813665D01*
X162705499Y-120862732D01*
X162873072Y-120871229D01*
X162901000Y-120872646D01*
X162901000Y-120872645D01*
X162901001Y-120872646D01*
X163094497Y-120843004D01*
X163278065Y-120775018D01*
X163444191Y-120671471D01*
X163444195Y-120671466D01*
X163444199Y-120671464D01*
X163557952Y-120563332D01*
X163586071Y-120536603D01*
X163697899Y-120375936D01*
X163775095Y-120196047D01*
X163814500Y-120004301D01*
X163814500Y-119955238D01*
X164429500Y-119955238D01*
X164429501Y-119955257D01*
X164444339Y-120101171D01*
X164502941Y-120287950D01*
X164536286Y-120348025D01*
X164597941Y-120459105D01*
X164725449Y-120607635D01*
X164880246Y-120727457D01*
X165055995Y-120813665D01*
X165245499Y-120862732D01*
X165413072Y-120871229D01*
X165441000Y-120872646D01*
X165441000Y-120872645D01*
X165441001Y-120872646D01*
X165634497Y-120843004D01*
X165818065Y-120775018D01*
X165984191Y-120671471D01*
X165984195Y-120671466D01*
X165984199Y-120671464D01*
X166097952Y-120563332D01*
X166126071Y-120536603D01*
X166237899Y-120375936D01*
X166315095Y-120196047D01*
X166354500Y-120004301D01*
X166354500Y-119955238D01*
X166969500Y-119955238D01*
X166969501Y-119955257D01*
X166984339Y-120101171D01*
X167042941Y-120287950D01*
X167076286Y-120348025D01*
X167137941Y-120459105D01*
X167265449Y-120607635D01*
X167420246Y-120727457D01*
X167595995Y-120813665D01*
X167785499Y-120862732D01*
X167953072Y-120871229D01*
X167981000Y-120872646D01*
X167981000Y-120872645D01*
X167981001Y-120872646D01*
X168174497Y-120843004D01*
X168358065Y-120775018D01*
X168524191Y-120671471D01*
X168524195Y-120671466D01*
X168524199Y-120671464D01*
X168637952Y-120563332D01*
X168666071Y-120536603D01*
X168777899Y-120375936D01*
X168855095Y-120196047D01*
X168894500Y-120004301D01*
X168894500Y-119963452D01*
X169202000Y-119963452D01*
X169217358Y-120134108D01*
X169217359Y-120134110D01*
X169278173Y-120354465D01*
X169278178Y-120354479D01*
X169377360Y-120560432D01*
X169377364Y-120560439D01*
X169511734Y-120745383D01*
X169511735Y-120745384D01*
X169676968Y-120903363D01*
X169867749Y-121029297D01*
X169867761Y-121029303D01*
X170077961Y-121119147D01*
X170077963Y-121119148D01*
X170218000Y-121151110D01*
X170218000Y-119683531D01*
X170288157Y-119738137D01*
X170408422Y-119779424D01*
X170503569Y-119779424D01*
X170597421Y-119763763D01*
X170709251Y-119703244D01*
X170726000Y-119685049D01*
X170726000Y-121153615D01*
X170755747Y-121149586D01*
X170973164Y-121078941D01*
X171174464Y-120970617D01*
X171174465Y-120970617D01*
X171353193Y-120828087D01*
X171503603Y-120655929D01*
X171620851Y-120459690D01*
X171620856Y-120459679D01*
X171701181Y-120245657D01*
X171701181Y-120245656D01*
X171742000Y-120020730D01*
X171742000Y-119652424D01*
X170756034Y-119652424D01*
X170795371Y-119609693D01*
X170846448Y-119493247D01*
X170856949Y-119366526D01*
X170825734Y-119243262D01*
X170761160Y-119144424D01*
X171742000Y-119144424D01*
X171742000Y-118833398D01*
X171741999Y-118833395D01*
X171726641Y-118662739D01*
X171726640Y-118662737D01*
X171665826Y-118442382D01*
X171665821Y-118442368D01*
X171566639Y-118236415D01*
X171566635Y-118236408D01*
X171432265Y-118051464D01*
X171432264Y-118051463D01*
X171267031Y-117893484D01*
X171076250Y-117767550D01*
X171076238Y-117767544D01*
X170866036Y-117677699D01*
X170866038Y-117677699D01*
X170726000Y-117645737D01*
X170726000Y-119113316D01*
X170655843Y-119058711D01*
X170535578Y-119017424D01*
X170440431Y-119017424D01*
X170346579Y-119033085D01*
X170234749Y-119093604D01*
X170218000Y-119111798D01*
X170218000Y-117643231D01*
X170217999Y-117643230D01*
X170188262Y-117647259D01*
X169970835Y-117717906D01*
X169769535Y-117826230D01*
X169769534Y-117826230D01*
X169590806Y-117968760D01*
X169440396Y-118140918D01*
X169323148Y-118337157D01*
X169323143Y-118337168D01*
X169242818Y-118551190D01*
X169242818Y-118551191D01*
X169202000Y-118776117D01*
X169202000Y-119144424D01*
X170187966Y-119144424D01*
X170148629Y-119187155D01*
X170097552Y-119303601D01*
X170087051Y-119430322D01*
X170118266Y-119553586D01*
X170182840Y-119652424D01*
X169202000Y-119652424D01*
X169202000Y-119963452D01*
X168894500Y-119963452D01*
X168894500Y-118841609D01*
X168879660Y-118695675D01*
X168821059Y-118508899D01*
X168726059Y-118337743D01*
X168598551Y-118189213D01*
X168443754Y-118069391D01*
X168443752Y-118069390D01*
X168443751Y-118069389D01*
X168268008Y-117983184D01*
X168268005Y-117983183D01*
X168078501Y-117934116D01*
X168078497Y-117934115D01*
X168078494Y-117934115D01*
X167882999Y-117924201D01*
X167689505Y-117953843D01*
X167689503Y-117953844D01*
X167673176Y-117959890D01*
X167505939Y-118021827D01*
X167505939Y-118021828D01*
X167505936Y-118021829D01*
X167505935Y-118021830D01*
X167459571Y-118050729D01*
X167339809Y-118125376D01*
X167339800Y-118125383D01*
X167197927Y-118260246D01*
X167086101Y-118420910D01*
X167008906Y-118600797D01*
X166969500Y-118792545D01*
X166969500Y-119955238D01*
X166354500Y-119955238D01*
X166354500Y-118841609D01*
X166339660Y-118695675D01*
X166281059Y-118508899D01*
X166186059Y-118337743D01*
X166058551Y-118189213D01*
X165903754Y-118069391D01*
X165903752Y-118069390D01*
X165903751Y-118069389D01*
X165728008Y-117983184D01*
X165728005Y-117983183D01*
X165538501Y-117934116D01*
X165538497Y-117934115D01*
X165538494Y-117934115D01*
X165342999Y-117924201D01*
X165149505Y-117953843D01*
X165149503Y-117953844D01*
X165133176Y-117959890D01*
X164965939Y-118021827D01*
X164965939Y-118021828D01*
X164965936Y-118021829D01*
X164965935Y-118021830D01*
X164919571Y-118050729D01*
X164799809Y-118125376D01*
X164799800Y-118125383D01*
X164657927Y-118260246D01*
X164546101Y-118420910D01*
X164468906Y-118600797D01*
X164429500Y-118792545D01*
X164429500Y-119955238D01*
X163814500Y-119955238D01*
X163814500Y-118841609D01*
X163799660Y-118695675D01*
X163741059Y-118508899D01*
X163646059Y-118337743D01*
X163518551Y-118189213D01*
X163363754Y-118069391D01*
X163363752Y-118069390D01*
X163363751Y-118069389D01*
X163188008Y-117983184D01*
X163188005Y-117983183D01*
X162998501Y-117934116D01*
X162998497Y-117934115D01*
X162998494Y-117934115D01*
X162802999Y-117924201D01*
X162609505Y-117953843D01*
X162609503Y-117953844D01*
X162593176Y-117959890D01*
X162425939Y-118021827D01*
X162425939Y-118021828D01*
X162425936Y-118021829D01*
X162425935Y-118021830D01*
X162379571Y-118050729D01*
X162259809Y-118125376D01*
X162259800Y-118125383D01*
X162117927Y-118260246D01*
X162006101Y-118420910D01*
X161928906Y-118600797D01*
X161889500Y-118792545D01*
X161889500Y-119955238D01*
X161274500Y-119955238D01*
X161274500Y-118841609D01*
X161259660Y-118695675D01*
X161201059Y-118508899D01*
X161106059Y-118337743D01*
X160978551Y-118189213D01*
X160823754Y-118069391D01*
X160796375Y-118055961D01*
X160708010Y-118012616D01*
X160655660Y-117964658D01*
X160637500Y-117899493D01*
X160637500Y-117656961D01*
X160637740Y-117651469D01*
X160640455Y-117620424D01*
X181911357Y-117620424D01*
X181931885Y-117841963D01*
X181992768Y-118055944D01*
X181992774Y-118055961D01*
X182091938Y-118255108D01*
X182091942Y-118255113D01*
X182226017Y-118432659D01*
X182390438Y-118582548D01*
X182390439Y-118582549D01*
X182579587Y-118699664D01*
X182579590Y-118699665D01*
X182579599Y-118699671D01*
X182669989Y-118734688D01*
X182787053Y-118780040D01*
X182787056Y-118780040D01*
X182787060Y-118780042D01*
X183005757Y-118820924D01*
X183005760Y-118820924D01*
X183228240Y-118820924D01*
X183228243Y-118820924D01*
X183446940Y-118780042D01*
X183446944Y-118780040D01*
X183446946Y-118780040D01*
X183546944Y-118741300D01*
X183654401Y-118699671D01*
X183843562Y-118582548D01*
X184007981Y-118432660D01*
X184011083Y-118428553D01*
X184034352Y-118397738D01*
X184142058Y-118255113D01*
X184142059Y-118255109D01*
X184142061Y-118255108D01*
X184241225Y-118055961D01*
X184241226Y-118055957D01*
X184241229Y-118055952D01*
X184302115Y-117841960D01*
X184322643Y-117620424D01*
X186104337Y-117620424D01*
X186122960Y-117857056D01*
X186178371Y-118087861D01*
X186269206Y-118307157D01*
X186383897Y-118494315D01*
X187090097Y-117788115D01*
X187093884Y-117806339D01*
X187163442Y-117940580D01*
X187266638Y-118051076D01*
X187395819Y-118129633D01*
X187451421Y-118145212D01*
X186743107Y-118853525D01*
X186743107Y-118853526D01*
X186930261Y-118968215D01*
X187149562Y-119059052D01*
X187380367Y-119114463D01*
X187617000Y-119133086D01*
X187853632Y-119114463D01*
X188084437Y-119059052D01*
X188303738Y-118968215D01*
X188490891Y-118853526D01*
X188490892Y-118853525D01*
X187784625Y-118147258D01*
X187905458Y-118094773D01*
X188022739Y-117999358D01*
X188109928Y-117875839D01*
X188141837Y-117786052D01*
X188850101Y-118494316D01*
X188850102Y-118494315D01*
X188964791Y-118307162D01*
X189055628Y-118087861D01*
X189110771Y-117858174D01*
X190839500Y-117858174D01*
X190848630Y-117904076D01*
X190851133Y-117916655D01*
X190895448Y-117982976D01*
X190961769Y-118027291D01*
X191020252Y-118038924D01*
X191020253Y-118038924D01*
X193059747Y-118038924D01*
X193059748Y-118038924D01*
X193118231Y-118027291D01*
X193184552Y-117982976D01*
X193228867Y-117916655D01*
X193240500Y-117858174D01*
X202039500Y-117858174D01*
X202048630Y-117904076D01*
X202051133Y-117916655D01*
X202095448Y-117982976D01*
X202161769Y-118027291D01*
X202220252Y-118038924D01*
X202220253Y-118038924D01*
X204259747Y-118038924D01*
X204259748Y-118038924D01*
X204318231Y-118027291D01*
X204384552Y-117982976D01*
X204428867Y-117916655D01*
X204440500Y-117858172D01*
X204440500Y-114618676D01*
X204428867Y-114560193D01*
X204384552Y-114493872D01*
X204318231Y-114449557D01*
X204318228Y-114449556D01*
X204259750Y-114437924D01*
X204259748Y-114437924D01*
X202220252Y-114437924D01*
X202220249Y-114437924D01*
X202161771Y-114449556D01*
X202161768Y-114449557D01*
X202095448Y-114493872D01*
X202051133Y-114560192D01*
X202051132Y-114560195D01*
X202039500Y-114618673D01*
X202039500Y-117858174D01*
X193240500Y-117858174D01*
X193240500Y-117858172D01*
X193240500Y-114618676D01*
X193228867Y-114560193D01*
X193184552Y-114493872D01*
X193118231Y-114449557D01*
X193118228Y-114449556D01*
X193059750Y-114437924D01*
X193059748Y-114437924D01*
X191020252Y-114437924D01*
X191020249Y-114437924D01*
X190961771Y-114449556D01*
X190961768Y-114449557D01*
X190895448Y-114493872D01*
X190851133Y-114560192D01*
X190851132Y-114560195D01*
X190839500Y-114618673D01*
X190839500Y-117858174D01*
X189110771Y-117858174D01*
X189111039Y-117857056D01*
X189129662Y-117620424D01*
X189111039Y-117383791D01*
X189055628Y-117152986D01*
X188964791Y-116933685D01*
X188850102Y-116746531D01*
X188850101Y-116746531D01*
X188143902Y-117452730D01*
X188140116Y-117434509D01*
X188070558Y-117300268D01*
X187967362Y-117189772D01*
X187838181Y-117111215D01*
X187782577Y-117095635D01*
X188490891Y-116387321D01*
X188303733Y-116272630D01*
X188084437Y-116181795D01*
X187853632Y-116126384D01*
X187617000Y-116107761D01*
X187380367Y-116126384D01*
X187149562Y-116181795D01*
X186930262Y-116272632D01*
X186743107Y-116387320D01*
X186743107Y-116387322D01*
X187449374Y-117093589D01*
X187328542Y-117146075D01*
X187211261Y-117241490D01*
X187124072Y-117365009D01*
X187092162Y-117454795D01*
X186383898Y-116746531D01*
X186383896Y-116746531D01*
X186269208Y-116933686D01*
X186178371Y-117152986D01*
X186122960Y-117383791D01*
X186104337Y-117620424D01*
X184322643Y-117620424D01*
X184302115Y-117398888D01*
X184241229Y-117184896D01*
X184241227Y-117184892D01*
X184241225Y-117184886D01*
X184142061Y-116985739D01*
X184142057Y-116985734D01*
X184007982Y-116808188D01*
X183843561Y-116658299D01*
X183843560Y-116658298D01*
X183654412Y-116541183D01*
X183654405Y-116541179D01*
X183654401Y-116541177D01*
X183654396Y-116541175D01*
X183446946Y-116460807D01*
X183407972Y-116453521D01*
X183228243Y-116419924D01*
X183005757Y-116419924D01*
X182864674Y-116446297D01*
X182787053Y-116460807D01*
X182579603Y-116541175D01*
X182579587Y-116541183D01*
X182390439Y-116658298D01*
X182390438Y-116658299D01*
X182226017Y-116808188D01*
X182091942Y-116985734D01*
X182091938Y-116985739D01*
X181992774Y-117184886D01*
X181992768Y-117184903D01*
X181931885Y-117398884D01*
X181911357Y-117620424D01*
X160640455Y-117620424D01*
X160641263Y-117611193D01*
X160630796Y-117572131D01*
X160629610Y-117566784D01*
X160622588Y-117526955D01*
X160622585Y-117526949D01*
X160620485Y-117521181D01*
X160614144Y-117505870D01*
X160611554Y-117500316D01*
X160588363Y-117467196D01*
X160585409Y-117462558D01*
X160572973Y-117441019D01*
X160565194Y-117427545D01*
X160565193Y-117427544D01*
X160534212Y-117401547D01*
X160530169Y-117397843D01*
X159500165Y-116367839D01*
X159496450Y-116363786D01*
X159470454Y-116332805D01*
X159470451Y-116332803D01*
X159435435Y-116312586D01*
X159430800Y-116309633D01*
X159397683Y-116286445D01*
X159392152Y-116283866D01*
X159376796Y-116277505D01*
X159371047Y-116275412D01*
X159347174Y-116271202D01*
X159331234Y-116268391D01*
X159325872Y-116267203D01*
X159286808Y-116256736D01*
X159286805Y-116256736D01*
X159275127Y-116257757D01*
X159246524Y-116260260D01*
X159241040Y-116260500D01*
X147018592Y-116260500D01*
X146950471Y-116240498D01*
X146929497Y-116223595D01*
X143214329Y-112508427D01*
X176926901Y-112508427D01*
X176945251Y-112694747D01*
X176945253Y-112694758D01*
X176999601Y-112873920D01*
X176999603Y-112873924D01*
X177051346Y-112970729D01*
X177087864Y-113039049D01*
X177206643Y-113183781D01*
X177351375Y-113302560D01*
X177430712Y-113344966D01*
X177516499Y-113390820D01*
X177516503Y-113390822D01*
X177695665Y-113445170D01*
X177695666Y-113445170D01*
X177695669Y-113445171D01*
X177695672Y-113445171D01*
X177695676Y-113445172D01*
X177881997Y-113463523D01*
X177882000Y-113463523D01*
X177882003Y-113463523D01*
X178068323Y-113445172D01*
X178068325Y-113445171D01*
X178068331Y-113445171D01*
X178114862Y-113431056D01*
X178247496Y-113390822D01*
X178247498Y-113390820D01*
X178247501Y-113390820D01*
X178412625Y-113302560D01*
X178557357Y-113183781D01*
X178676136Y-113039049D01*
X178764396Y-112873925D01*
X178773153Y-112845059D01*
X178794101Y-112776003D01*
X182128659Y-112776003D01*
X182147974Y-112972124D01*
X182147974Y-112972126D01*
X182205186Y-113160728D01*
X182280997Y-113302559D01*
X182298090Y-113334538D01*
X182423117Y-113486883D01*
X182575462Y-113611910D01*
X182749273Y-113704814D01*
X182937868Y-113762024D01*
X182937872Y-113762024D01*
X182937874Y-113762025D01*
X183133997Y-113781341D01*
X183134000Y-113781341D01*
X183134003Y-113781341D01*
X183330124Y-113762025D01*
X183330126Y-113762025D01*
X183330127Y-113762024D01*
X183330132Y-113762024D01*
X183518727Y-113704814D01*
X183692538Y-113611910D01*
X183844883Y-113486883D01*
X183969910Y-113334538D01*
X184062814Y-113160727D01*
X184104716Y-113022594D01*
X184143629Y-112963216D01*
X184208470Y-112934301D01*
X184278651Y-112945031D01*
X184331890Y-112992000D01*
X184346996Y-113026561D01*
X184400187Y-113225071D01*
X184400188Y-113225073D01*
X184496913Y-113432501D01*
X184546899Y-113503888D01*
X185235272Y-112815516D01*
X185248835Y-112901148D01*
X185306359Y-113014045D01*
X185395955Y-113103641D01*
X185508852Y-113161165D01*
X185594482Y-113174727D01*
X184906110Y-113863098D01*
X184906110Y-113863100D01*
X184977498Y-113913086D01*
X185184926Y-114009811D01*
X185184931Y-114009813D01*
X185405999Y-114069048D01*
X185405995Y-114069048D01*
X185634000Y-114088995D01*
X185862002Y-114069048D01*
X186083068Y-114009813D01*
X186083073Y-114009811D01*
X186290497Y-113913088D01*
X186361888Y-113863099D01*
X186361888Y-113863097D01*
X185673518Y-113174727D01*
X185759148Y-113161165D01*
X185872045Y-113103641D01*
X185961641Y-113014045D01*
X186019165Y-112901148D01*
X186032727Y-112815518D01*
X186721097Y-113503888D01*
X186721099Y-113503888D01*
X186771088Y-113432497D01*
X186867811Y-113225073D01*
X186867813Y-113225068D01*
X186927048Y-113004002D01*
X186946995Y-112776000D01*
X186927048Y-112547997D01*
X186867813Y-112326931D01*
X186867811Y-112326926D01*
X186771086Y-112119498D01*
X186721100Y-112048110D01*
X186721098Y-112048110D01*
X186032727Y-112736481D01*
X186019165Y-112650852D01*
X185961641Y-112537955D01*
X185872045Y-112448359D01*
X185759148Y-112390835D01*
X185673517Y-112377272D01*
X186361888Y-111688899D01*
X186361888Y-111688898D01*
X186290501Y-111638913D01*
X186083073Y-111542188D01*
X186083068Y-111542186D01*
X185862000Y-111482951D01*
X185862004Y-111482951D01*
X185634000Y-111463004D01*
X185405997Y-111482951D01*
X185184931Y-111542186D01*
X185184926Y-111542188D01*
X184977500Y-111638913D01*
X184906109Y-111688900D01*
X185594481Y-112377272D01*
X185508852Y-112390835D01*
X185395955Y-112448359D01*
X185306359Y-112537955D01*
X185248835Y-112650852D01*
X185235272Y-112736481D01*
X184546900Y-112048109D01*
X184496913Y-112119500D01*
X184400188Y-112326926D01*
X184400183Y-112326938D01*
X184346995Y-112525438D01*
X184310044Y-112586060D01*
X184246183Y-112617082D01*
X184175689Y-112608653D01*
X184120942Y-112563449D01*
X184104716Y-112529406D01*
X184062814Y-112391273D01*
X183969910Y-112217462D01*
X183844883Y-112065117D01*
X183692538Y-111940090D01*
X183518728Y-111847186D01*
X183330125Y-111789974D01*
X183134003Y-111770659D01*
X183133997Y-111770659D01*
X182937875Y-111789974D01*
X182937873Y-111789974D01*
X182749271Y-111847186D01*
X182575461Y-111940090D01*
X182423117Y-112065117D01*
X182298090Y-112217461D01*
X182205186Y-112391271D01*
X182147974Y-112579873D01*
X182147974Y-112579875D01*
X182128659Y-112775996D01*
X182128659Y-112776003D01*
X178794101Y-112776003D01*
X178818746Y-112694758D01*
X178818748Y-112694747D01*
X178837099Y-112508427D01*
X178837099Y-112508420D01*
X178818748Y-112322100D01*
X178818746Y-112322089D01*
X178764398Y-112142927D01*
X178764396Y-112142923D01*
X178722808Y-112065117D01*
X178676136Y-111977799D01*
X178557357Y-111833067D01*
X178412625Y-111714288D01*
X178365125Y-111688899D01*
X178247500Y-111626027D01*
X178247496Y-111626025D01*
X178068334Y-111571677D01*
X178068323Y-111571675D01*
X177882003Y-111553325D01*
X177881997Y-111553325D01*
X177695676Y-111571675D01*
X177695665Y-111571677D01*
X177516503Y-111626025D01*
X177516499Y-111626027D01*
X177351374Y-111714288D01*
X177206643Y-111833067D01*
X177087864Y-111977798D01*
X176999603Y-112142923D01*
X176999601Y-112142927D01*
X176945253Y-112322089D01*
X176945251Y-112322100D01*
X176926901Y-112508420D01*
X176926901Y-112508427D01*
X143214329Y-112508427D01*
X140674329Y-109968427D01*
X176926901Y-109968427D01*
X176945251Y-110154747D01*
X176945253Y-110154758D01*
X176999601Y-110333920D01*
X176999603Y-110333924D01*
X177073152Y-110471525D01*
X177087864Y-110499049D01*
X177206643Y-110643781D01*
X177351375Y-110762560D01*
X177512465Y-110848664D01*
X177516499Y-110850820D01*
X177516503Y-110850822D01*
X177695665Y-110905170D01*
X177695666Y-110905170D01*
X177695669Y-110905171D01*
X177695672Y-110905171D01*
X177695676Y-110905172D01*
X177881997Y-110923523D01*
X177882000Y-110923523D01*
X177882003Y-110923523D01*
X178068323Y-110905172D01*
X178068325Y-110905171D01*
X178068331Y-110905171D01*
X178096449Y-110896641D01*
X178247496Y-110850822D01*
X178247498Y-110850820D01*
X178247501Y-110850820D01*
X178412625Y-110762560D01*
X178557357Y-110643781D01*
X178676136Y-110499049D01*
X178764396Y-110333925D01*
X178769327Y-110317672D01*
X178818746Y-110154758D01*
X178818748Y-110154747D01*
X178837099Y-109968427D01*
X178837099Y-109968420D01*
X178818748Y-109782100D01*
X178818746Y-109782089D01*
X178814904Y-109769424D01*
X181911357Y-109769424D01*
X181931885Y-109990963D01*
X181992768Y-110204944D01*
X181992774Y-110204961D01*
X182091938Y-110404108D01*
X182091942Y-110404113D01*
X182226017Y-110581659D01*
X182390438Y-110731548D01*
X182390439Y-110731549D01*
X182579587Y-110848664D01*
X182579590Y-110848665D01*
X182579599Y-110848671D01*
X182669989Y-110883688D01*
X182787053Y-110929040D01*
X182787056Y-110929040D01*
X182787060Y-110929042D01*
X183005757Y-110969924D01*
X183005760Y-110969924D01*
X183228240Y-110969924D01*
X183228243Y-110969924D01*
X183446940Y-110929042D01*
X183446944Y-110929040D01*
X183446946Y-110929040D01*
X183508558Y-110905171D01*
X183654401Y-110848671D01*
X183843562Y-110731548D01*
X184007981Y-110581660D01*
X184142058Y-110404113D01*
X184142059Y-110404109D01*
X184142061Y-110404108D01*
X184241225Y-110204961D01*
X184241226Y-110204957D01*
X184241229Y-110204952D01*
X184302115Y-109990960D01*
X184322643Y-109769424D01*
X186104337Y-109769424D01*
X186122960Y-110006056D01*
X186178371Y-110236861D01*
X186269206Y-110456157D01*
X186383897Y-110643315D01*
X187090097Y-109937115D01*
X187093884Y-109955339D01*
X187163442Y-110089580D01*
X187266638Y-110200076D01*
X187395819Y-110278633D01*
X187451421Y-110294212D01*
X186743107Y-111002525D01*
X186743107Y-111002526D01*
X186930261Y-111117215D01*
X187149562Y-111208052D01*
X187380367Y-111263463D01*
X187617000Y-111282086D01*
X187853632Y-111263463D01*
X188084437Y-111208052D01*
X188303738Y-111117215D01*
X188490891Y-111002526D01*
X188490892Y-111002525D01*
X187784625Y-110296258D01*
X187905458Y-110243773D01*
X188022739Y-110148358D01*
X188109928Y-110024839D01*
X188141837Y-109935052D01*
X188850101Y-110643316D01*
X188850102Y-110643315D01*
X188964791Y-110456162D01*
X189055628Y-110236861D01*
X189111039Y-110006056D01*
X189129662Y-109769424D01*
X189111039Y-109532791D01*
X189055628Y-109301986D01*
X188964791Y-109082685D01*
X188850102Y-108895531D01*
X188850101Y-108895531D01*
X188143902Y-109601730D01*
X188140116Y-109583509D01*
X188070558Y-109449268D01*
X187967362Y-109338772D01*
X187838181Y-109260215D01*
X187782577Y-109244635D01*
X188490891Y-108536321D01*
X188303733Y-108421630D01*
X188084437Y-108330795D01*
X187853632Y-108275384D01*
X187617000Y-108256761D01*
X187380367Y-108275384D01*
X187149562Y-108330795D01*
X186930262Y-108421632D01*
X186743107Y-108536320D01*
X186743107Y-108536322D01*
X187449374Y-109242589D01*
X187328542Y-109295075D01*
X187211261Y-109390490D01*
X187124072Y-109514009D01*
X187092162Y-109603795D01*
X186383898Y-108895531D01*
X186383896Y-108895531D01*
X186269208Y-109082686D01*
X186178371Y-109301986D01*
X186122960Y-109532791D01*
X186104337Y-109769424D01*
X184322643Y-109769424D01*
X184302115Y-109547888D01*
X184241229Y-109333896D01*
X184241227Y-109333892D01*
X184241225Y-109333886D01*
X184142061Y-109134739D01*
X184142057Y-109134734D01*
X184007982Y-108957188D01*
X183843561Y-108807299D01*
X183843560Y-108807298D01*
X183654412Y-108690183D01*
X183654399Y-108690176D01*
X183522982Y-108639264D01*
X183466688Y-108596004D01*
X183442718Y-108529176D01*
X183442500Y-108521773D01*
X183442500Y-106172003D01*
X190276659Y-106172003D01*
X190295974Y-106368124D01*
X190295974Y-106368126D01*
X190353186Y-106556728D01*
X190424654Y-106690434D01*
X190446090Y-106730538D01*
X190571117Y-106882883D01*
X190723462Y-107007910D01*
X190897273Y-107100814D01*
X191085868Y-107158024D01*
X191085872Y-107158024D01*
X191085874Y-107158025D01*
X191281997Y-107177341D01*
X191282000Y-107177341D01*
X191282003Y-107177341D01*
X191478124Y-107158025D01*
X191478126Y-107158025D01*
X191478127Y-107158024D01*
X191478132Y-107158024D01*
X191666727Y-107100814D01*
X191840538Y-107007910D01*
X191992883Y-106882883D01*
X192117910Y-106730538D01*
X192210814Y-106556727D01*
X192252716Y-106418594D01*
X192291629Y-106359216D01*
X192356470Y-106330301D01*
X192426651Y-106341031D01*
X192479890Y-106388000D01*
X192494996Y-106422561D01*
X192548187Y-106621071D01*
X192548188Y-106621073D01*
X192644913Y-106828501D01*
X192694899Y-106899888D01*
X193383272Y-106211516D01*
X193396835Y-106297148D01*
X193454359Y-106410045D01*
X193543955Y-106499641D01*
X193656852Y-106557165D01*
X193742482Y-106570727D01*
X193054110Y-107259098D01*
X193054110Y-107259100D01*
X193125498Y-107309086D01*
X193332926Y-107405811D01*
X193332931Y-107405813D01*
X193553999Y-107465048D01*
X193553995Y-107465048D01*
X193782000Y-107484995D01*
X194010002Y-107465048D01*
X194231068Y-107405813D01*
X194231073Y-107405811D01*
X194438497Y-107309088D01*
X194509888Y-107259099D01*
X194509888Y-107259097D01*
X193821518Y-106570727D01*
X193907148Y-106557165D01*
X194020045Y-106499641D01*
X194109641Y-106410045D01*
X194167165Y-106297148D01*
X194180727Y-106211518D01*
X194869097Y-106899888D01*
X194869099Y-106899888D01*
X194919088Y-106828497D01*
X195015811Y-106621073D01*
X195015813Y-106621068D01*
X195075048Y-106400002D01*
X195094995Y-106172000D01*
X195075048Y-105943997D01*
X195015813Y-105722931D01*
X195015811Y-105722926D01*
X194919086Y-105515498D01*
X194869100Y-105444110D01*
X194869098Y-105444110D01*
X194180727Y-106132481D01*
X194167165Y-106046852D01*
X194109641Y-105933955D01*
X194020045Y-105844359D01*
X193907148Y-105786835D01*
X193821517Y-105773272D01*
X194509888Y-105084899D01*
X194509888Y-105084898D01*
X194438501Y-105034913D01*
X194231073Y-104938188D01*
X194231068Y-104938186D01*
X194010000Y-104878951D01*
X194010004Y-104878951D01*
X193782000Y-104859004D01*
X193553997Y-104878951D01*
X193332931Y-104938186D01*
X193332926Y-104938188D01*
X193125500Y-105034913D01*
X193054109Y-105084900D01*
X193742481Y-105773272D01*
X193656852Y-105786835D01*
X193543955Y-105844359D01*
X193454359Y-105933955D01*
X193396835Y-106046852D01*
X193383272Y-106132481D01*
X192694900Y-105444109D01*
X192644913Y-105515500D01*
X192548188Y-105722926D01*
X192548183Y-105722938D01*
X192494995Y-105921438D01*
X192458044Y-105982060D01*
X192394183Y-106013082D01*
X192323689Y-106004653D01*
X192268942Y-105959449D01*
X192252716Y-105925406D01*
X192210814Y-105787273D01*
X192117910Y-105613462D01*
X191992883Y-105461117D01*
X191840538Y-105336090D01*
X191666728Y-105243186D01*
X191514153Y-105196903D01*
X191478132Y-105185976D01*
X191478131Y-105185975D01*
X191478125Y-105185974D01*
X191282003Y-105166659D01*
X191281997Y-105166659D01*
X191085875Y-105185974D01*
X191085873Y-105185974D01*
X190897271Y-105243186D01*
X190723461Y-105336090D01*
X190571117Y-105461117D01*
X190446090Y-105613461D01*
X190353186Y-105787271D01*
X190295974Y-105975873D01*
X190295974Y-105975875D01*
X190276659Y-106171996D01*
X190276659Y-106172003D01*
X183442500Y-106172003D01*
X183442500Y-104517073D01*
X183462502Y-104448952D01*
X183516158Y-104402459D01*
X183522945Y-104399597D01*
X183654401Y-104348671D01*
X183843562Y-104231548D01*
X184007981Y-104081660D01*
X184142058Y-103904113D01*
X184142059Y-103904109D01*
X184142061Y-103904108D01*
X184241225Y-103704961D01*
X184241226Y-103704957D01*
X184241229Y-103704952D01*
X184302115Y-103490960D01*
X184322643Y-103269424D01*
X186104337Y-103269424D01*
X186122960Y-103506056D01*
X186178371Y-103736861D01*
X186269206Y-103956157D01*
X186383897Y-104143315D01*
X187090097Y-103437115D01*
X187093884Y-103455339D01*
X187163442Y-103589580D01*
X187266638Y-103700076D01*
X187395819Y-103778633D01*
X187451421Y-103794212D01*
X186743107Y-104502525D01*
X186743107Y-104502526D01*
X186930261Y-104617215D01*
X187149562Y-104708052D01*
X187380367Y-104763463D01*
X187617000Y-104782086D01*
X187853632Y-104763463D01*
X188084437Y-104708052D01*
X188303738Y-104617215D01*
X188490891Y-104502526D01*
X188490892Y-104502525D01*
X187784625Y-103796258D01*
X187905458Y-103743773D01*
X188022739Y-103648358D01*
X188109928Y-103524839D01*
X188141837Y-103435052D01*
X188850101Y-104143316D01*
X188850102Y-104143315D01*
X188964791Y-103956162D01*
X189055628Y-103736861D01*
X189111039Y-103506056D01*
X189129662Y-103269424D01*
X189111039Y-103032791D01*
X189055628Y-102801986D01*
X188964791Y-102582685D01*
X188850102Y-102395531D01*
X188850101Y-102395531D01*
X188143902Y-103101730D01*
X188140116Y-103083509D01*
X188070558Y-102949268D01*
X187967362Y-102838772D01*
X187838181Y-102760215D01*
X187782577Y-102744635D01*
X188490891Y-102036321D01*
X188303733Y-101921630D01*
X188084437Y-101830795D01*
X187853632Y-101775384D01*
X187617000Y-101756761D01*
X187380367Y-101775384D01*
X187149562Y-101830795D01*
X186930262Y-101921632D01*
X186743107Y-102036320D01*
X186743107Y-102036322D01*
X187449374Y-102742589D01*
X187328542Y-102795075D01*
X187211261Y-102890490D01*
X187124072Y-103014009D01*
X187092162Y-103103795D01*
X186383898Y-102395531D01*
X186383896Y-102395531D01*
X186269208Y-102582686D01*
X186178371Y-102801986D01*
X186122960Y-103032791D01*
X186104337Y-103269424D01*
X184322643Y-103269424D01*
X184302115Y-103047888D01*
X184285409Y-102989174D01*
X184241231Y-102833903D01*
X184241225Y-102833886D01*
X184142061Y-102634739D01*
X184142057Y-102634734D01*
X184007982Y-102457188D01*
X183843561Y-102307299D01*
X183843560Y-102307298D01*
X183654412Y-102190183D01*
X183654405Y-102190179D01*
X183654401Y-102190177D01*
X183624306Y-102178518D01*
X183446946Y-102109807D01*
X183375915Y-102096529D01*
X183228243Y-102068924D01*
X183005757Y-102068924D01*
X182872721Y-102093793D01*
X182787053Y-102109807D01*
X182579603Y-102190175D01*
X182579587Y-102190183D01*
X182390439Y-102307298D01*
X182390438Y-102307299D01*
X182226017Y-102457188D01*
X182091942Y-102634734D01*
X182091938Y-102634739D01*
X181992774Y-102833886D01*
X181992768Y-102833903D01*
X181931885Y-103047884D01*
X181911357Y-103269424D01*
X181931885Y-103490963D01*
X181992768Y-103704944D01*
X181992774Y-103704961D01*
X182091938Y-103904108D01*
X182091942Y-103904113D01*
X182226017Y-104081659D01*
X182390438Y-104231548D01*
X182390439Y-104231549D01*
X182579587Y-104348664D01*
X182579590Y-104348665D01*
X182579599Y-104348671D01*
X182711019Y-104399583D01*
X182767311Y-104442841D01*
X182791282Y-104509668D01*
X182791500Y-104517073D01*
X182791500Y-108521773D01*
X182771498Y-108589894D01*
X182717842Y-108636387D01*
X182711018Y-108639264D01*
X182579600Y-108690176D01*
X182579587Y-108690183D01*
X182390439Y-108807298D01*
X182390438Y-108807299D01*
X182226017Y-108957188D01*
X182091942Y-109134734D01*
X182091938Y-109134739D01*
X181992774Y-109333886D01*
X181992768Y-109333903D01*
X181931885Y-109547884D01*
X181911357Y-109769424D01*
X178814904Y-109769424D01*
X178764398Y-109602927D01*
X178764396Y-109602923D01*
X178754019Y-109583509D01*
X178676136Y-109437799D01*
X178557357Y-109293067D01*
X178412625Y-109174288D01*
X178338626Y-109134735D01*
X178247500Y-109086027D01*
X178247496Y-109086025D01*
X178068334Y-109031677D01*
X178068323Y-109031675D01*
X177882003Y-109013325D01*
X177881997Y-109013325D01*
X177695676Y-109031675D01*
X177695665Y-109031677D01*
X177516503Y-109086025D01*
X177516499Y-109086027D01*
X177351374Y-109174288D01*
X177206643Y-109293067D01*
X177087864Y-109437798D01*
X176999603Y-109602923D01*
X176999601Y-109602927D01*
X176945253Y-109782089D01*
X176945251Y-109782100D01*
X176926901Y-109968420D01*
X176926901Y-109968427D01*
X140674329Y-109968427D01*
X138134329Y-107428427D01*
X176926901Y-107428427D01*
X176945251Y-107614747D01*
X176945253Y-107614758D01*
X176999601Y-107793920D01*
X176999603Y-107793924D01*
X176999604Y-107793925D01*
X177087864Y-107959049D01*
X177206643Y-108103781D01*
X177351375Y-108222560D01*
X177516499Y-108310820D01*
X177516503Y-108310822D01*
X177695665Y-108365170D01*
X177695666Y-108365170D01*
X177695669Y-108365171D01*
X177695672Y-108365171D01*
X177695676Y-108365172D01*
X177881997Y-108383523D01*
X177882000Y-108383523D01*
X177882003Y-108383523D01*
X178068323Y-108365172D01*
X178068325Y-108365171D01*
X178068331Y-108365171D01*
X178096449Y-108356641D01*
X178247496Y-108310822D01*
X178247498Y-108310820D01*
X178247501Y-108310820D01*
X178412625Y-108222560D01*
X178557357Y-108103781D01*
X178676136Y-107959049D01*
X178764396Y-107793925D01*
X178818747Y-107614755D01*
X178819921Y-107602836D01*
X178837099Y-107428427D01*
X178837099Y-107428420D01*
X178818748Y-107242100D01*
X178818746Y-107242089D01*
X178764398Y-107062927D01*
X178764396Y-107062923D01*
X178734991Y-107007910D01*
X178676136Y-106897799D01*
X178557357Y-106753067D01*
X178412625Y-106634288D01*
X178408015Y-106631824D01*
X178247500Y-106546027D01*
X178247496Y-106546025D01*
X178068334Y-106491677D01*
X178068323Y-106491675D01*
X177882003Y-106473325D01*
X177881997Y-106473325D01*
X177695676Y-106491675D01*
X177695665Y-106491677D01*
X177516503Y-106546025D01*
X177516499Y-106546027D01*
X177351374Y-106634288D01*
X177206643Y-106753067D01*
X177087864Y-106897798D01*
X176999603Y-107062923D01*
X176999601Y-107062927D01*
X176945253Y-107242089D01*
X176945251Y-107242100D01*
X176926901Y-107428420D01*
X176926901Y-107428427D01*
X138134329Y-107428427D01*
X135594329Y-104888427D01*
X176926901Y-104888427D01*
X176945251Y-105074747D01*
X176945253Y-105074758D01*
X176999601Y-105253920D01*
X176999603Y-105253924D01*
X177043522Y-105336090D01*
X177087864Y-105419049D01*
X177206643Y-105563781D01*
X177351375Y-105682560D01*
X177516499Y-105770820D01*
X177516503Y-105770822D01*
X177695665Y-105825170D01*
X177695666Y-105825170D01*
X177695669Y-105825171D01*
X177695672Y-105825171D01*
X177695676Y-105825172D01*
X177881997Y-105843523D01*
X177882000Y-105843523D01*
X177882003Y-105843523D01*
X178068323Y-105825172D01*
X178068325Y-105825171D01*
X178068331Y-105825171D01*
X178096449Y-105816641D01*
X178247496Y-105770822D01*
X178247498Y-105770820D01*
X178247501Y-105770820D01*
X178412625Y-105682560D01*
X178557357Y-105563781D01*
X178676136Y-105419049D01*
X178764396Y-105253925D01*
X178775389Y-105217688D01*
X178810217Y-105102873D01*
X178818747Y-105074755D01*
X178818748Y-105074747D01*
X178837099Y-104888427D01*
X178837099Y-104888420D01*
X178818748Y-104702100D01*
X178818746Y-104702089D01*
X178764398Y-104522927D01*
X178764396Y-104522923D01*
X178724858Y-104448952D01*
X178676136Y-104357799D01*
X178557357Y-104213067D01*
X178412625Y-104094288D01*
X178352572Y-104062189D01*
X178247500Y-104006027D01*
X178247496Y-104006025D01*
X178068334Y-103951677D01*
X178068323Y-103951675D01*
X177882003Y-103933325D01*
X177881997Y-103933325D01*
X177695676Y-103951675D01*
X177695665Y-103951677D01*
X177516503Y-104006025D01*
X177516499Y-104006027D01*
X177351374Y-104094288D01*
X177206643Y-104213067D01*
X177087864Y-104357798D01*
X176999603Y-104522923D01*
X176999601Y-104522927D01*
X176945253Y-104702089D01*
X176945251Y-104702100D01*
X176926901Y-104888420D01*
X176926901Y-104888427D01*
X135594329Y-104888427D01*
X125957466Y-95251564D01*
X125923440Y-95189252D01*
X125928505Y-95118437D01*
X125930161Y-95114230D01*
X125930426Y-95113588D01*
X125930432Y-95113578D01*
X125990500Y-94915558D01*
X125993220Y-94887949D01*
X126010783Y-94709627D01*
X126010783Y-94709620D01*
X125995578Y-94555238D01*
X136489500Y-94555238D01*
X136489501Y-94555257D01*
X136504339Y-94701171D01*
X136562941Y-94887950D01*
X136599861Y-94954465D01*
X136657940Y-95059104D01*
X136658434Y-95059679D01*
X136785449Y-95207635D01*
X136940246Y-95327457D01*
X137115995Y-95413665D01*
X137305499Y-95462732D01*
X137473072Y-95471229D01*
X137501000Y-95472646D01*
X137501000Y-95472645D01*
X137501001Y-95472646D01*
X137694497Y-95443004D01*
X137878065Y-95375018D01*
X138044191Y-95271471D01*
X138044195Y-95271466D01*
X138044199Y-95271464D01*
X138111346Y-95207635D01*
X138186071Y-95136603D01*
X138297899Y-94975936D01*
X138375095Y-94796047D01*
X138414500Y-94604301D01*
X138414500Y-93441609D01*
X138399660Y-93295675D01*
X138341059Y-93108899D01*
X138246059Y-92937743D01*
X138118551Y-92789213D01*
X137963754Y-92669391D01*
X137963752Y-92669390D01*
X137963751Y-92669389D01*
X137788008Y-92583184D01*
X137788005Y-92583183D01*
X137598501Y-92534116D01*
X137598497Y-92534115D01*
X137598494Y-92534115D01*
X137402999Y-92524201D01*
X137209505Y-92553843D01*
X137209498Y-92553846D01*
X137025939Y-92621827D01*
X137025939Y-92621828D01*
X137025936Y-92621829D01*
X137025935Y-92621830D01*
X136971065Y-92656030D01*
X136859809Y-92725376D01*
X136859800Y-92725383D01*
X136717927Y-92860246D01*
X136606101Y-93020910D01*
X136528906Y-93200797D01*
X136528905Y-93200800D01*
X136528905Y-93200801D01*
X136516998Y-93258737D01*
X136489500Y-93392545D01*
X136489500Y-94555238D01*
X125995578Y-94555238D01*
X125990501Y-94503696D01*
X125990500Y-94503694D01*
X125990500Y-94503690D01*
X125930432Y-94305670D01*
X125832885Y-94123174D01*
X125701610Y-93963214D01*
X125541650Y-93831939D01*
X125541648Y-93831938D01*
X125541647Y-93831937D01*
X125359154Y-93734392D01*
X125161127Y-93674322D01*
X124955203Y-93654041D01*
X124955197Y-93654041D01*
X124749272Y-93674322D01*
X124551245Y-93734392D01*
X124368752Y-93831937D01*
X124208790Y-93963214D01*
X124077513Y-94123176D01*
X123979968Y-94305669D01*
X123919898Y-94503696D01*
X123899617Y-94709620D01*
X123899617Y-94709627D01*
X123470783Y-94709627D01*
X123470783Y-94709620D01*
X123450501Y-94503696D01*
X123450500Y-94503694D01*
X123450500Y-94503690D01*
X123390432Y-94305670D01*
X123292885Y-94123174D01*
X123161610Y-93963214D01*
X123001650Y-93831939D01*
X123001648Y-93831938D01*
X123001647Y-93831937D01*
X122819154Y-93734392D01*
X122621127Y-93674322D01*
X122415203Y-93654041D01*
X122415197Y-93654041D01*
X122209272Y-93674322D01*
X122011245Y-93734392D01*
X121828752Y-93831937D01*
X121668790Y-93963214D01*
X121537513Y-94123176D01*
X121439968Y-94305669D01*
X121379898Y-94503696D01*
X121359617Y-94709620D01*
X121359617Y-94709627D01*
X119959500Y-94709627D01*
X119959500Y-92169627D01*
X121359617Y-92169627D01*
X121379898Y-92375551D01*
X121439968Y-92573578D01*
X121491182Y-92669393D01*
X121537515Y-92756074D01*
X121668790Y-92916034D01*
X121828750Y-93047309D01*
X122011246Y-93144856D01*
X122209266Y-93204924D01*
X122209270Y-93204924D01*
X122209272Y-93204925D01*
X122415197Y-93225207D01*
X122415200Y-93225207D01*
X122415203Y-93225207D01*
X122621127Y-93204925D01*
X122621128Y-93204924D01*
X122621134Y-93204924D01*
X122819154Y-93144856D01*
X123001650Y-93047309D01*
X123161610Y-92916034D01*
X123292885Y-92756074D01*
X123390432Y-92573578D01*
X123450500Y-92375558D01*
X123470783Y-92169624D01*
X123466882Y-92130013D01*
X123450501Y-91963696D01*
X123450500Y-91963694D01*
X123450500Y-91963690D01*
X123390432Y-91765670D01*
X123292885Y-91583174D01*
X123161610Y-91423214D01*
X123001650Y-91291939D01*
X123001648Y-91291938D01*
X123001647Y-91291937D01*
X122819154Y-91194392D01*
X122621127Y-91134322D01*
X122415203Y-91114041D01*
X122415197Y-91114041D01*
X122209272Y-91134322D01*
X122011245Y-91194392D01*
X121828752Y-91291937D01*
X121668790Y-91423214D01*
X121537513Y-91583176D01*
X121439968Y-91765669D01*
X121379898Y-91963696D01*
X121359617Y-92169620D01*
X121359617Y-92169627D01*
X119959500Y-92169627D01*
X119959500Y-90611017D01*
X119979502Y-90542896D01*
X119996405Y-90521921D01*
X120239923Y-90278404D01*
X120302235Y-90244379D01*
X120329018Y-90241500D01*
X124018984Y-90241500D01*
X124087105Y-90261502D01*
X124108079Y-90278405D01*
X124592795Y-90763121D01*
X124626821Y-90825433D01*
X124629700Y-90852216D01*
X124629700Y-90993124D01*
X124609698Y-91061245D01*
X124556042Y-91107738D01*
X124503700Y-91119124D01*
X124300933Y-91119124D01*
X124270499Y-91121978D01*
X124270495Y-91121979D01*
X124142318Y-91166830D01*
X124142314Y-91166832D01*
X124033049Y-91247473D01*
X123952408Y-91356738D01*
X123952406Y-91356742D01*
X123907555Y-91484919D01*
X123907554Y-91484923D01*
X123904700Y-91515357D01*
X123904700Y-92823890D01*
X123907554Y-92854324D01*
X123907555Y-92854328D01*
X123952406Y-92982505D01*
X123952408Y-92982509D01*
X124033049Y-93091774D01*
X124142314Y-93172415D01*
X124142318Y-93172417D01*
X124223406Y-93200791D01*
X124270501Y-93217270D01*
X124300934Y-93220124D01*
X124300936Y-93220124D01*
X125609464Y-93220124D01*
X125609466Y-93220124D01*
X125639899Y-93217270D01*
X125768082Y-93172417D01*
X125796843Y-93151191D01*
X125877350Y-93091774D01*
X125957991Y-92982509D01*
X125957993Y-92982505D01*
X125974091Y-92936501D01*
X126002846Y-92854323D01*
X126005700Y-92823890D01*
X126005700Y-91515358D01*
X126002846Y-91484925D01*
X125981252Y-91423214D01*
X125957993Y-91356742D01*
X125957991Y-91356738D01*
X125877350Y-91247473D01*
X125768085Y-91166832D01*
X125768081Y-91166830D01*
X125639904Y-91121979D01*
X125639900Y-91121978D01*
X125609466Y-91119124D01*
X125406700Y-91119124D01*
X125338579Y-91099122D01*
X125292086Y-91045466D01*
X125280700Y-90993124D01*
X125280700Y-90804612D01*
X125284994Y-90771999D01*
X125287257Y-90763549D01*
X125287259Y-90763546D01*
X125288818Y-90745719D01*
X125292634Y-90724086D01*
X125297263Y-90706811D01*
X125297264Y-90706805D01*
X125295704Y-90688985D01*
X125295704Y-90667015D01*
X125295770Y-90666263D01*
X125297264Y-90649193D01*
X125292631Y-90631906D01*
X125288818Y-90610279D01*
X125287259Y-90592455D01*
X125279695Y-90576234D01*
X125272186Y-90555603D01*
X125267554Y-90538316D01*
X125257288Y-90523655D01*
X125246311Y-90504641D01*
X125238747Y-90488419D01*
X125150405Y-90400077D01*
X125150390Y-90400064D01*
X124448165Y-89697839D01*
X124444450Y-89693786D01*
X124418454Y-89662805D01*
X124418451Y-89662803D01*
X124383435Y-89642586D01*
X124378800Y-89639633D01*
X124345683Y-89616445D01*
X124340152Y-89613866D01*
X124324796Y-89607505D01*
X124319047Y-89605412D01*
X124295174Y-89601202D01*
X124279234Y-89598391D01*
X124273872Y-89597203D01*
X124234808Y-89586736D01*
X124234805Y-89586736D01*
X124223127Y-89587757D01*
X124194524Y-89590260D01*
X124189040Y-89590500D01*
X120158948Y-89590500D01*
X120153463Y-89590260D01*
X120124808Y-89587753D01*
X120113195Y-89586737D01*
X120113188Y-89586737D01*
X120074140Y-89597200D01*
X120068774Y-89598390D01*
X120028954Y-89605412D01*
X120023247Y-89607489D01*
X120007842Y-89613869D01*
X120002313Y-89616448D01*
X119969201Y-89639632D01*
X119964567Y-89642584D01*
X119929546Y-89662804D01*
X119929544Y-89662807D01*
X119903558Y-89693774D01*
X119899844Y-89697827D01*
X119415836Y-90181835D01*
X119411785Y-90185549D01*
X119380806Y-90211545D01*
X119380804Y-90211547D01*
X119360589Y-90246558D01*
X119357638Y-90251191D01*
X119334445Y-90284316D01*
X119331873Y-90289832D01*
X119325493Y-90305235D01*
X119323412Y-90310952D01*
X119316392Y-90350761D01*
X119315203Y-90356126D01*
X119304736Y-90395193D01*
X119307876Y-90431086D01*
X119308260Y-90435465D01*
X119308500Y-90440959D01*
X119308500Y-101920983D01*
X119288498Y-101989104D01*
X119271595Y-102010078D01*
X116755655Y-104526019D01*
X116693343Y-104560044D01*
X116666560Y-104562924D01*
X115341299Y-104562924D01*
X115273178Y-104542922D01*
X115230177Y-104496320D01*
X115178469Y-104399581D01*
X115156136Y-104357799D01*
X115037357Y-104213067D01*
X114892625Y-104094288D01*
X114832572Y-104062189D01*
X114727500Y-104006027D01*
X114727496Y-104006025D01*
X114548334Y-103951677D01*
X114548323Y-103951675D01*
X114362003Y-103933325D01*
X114361997Y-103933325D01*
X114175676Y-103951675D01*
X114175665Y-103951677D01*
X113996503Y-104006025D01*
X113996499Y-104006027D01*
X113831374Y-104094288D01*
X113686643Y-104213067D01*
X113567864Y-104357798D01*
X113479603Y-104522923D01*
X113479601Y-104522927D01*
X113425253Y-104702089D01*
X113425251Y-104702100D01*
X113406901Y-104888420D01*
X113406901Y-104888427D01*
X106036500Y-104888427D01*
X106036500Y-102348427D01*
X113406901Y-102348427D01*
X113425251Y-102534747D01*
X113425253Y-102534758D01*
X113479601Y-102713920D01*
X113479603Y-102713924D01*
X113539375Y-102825749D01*
X113567864Y-102879049D01*
X113686643Y-103023781D01*
X113831375Y-103142560D01*
X113952513Y-103207309D01*
X113996499Y-103230820D01*
X113996503Y-103230822D01*
X114175665Y-103285170D01*
X114175666Y-103285170D01*
X114175669Y-103285171D01*
X114175672Y-103285171D01*
X114175676Y-103285172D01*
X114361997Y-103303523D01*
X114362000Y-103303523D01*
X114362003Y-103303523D01*
X114548323Y-103285172D01*
X114548325Y-103285171D01*
X114548331Y-103285171D01*
X114600245Y-103269423D01*
X114727496Y-103230822D01*
X114727498Y-103230820D01*
X114727501Y-103230820D01*
X114892625Y-103142560D01*
X115037357Y-103023781D01*
X115156136Y-102879049D01*
X115244396Y-102713925D01*
X115255648Y-102676835D01*
X115298503Y-102535558D01*
X115298747Y-102534755D01*
X115310254Y-102417926D01*
X115317099Y-102348427D01*
X115317099Y-102348420D01*
X115298748Y-102162100D01*
X115298746Y-102162089D01*
X115244398Y-101982927D01*
X115244396Y-101982923D01*
X115213793Y-101925669D01*
X115156136Y-101817799D01*
X115037357Y-101673067D01*
X114892625Y-101554288D01*
X114854914Y-101534131D01*
X114727500Y-101466027D01*
X114727496Y-101466025D01*
X114548334Y-101411677D01*
X114548323Y-101411675D01*
X114362003Y-101393325D01*
X114361997Y-101393325D01*
X114175676Y-101411675D01*
X114175665Y-101411677D01*
X113996503Y-101466025D01*
X113996499Y-101466027D01*
X113831374Y-101554288D01*
X113686643Y-101673067D01*
X113567864Y-101817798D01*
X113479603Y-101982923D01*
X113479601Y-101982927D01*
X113425253Y-102162089D01*
X113425251Y-102162100D01*
X113406901Y-102348420D01*
X113406901Y-102348427D01*
X106036500Y-102348427D01*
X106036500Y-99808424D01*
X113099195Y-99808424D01*
X113118380Y-100027711D01*
X113175350Y-100240327D01*
X113175352Y-100240331D01*
X113268378Y-100439826D01*
X113310801Y-100500410D01*
X113877638Y-99933573D01*
X113902507Y-100018268D01*
X113980239Y-100139222D01*
X114088900Y-100233376D01*
X114219685Y-100293104D01*
X114234411Y-100295221D01*
X113670012Y-100859620D01*
X113670012Y-100859621D01*
X113730600Y-100902046D01*
X113930092Y-100995071D01*
X113930096Y-100995073D01*
X114142712Y-101052043D01*
X114362000Y-101071228D01*
X114581287Y-101052043D01*
X114793903Y-100995073D01*
X114793912Y-100995069D01*
X114993405Y-100902043D01*
X114993412Y-100902039D01*
X115053986Y-100859622D01*
X115053986Y-100859621D01*
X114489587Y-100295221D01*
X114504315Y-100293104D01*
X114635100Y-100233376D01*
X114743761Y-100139222D01*
X114821493Y-100018268D01*
X114846361Y-99933574D01*
X115413197Y-100500410D01*
X115413198Y-100500410D01*
X115455615Y-100439836D01*
X115455619Y-100439829D01*
X115548645Y-100240336D01*
X115548649Y-100240327D01*
X115605619Y-100027711D01*
X115624804Y-99808424D01*
X115605619Y-99589136D01*
X115548649Y-99376520D01*
X115548647Y-99376516D01*
X115455621Y-99177022D01*
X115413198Y-99116436D01*
X115413196Y-99116436D01*
X114846360Y-99683272D01*
X114821493Y-99598580D01*
X114743761Y-99477626D01*
X114635100Y-99383472D01*
X114504315Y-99323744D01*
X114489586Y-99321626D01*
X115053986Y-98757225D01*
X115053986Y-98757224D01*
X114993401Y-98714802D01*
X114993402Y-98714802D01*
X114793907Y-98621776D01*
X114793903Y-98621774D01*
X114581287Y-98564804D01*
X114362000Y-98545619D01*
X114142712Y-98564804D01*
X113930096Y-98621774D01*
X113930092Y-98621776D01*
X113730598Y-98714802D01*
X113670011Y-98757225D01*
X114234412Y-99321626D01*
X114219685Y-99323744D01*
X114088900Y-99383472D01*
X113980239Y-99477626D01*
X113902507Y-99598580D01*
X113877639Y-99683273D01*
X113310801Y-99116435D01*
X113268378Y-99177022D01*
X113175352Y-99376516D01*
X113175350Y-99376520D01*
X113118380Y-99589136D01*
X113099195Y-99808424D01*
X106036500Y-99808424D01*
X106036500Y-98038174D01*
X113411500Y-98038174D01*
X113412345Y-98042424D01*
X113423133Y-98096655D01*
X113467448Y-98162976D01*
X113533769Y-98207291D01*
X113592252Y-98218924D01*
X113592253Y-98218924D01*
X115131747Y-98218924D01*
X115131748Y-98218924D01*
X115190231Y-98207291D01*
X115256552Y-98162976D01*
X115300867Y-98096655D01*
X115311654Y-98042424D01*
X116226540Y-98042424D01*
X116246325Y-98230680D01*
X116304818Y-98410702D01*
X116304822Y-98410710D01*
X116399465Y-98574638D01*
X116399466Y-98574640D01*
X116526126Y-98715310D01*
X116679267Y-98826573D01*
X116679267Y-98826574D01*
X116726612Y-98847653D01*
X116852197Y-98903568D01*
X117037354Y-98942924D01*
X117226646Y-98942924D01*
X117411803Y-98903568D01*
X117584730Y-98826575D01*
X117584730Y-98826574D01*
X117584732Y-98826574D01*
X117584732Y-98826573D01*
X117737871Y-98715312D01*
X117766817Y-98683165D01*
X117864533Y-98574640D01*
X117864534Y-98574638D01*
X117870212Y-98564804D01*
X117959179Y-98410708D01*
X118017674Y-98230680D01*
X118037460Y-98042424D01*
X118017674Y-97854168D01*
X118015975Y-97848938D01*
X117959181Y-97674145D01*
X117959177Y-97674137D01*
X117947307Y-97653578D01*
X117908936Y-97587117D01*
X117864534Y-97510209D01*
X117864533Y-97510207D01*
X117737873Y-97369537D01*
X117584732Y-97258274D01*
X117584732Y-97258273D01*
X117459145Y-97202358D01*
X117411803Y-97181280D01*
X117411801Y-97181279D01*
X117411800Y-97181279D01*
X117226646Y-97141924D01*
X117037354Y-97141924D01*
X116852199Y-97181279D01*
X116679267Y-97258273D01*
X116679267Y-97258274D01*
X116526126Y-97369537D01*
X116399466Y-97510207D01*
X116399465Y-97510209D01*
X116304822Y-97674137D01*
X116304818Y-97674145D01*
X116246325Y-97854167D01*
X116226540Y-98042424D01*
X115311654Y-98042424D01*
X115312500Y-98038172D01*
X115312500Y-96498676D01*
X115300867Y-96440193D01*
X115256552Y-96373872D01*
X115190231Y-96329557D01*
X115190228Y-96329556D01*
X115131750Y-96317924D01*
X115131748Y-96317924D01*
X113592252Y-96317924D01*
X113592249Y-96317924D01*
X113533771Y-96329556D01*
X113533768Y-96329557D01*
X113467448Y-96373872D01*
X113423133Y-96440192D01*
X113423132Y-96440195D01*
X113411500Y-96498673D01*
X113411500Y-98038174D01*
X106036500Y-98038174D01*
X106036500Y-95502424D01*
X116226540Y-95502424D01*
X116246325Y-95690680D01*
X116304818Y-95870702D01*
X116304822Y-95870710D01*
X116399465Y-96034638D01*
X116399466Y-96034640D01*
X116526126Y-96175310D01*
X116679267Y-96286573D01*
X116679267Y-96286574D01*
X116692162Y-96292315D01*
X116852197Y-96363568D01*
X117037354Y-96402924D01*
X117226646Y-96402924D01*
X117411803Y-96363568D01*
X117584730Y-96286575D01*
X117584730Y-96286574D01*
X117584732Y-96286574D01*
X117584732Y-96286573D01*
X117737871Y-96175312D01*
X117864533Y-96034640D01*
X117959179Y-95870708D01*
X117964621Y-95853961D01*
X118017674Y-95690680D01*
X118019677Y-95671618D01*
X118037460Y-95502424D01*
X118019071Y-95327457D01*
X118017674Y-95314167D01*
X117959181Y-95134145D01*
X117959177Y-95134137D01*
X117947307Y-95113578D01*
X117874674Y-94987772D01*
X117864534Y-94970209D01*
X117864533Y-94970207D01*
X117737873Y-94829537D01*
X117584732Y-94718274D01*
X117584732Y-94718273D01*
X117459145Y-94662358D01*
X117411803Y-94641280D01*
X117411801Y-94641279D01*
X117411800Y-94641279D01*
X117226646Y-94601924D01*
X117037354Y-94601924D01*
X116852199Y-94641279D01*
X116679267Y-94718273D01*
X116679267Y-94718274D01*
X116526126Y-94829537D01*
X116399466Y-94970207D01*
X116399465Y-94970209D01*
X116304822Y-95134137D01*
X116304818Y-95134145D01*
X116246325Y-95314167D01*
X116226540Y-95502424D01*
X106036500Y-95502424D01*
X106036500Y-90378427D01*
X113656778Y-90378427D01*
X113675643Y-90666258D01*
X113675645Y-90666273D01*
X113731919Y-90949178D01*
X113731920Y-90949182D01*
X113746837Y-90993124D01*
X113824641Y-91222326D01*
X113824644Y-91222332D01*
X113952220Y-91481032D01*
X114112473Y-91720869D01*
X114112476Y-91720873D01*
X114302672Y-91937751D01*
X114440009Y-92058191D01*
X114519546Y-92127944D01*
X114519548Y-92127945D01*
X114519550Y-92127947D01*
X114519554Y-92127950D01*
X114677981Y-92233807D01*
X114759389Y-92288202D01*
X115018098Y-92415783D01*
X115291247Y-92508505D01*
X115506831Y-92551387D01*
X115574150Y-92564778D01*
X115574152Y-92564778D01*
X115574161Y-92564780D01*
X115738640Y-92575560D01*
X115861997Y-92583646D01*
X115862000Y-92583646D01*
X115862003Y-92583646D01*
X115969939Y-92576571D01*
X116149839Y-92564780D01*
X116432753Y-92508505D01*
X116705902Y-92415783D01*
X116964611Y-92288202D01*
X117204454Y-92127944D01*
X117421327Y-91937751D01*
X117611520Y-91720878D01*
X117771778Y-91481035D01*
X117899359Y-91222326D01*
X117992081Y-90949177D01*
X118048356Y-90666263D01*
X118063770Y-90431086D01*
X118067222Y-90378427D01*
X118067222Y-90378420D01*
X118050211Y-90118883D01*
X118048356Y-90090585D01*
X117992081Y-89807671D01*
X117899359Y-89534522D01*
X117836965Y-89408000D01*
X169161004Y-89408000D01*
X169180951Y-89636002D01*
X169240186Y-89857068D01*
X169240188Y-89857073D01*
X169336913Y-90064501D01*
X169386899Y-90135888D01*
X170075272Y-89447516D01*
X170088835Y-89533148D01*
X170146359Y-89646045D01*
X170235955Y-89735641D01*
X170348852Y-89793165D01*
X170434482Y-89806727D01*
X169746110Y-90495098D01*
X169746110Y-90495100D01*
X169817498Y-90545086D01*
X170024926Y-90641811D01*
X170024931Y-90641813D01*
X170245999Y-90701048D01*
X170245995Y-90701048D01*
X170474000Y-90720995D01*
X170702002Y-90701048D01*
X170923068Y-90641813D01*
X170923073Y-90641811D01*
X171130497Y-90545088D01*
X171201888Y-90495099D01*
X171201888Y-90495097D01*
X170513518Y-89806727D01*
X170599148Y-89793165D01*
X170712045Y-89735641D01*
X170801641Y-89646045D01*
X170859165Y-89533148D01*
X170872727Y-89447518D01*
X171561097Y-90135888D01*
X171561099Y-90135888D01*
X171611088Y-90064497D01*
X171707811Y-89857073D01*
X171707813Y-89857068D01*
X171761003Y-89658562D01*
X171797955Y-89597939D01*
X171861815Y-89566918D01*
X171932310Y-89575346D01*
X171987057Y-89620549D01*
X172003284Y-89654597D01*
X172045183Y-89792722D01*
X172045185Y-89792726D01*
X172092127Y-89880548D01*
X172138090Y-89966538D01*
X172263117Y-90118883D01*
X172415462Y-90243910D01*
X172589273Y-90336814D01*
X172777868Y-90394024D01*
X172777872Y-90394024D01*
X172777874Y-90394025D01*
X172973997Y-90413341D01*
X172974000Y-90413341D01*
X172974003Y-90413341D01*
X173170124Y-90394025D01*
X173170126Y-90394025D01*
X173170127Y-90394024D01*
X173170132Y-90394024D01*
X173221548Y-90378427D01*
X174856778Y-90378427D01*
X174875643Y-90666258D01*
X174875645Y-90666273D01*
X174931919Y-90949178D01*
X174931920Y-90949182D01*
X174946837Y-90993124D01*
X175024641Y-91222326D01*
X175024644Y-91222332D01*
X175152220Y-91481032D01*
X175312473Y-91720869D01*
X175312476Y-91720873D01*
X175502672Y-91937751D01*
X175640009Y-92058191D01*
X175719546Y-92127944D01*
X175719548Y-92127945D01*
X175719550Y-92127947D01*
X175719554Y-92127950D01*
X175877981Y-92233807D01*
X175959389Y-92288202D01*
X176218098Y-92415783D01*
X176491247Y-92508505D01*
X176706831Y-92551387D01*
X176774150Y-92564778D01*
X176774152Y-92564778D01*
X176774161Y-92564780D01*
X176938640Y-92575560D01*
X177061997Y-92583646D01*
X177062000Y-92583646D01*
X177062003Y-92583646D01*
X177169939Y-92576571D01*
X177349839Y-92564780D01*
X177632753Y-92508505D01*
X177905902Y-92415783D01*
X178164611Y-92288202D01*
X178404454Y-92127944D01*
X178621327Y-91937751D01*
X178811520Y-91720878D01*
X178971778Y-91481035D01*
X179099359Y-91222326D01*
X179192081Y-90949177D01*
X179248356Y-90666263D01*
X179263770Y-90431086D01*
X179267222Y-90378427D01*
X179267222Y-90378420D01*
X179250211Y-90118883D01*
X179248356Y-90090585D01*
X179192081Y-89807671D01*
X179099359Y-89534522D01*
X178971778Y-89275813D01*
X178869415Y-89122616D01*
X178811526Y-89035978D01*
X178811523Y-89035974D01*
X178811521Y-89035972D01*
X178811520Y-89035970D01*
X178677731Y-88883413D01*
X178621327Y-88819096D01*
X178462842Y-88680109D01*
X178404454Y-88628904D01*
X178404452Y-88628902D01*
X178404449Y-88628900D01*
X178404445Y-88628897D01*
X178164608Y-88468644D01*
X177905908Y-88341068D01*
X177905902Y-88341065D01*
X177813266Y-88309619D01*
X177632758Y-88248344D01*
X177632754Y-88248343D01*
X177349849Y-88192069D01*
X177349834Y-88192067D01*
X177062003Y-88173202D01*
X177061997Y-88173202D01*
X176774165Y-88192067D01*
X176774150Y-88192069D01*
X176491245Y-88248343D01*
X176491241Y-88248344D01*
X176222855Y-88339449D01*
X176218098Y-88341065D01*
X176218095Y-88341066D01*
X176218091Y-88341068D01*
X175959391Y-88468644D01*
X175719554Y-88628897D01*
X175719550Y-88628900D01*
X175502672Y-88819096D01*
X175312476Y-89035974D01*
X175312473Y-89035978D01*
X175152220Y-89275815D01*
X175024644Y-89534515D01*
X175024640Y-89534525D01*
X174931920Y-89807665D01*
X174931919Y-89807669D01*
X174875645Y-90090574D01*
X174875643Y-90090589D01*
X174856778Y-90378420D01*
X174856778Y-90378427D01*
X173221548Y-90378427D01*
X173358727Y-90336814D01*
X173532538Y-90243910D01*
X173684883Y-90118883D01*
X173809910Y-89966538D01*
X173902814Y-89792727D01*
X173960024Y-89604132D01*
X173960634Y-89597939D01*
X173979341Y-89408003D01*
X173979341Y-89407996D01*
X173960025Y-89211875D01*
X173960025Y-89211873D01*
X173960024Y-89211870D01*
X173960024Y-89211868D01*
X173902814Y-89023273D01*
X173809910Y-88849462D01*
X173684883Y-88697117D01*
X173532538Y-88572090D01*
X173471548Y-88539490D01*
X173358728Y-88479186D01*
X173170125Y-88421974D01*
X172974003Y-88402659D01*
X172973997Y-88402659D01*
X172777875Y-88421974D01*
X172777873Y-88421974D01*
X172589271Y-88479186D01*
X172415461Y-88572090D01*
X172263117Y-88697117D01*
X172138090Y-88849461D01*
X172045185Y-89023273D01*
X172045183Y-89023278D01*
X172003284Y-89161402D01*
X171964369Y-89220783D01*
X171899528Y-89249699D01*
X171829347Y-89238968D01*
X171776108Y-89191998D01*
X171761003Y-89157437D01*
X171707813Y-88958931D01*
X171707811Y-88958926D01*
X171611086Y-88751498D01*
X171561100Y-88680110D01*
X171561098Y-88680110D01*
X170872727Y-89368481D01*
X170859165Y-89282852D01*
X170801641Y-89169955D01*
X170712045Y-89080359D01*
X170599148Y-89022835D01*
X170513517Y-89009272D01*
X171201888Y-88320899D01*
X171201888Y-88320898D01*
X171130501Y-88270913D01*
X170923073Y-88174188D01*
X170923068Y-88174186D01*
X170702000Y-88114951D01*
X170702004Y-88114951D01*
X170474000Y-88095004D01*
X170245997Y-88114951D01*
X170024931Y-88174186D01*
X170024926Y-88174188D01*
X169817500Y-88270913D01*
X169746109Y-88320900D01*
X170434481Y-89009272D01*
X170348852Y-89022835D01*
X170235955Y-89080359D01*
X170146359Y-89169955D01*
X170088835Y-89282852D01*
X170075272Y-89368481D01*
X169386900Y-88680109D01*
X169336913Y-88751500D01*
X169240188Y-88958926D01*
X169240186Y-88958931D01*
X169180951Y-89179997D01*
X169161004Y-89408000D01*
X117836965Y-89408000D01*
X117771778Y-89275813D01*
X117669415Y-89122616D01*
X117611526Y-89035978D01*
X117611523Y-89035974D01*
X117611521Y-89035972D01*
X117611520Y-89035970D01*
X117477731Y-88883413D01*
X117421327Y-88819096D01*
X117262842Y-88680109D01*
X117204454Y-88628904D01*
X117204452Y-88628902D01*
X117204449Y-88628900D01*
X117204445Y-88628897D01*
X116964608Y-88468644D01*
X116705908Y-88341068D01*
X116705902Y-88341065D01*
X116613266Y-88309619D01*
X116432758Y-88248344D01*
X116432754Y-88248343D01*
X116149849Y-88192069D01*
X116149834Y-88192067D01*
X115862003Y-88173202D01*
X115861997Y-88173202D01*
X115574165Y-88192067D01*
X115574150Y-88192069D01*
X115291245Y-88248343D01*
X115291241Y-88248344D01*
X115022855Y-88339449D01*
X115018098Y-88341065D01*
X115018095Y-88341066D01*
X115018091Y-88341068D01*
X114759391Y-88468644D01*
X114519554Y-88628897D01*
X114519550Y-88628900D01*
X114302672Y-88819096D01*
X114112476Y-89035974D01*
X114112473Y-89035978D01*
X113952220Y-89275815D01*
X113824644Y-89534515D01*
X113824640Y-89534525D01*
X113731920Y-89807665D01*
X113731919Y-89807669D01*
X113675645Y-90090574D01*
X113675643Y-90090589D01*
X113656778Y-90378420D01*
X113656778Y-90378427D01*
X106036500Y-90378427D01*
X106036500Y-86377924D01*
X106056502Y-86309803D01*
X106110158Y-86263310D01*
X106162500Y-86251924D01*
X205909500Y-86251924D01*
X205977621Y-86271926D01*
G37*
%TD.AperFunction*%
%TA.AperFunction,Conductor*%
G36*
X199271105Y-101183502D02*
G01*
X199292079Y-101200405D01*
X199588038Y-101496364D01*
X199622064Y-101558676D01*
X199616999Y-101629491D01*
X199574452Y-101686327D01*
X199565274Y-101692586D01*
X199413437Y-101786600D01*
X199249017Y-101936488D01*
X199173755Y-102036152D01*
X199116741Y-102078460D01*
X199045905Y-102083227D01*
X198983736Y-102048940D01*
X198965773Y-102026055D01*
X198873102Y-101874831D01*
X198873101Y-101874831D01*
X198124360Y-102623572D01*
X198099493Y-102538880D01*
X198021761Y-102417926D01*
X197913100Y-102323772D01*
X197782315Y-102264044D01*
X197767587Y-102261926D01*
X198513891Y-101515621D01*
X198322514Y-101398345D01*
X198323334Y-101397006D01*
X198276758Y-101353015D01*
X198259694Y-101284100D01*
X198282597Y-101216899D01*
X198338196Y-101172748D01*
X198385578Y-101163500D01*
X199202984Y-101163500D01*
X199271105Y-101183502D01*
G37*
%TD.AperFunction*%
%TA.AperFunction,Conductor*%
G36*
X154416237Y-92748926D02*
G01*
X154462730Y-92802582D01*
X154472834Y-92872856D01*
X154451532Y-92926904D01*
X154386101Y-93020910D01*
X154308906Y-93200797D01*
X154308905Y-93200800D01*
X154308905Y-93200801D01*
X154296998Y-93258737D01*
X154269500Y-93392545D01*
X154269500Y-94555238D01*
X154269501Y-94555257D01*
X154284339Y-94701171D01*
X154342941Y-94887950D01*
X154379861Y-94954465D01*
X154437940Y-95059104D01*
X154438434Y-95059679D01*
X154565449Y-95207635D01*
X154720246Y-95327457D01*
X154835991Y-95384232D01*
X154888340Y-95432188D01*
X154906500Y-95497354D01*
X154906500Y-98516244D01*
X154886498Y-98584365D01*
X154832842Y-98630858D01*
X154817084Y-98636816D01*
X154809273Y-98639185D01*
X154809271Y-98639186D01*
X154635461Y-98732090D01*
X154483117Y-98857117D01*
X154358090Y-99009461D01*
X154265186Y-99183271D01*
X154207974Y-99371873D01*
X154207974Y-99371875D01*
X154188659Y-99567996D01*
X154188659Y-99568003D01*
X154207974Y-99764124D01*
X154207974Y-99764126D01*
X154265186Y-99952728D01*
X154294774Y-100008082D01*
X154358090Y-100126538D01*
X154483117Y-100278883D01*
X154635462Y-100403910D01*
X154809273Y-100496814D01*
X154997868Y-100554024D01*
X154997872Y-100554024D01*
X154997874Y-100554025D01*
X155193997Y-100573341D01*
X155194000Y-100573341D01*
X155194003Y-100573341D01*
X155390124Y-100554025D01*
X155390126Y-100554025D01*
X155390127Y-100554024D01*
X155390132Y-100554024D01*
X155578727Y-100496814D01*
X155752538Y-100403910D01*
X155904883Y-100278883D01*
X156029910Y-100126538D01*
X156122814Y-99952727D01*
X156180024Y-99764132D01*
X156196329Y-99598580D01*
X156199341Y-99568003D01*
X156199341Y-99567996D01*
X156180025Y-99371875D01*
X156180025Y-99371873D01*
X156180024Y-99371870D01*
X156180024Y-99371868D01*
X156122814Y-99183273D01*
X156115929Y-99170393D01*
X156087088Y-99116435D01*
X156029910Y-99009462D01*
X155904883Y-98857117D01*
X155752538Y-98732090D01*
X155721145Y-98715310D01*
X155624104Y-98663440D01*
X155573456Y-98613687D01*
X155557500Y-98552318D01*
X155557500Y-95499962D01*
X155577502Y-95431841D01*
X155631158Y-95385348D01*
X155639741Y-95381805D01*
X155658058Y-95375021D01*
X155658059Y-95375019D01*
X155658065Y-95375018D01*
X155824191Y-95271471D01*
X155824195Y-95271466D01*
X155824199Y-95271464D01*
X155891346Y-95207635D01*
X155966071Y-95136603D01*
X156077899Y-94975936D01*
X156155095Y-94796047D01*
X156194500Y-94604301D01*
X156194500Y-93441609D01*
X156179660Y-93295675D01*
X156121059Y-93108899D01*
X156026059Y-92937743D01*
X156025565Y-92937168D01*
X156025417Y-92936995D01*
X156025194Y-92936501D01*
X156022406Y-92932495D01*
X156023152Y-92931975D01*
X155996223Y-92872279D01*
X156006652Y-92802053D01*
X156053392Y-92748612D01*
X156121022Y-92728924D01*
X156888116Y-92728924D01*
X156956237Y-92748926D01*
X157002730Y-92802582D01*
X157012834Y-92872856D01*
X156991532Y-92926904D01*
X156926101Y-93020910D01*
X156848906Y-93200797D01*
X156848905Y-93200800D01*
X156848905Y-93200801D01*
X156836998Y-93258737D01*
X156809500Y-93392545D01*
X156809500Y-94555238D01*
X156809501Y-94555257D01*
X156824339Y-94701171D01*
X156882941Y-94887950D01*
X156919861Y-94954465D01*
X156977940Y-95059104D01*
X156978434Y-95059679D01*
X157105449Y-95207635D01*
X157260246Y-95327457D01*
X157375991Y-95384232D01*
X157428340Y-95432188D01*
X157446500Y-95497354D01*
X157446500Y-98516244D01*
X157426498Y-98584365D01*
X157372842Y-98630858D01*
X157357084Y-98636816D01*
X157349273Y-98639185D01*
X157349271Y-98639186D01*
X157175461Y-98732090D01*
X157023117Y-98857117D01*
X156898090Y-99009461D01*
X156805186Y-99183271D01*
X156747974Y-99371873D01*
X156747974Y-99371875D01*
X156728659Y-99567996D01*
X156728659Y-99568003D01*
X156747974Y-99764124D01*
X156747974Y-99764126D01*
X156805186Y-99952728D01*
X156834774Y-100008082D01*
X156898090Y-100126538D01*
X157023117Y-100278883D01*
X157175462Y-100403910D01*
X157349273Y-100496814D01*
X157537868Y-100554024D01*
X157537872Y-100554024D01*
X157537874Y-100554025D01*
X157733997Y-100573341D01*
X157734000Y-100573341D01*
X157734003Y-100573341D01*
X157930124Y-100554025D01*
X157930126Y-100554025D01*
X157930127Y-100554024D01*
X157930132Y-100554024D01*
X158118727Y-100496814D01*
X158292538Y-100403910D01*
X158444883Y-100278883D01*
X158569910Y-100126538D01*
X158662814Y-99952727D01*
X158720024Y-99764132D01*
X158736329Y-99598580D01*
X158739341Y-99568003D01*
X158739341Y-99567996D01*
X158720025Y-99371875D01*
X158720025Y-99371873D01*
X158720024Y-99371870D01*
X158720024Y-99371868D01*
X158662814Y-99183273D01*
X158655929Y-99170393D01*
X158627088Y-99116435D01*
X158569910Y-99009462D01*
X158444883Y-98857117D01*
X158292538Y-98732090D01*
X158261145Y-98715310D01*
X158164104Y-98663440D01*
X158113456Y-98613687D01*
X158097500Y-98552318D01*
X158097500Y-95499962D01*
X158117502Y-95431841D01*
X158171158Y-95385348D01*
X158179741Y-95381805D01*
X158198058Y-95375021D01*
X158198059Y-95375019D01*
X158198065Y-95375018D01*
X158364191Y-95271471D01*
X158364195Y-95271466D01*
X158364199Y-95271464D01*
X158431346Y-95207635D01*
X158506071Y-95136603D01*
X158617899Y-94975936D01*
X158695095Y-94796047D01*
X158734500Y-94604301D01*
X158734500Y-93441609D01*
X158719660Y-93295675D01*
X158661059Y-93108899D01*
X158566059Y-92937743D01*
X158565565Y-92937168D01*
X158565417Y-92936995D01*
X158565194Y-92936501D01*
X158562406Y-92932495D01*
X158563152Y-92931975D01*
X158536223Y-92872279D01*
X158546652Y-92802053D01*
X158593392Y-92748612D01*
X158661022Y-92728924D01*
X159428116Y-92728924D01*
X159496237Y-92748926D01*
X159542730Y-92802582D01*
X159552834Y-92872856D01*
X159531532Y-92926904D01*
X159466101Y-93020910D01*
X159388906Y-93200797D01*
X159388905Y-93200800D01*
X159388905Y-93200801D01*
X159376998Y-93258737D01*
X159349500Y-93392545D01*
X159349500Y-94555238D01*
X159349501Y-94555257D01*
X159364339Y-94701171D01*
X159422941Y-94887950D01*
X159459861Y-94954465D01*
X159517940Y-95059104D01*
X159518434Y-95059679D01*
X159645449Y-95207635D01*
X159800246Y-95327457D01*
X159915991Y-95384232D01*
X159968340Y-95432188D01*
X159986500Y-95497354D01*
X159986500Y-98516244D01*
X159966498Y-98584365D01*
X159912842Y-98630858D01*
X159897084Y-98636816D01*
X159889273Y-98639185D01*
X159889271Y-98639186D01*
X159715461Y-98732090D01*
X159563117Y-98857117D01*
X159438090Y-99009461D01*
X159345186Y-99183271D01*
X159287974Y-99371873D01*
X159287974Y-99371875D01*
X159268659Y-99567996D01*
X159268659Y-99568003D01*
X159287974Y-99764124D01*
X159287974Y-99764126D01*
X159345186Y-99952728D01*
X159374774Y-100008082D01*
X159438090Y-100126538D01*
X159563117Y-100278883D01*
X159715462Y-100403910D01*
X159889273Y-100496814D01*
X160077868Y-100554024D01*
X160077872Y-100554024D01*
X160077874Y-100554025D01*
X160273997Y-100573341D01*
X160274000Y-100573341D01*
X160274003Y-100573341D01*
X160470124Y-100554025D01*
X160470126Y-100554025D01*
X160470127Y-100554024D01*
X160470132Y-100554024D01*
X160658727Y-100496814D01*
X160832538Y-100403910D01*
X160852229Y-100387750D01*
X161813500Y-100387750D01*
X161823859Y-100439829D01*
X161825133Y-100446231D01*
X161869448Y-100512552D01*
X161935769Y-100556867D01*
X161994252Y-100568500D01*
X161994253Y-100568500D01*
X163633747Y-100568500D01*
X163633748Y-100568500D01*
X163692231Y-100556867D01*
X163758552Y-100512552D01*
X163802867Y-100446231D01*
X163814500Y-100387748D01*
X163814500Y-98748252D01*
X163802867Y-98689769D01*
X163758552Y-98623448D01*
X163692231Y-98579133D01*
X163692228Y-98579132D01*
X163633750Y-98567500D01*
X163633748Y-98567500D01*
X161994252Y-98567500D01*
X161994249Y-98567500D01*
X161935771Y-98579132D01*
X161935768Y-98579133D01*
X161869448Y-98623448D01*
X161825133Y-98689768D01*
X161825132Y-98689771D01*
X161813500Y-98748249D01*
X161813500Y-100387750D01*
X160852229Y-100387750D01*
X160984883Y-100278883D01*
X161109910Y-100126538D01*
X161202814Y-99952727D01*
X161260024Y-99764132D01*
X161276329Y-99598580D01*
X161279341Y-99568003D01*
X161279341Y-99567996D01*
X161260025Y-99371875D01*
X161260025Y-99371873D01*
X161260024Y-99371870D01*
X161260024Y-99371868D01*
X161202814Y-99183273D01*
X161195929Y-99170393D01*
X161167088Y-99116435D01*
X161109910Y-99009462D01*
X160984883Y-98857117D01*
X160832538Y-98732090D01*
X160801145Y-98715310D01*
X160704104Y-98663440D01*
X160653456Y-98613687D01*
X160637500Y-98552318D01*
X160637500Y-95499962D01*
X160657502Y-95431841D01*
X160711158Y-95385348D01*
X160719741Y-95381805D01*
X160738058Y-95375021D01*
X160738059Y-95375019D01*
X160738065Y-95375018D01*
X160904191Y-95271471D01*
X160904195Y-95271466D01*
X160904199Y-95271464D01*
X160971346Y-95207635D01*
X161046071Y-95136603D01*
X161157899Y-94975936D01*
X161235095Y-94796047D01*
X161274500Y-94604301D01*
X161274500Y-93441609D01*
X161259660Y-93295675D01*
X161201059Y-93108899D01*
X161106059Y-92937743D01*
X161105565Y-92937168D01*
X161105417Y-92936995D01*
X161105194Y-92936501D01*
X161102406Y-92932495D01*
X161103152Y-92931975D01*
X161076223Y-92872279D01*
X161086652Y-92802053D01*
X161133392Y-92748612D01*
X161201022Y-92728924D01*
X161968116Y-92728924D01*
X162036237Y-92748926D01*
X162082730Y-92802582D01*
X162092834Y-92872856D01*
X162071532Y-92926904D01*
X162006101Y-93020910D01*
X161928906Y-93200797D01*
X161928905Y-93200800D01*
X161928905Y-93200801D01*
X161916998Y-93258737D01*
X161889500Y-93392545D01*
X161889500Y-94555238D01*
X161889501Y-94555257D01*
X161904339Y-94701171D01*
X161962941Y-94887950D01*
X161999861Y-94954465D01*
X162057940Y-95059104D01*
X162058434Y-95059679D01*
X162185449Y-95207635D01*
X162340246Y-95327457D01*
X162515995Y-95413665D01*
X162705499Y-95462732D01*
X162873072Y-95471229D01*
X162901000Y-95472646D01*
X162901000Y-95472645D01*
X162901001Y-95472646D01*
X163094497Y-95443004D01*
X163278065Y-95375018D01*
X163444191Y-95271471D01*
X163444195Y-95271466D01*
X163444199Y-95271464D01*
X163511346Y-95207635D01*
X163586071Y-95136603D01*
X163697899Y-94975936D01*
X163775095Y-94796047D01*
X163814500Y-94604301D01*
X163814500Y-93441609D01*
X163799660Y-93295675D01*
X163741059Y-93108899D01*
X163646059Y-92937743D01*
X163645565Y-92937168D01*
X163645417Y-92936995D01*
X163645194Y-92936501D01*
X163642406Y-92932495D01*
X163643152Y-92931975D01*
X163616223Y-92872279D01*
X163626652Y-92802053D01*
X163673392Y-92748612D01*
X163741022Y-92728924D01*
X164508116Y-92728924D01*
X164576237Y-92748926D01*
X164622730Y-92802582D01*
X164632834Y-92872856D01*
X164611532Y-92926904D01*
X164546101Y-93020910D01*
X164468906Y-93200797D01*
X164468905Y-93200800D01*
X164468905Y-93200801D01*
X164456998Y-93258737D01*
X164429500Y-93392545D01*
X164429500Y-94555238D01*
X164429501Y-94555257D01*
X164444339Y-94701171D01*
X164502941Y-94887950D01*
X164539861Y-94954465D01*
X164597940Y-95059104D01*
X164598434Y-95059679D01*
X164725449Y-95207635D01*
X164880246Y-95327457D01*
X165055995Y-95413665D01*
X165245499Y-95462732D01*
X165413072Y-95471229D01*
X165441000Y-95472646D01*
X165441000Y-95472645D01*
X165441001Y-95472646D01*
X165634497Y-95443004D01*
X165818065Y-95375018D01*
X165984191Y-95271471D01*
X165984195Y-95271466D01*
X165984199Y-95271464D01*
X166051346Y-95207635D01*
X166126071Y-95136603D01*
X166237899Y-94975936D01*
X166315095Y-94796047D01*
X166354500Y-94604301D01*
X166354500Y-93441609D01*
X166339660Y-93295675D01*
X166281059Y-93108899D01*
X166186059Y-92937743D01*
X166185565Y-92937168D01*
X166185417Y-92936995D01*
X166185194Y-92936501D01*
X166182406Y-92932495D01*
X166183152Y-92931975D01*
X166156223Y-92872279D01*
X166166652Y-92802053D01*
X166213392Y-92748612D01*
X166281022Y-92728924D01*
X167048116Y-92728924D01*
X167116237Y-92748926D01*
X167162730Y-92802582D01*
X167172834Y-92872856D01*
X167151532Y-92926904D01*
X167086101Y-93020910D01*
X167008906Y-93200797D01*
X167008905Y-93200800D01*
X167008905Y-93200801D01*
X166996998Y-93258737D01*
X166969500Y-93392545D01*
X166969500Y-94555238D01*
X166969501Y-94555257D01*
X166984339Y-94701171D01*
X167042941Y-94887950D01*
X167079861Y-94954465D01*
X167137940Y-95059104D01*
X167138434Y-95059679D01*
X167265449Y-95207635D01*
X167420246Y-95327457D01*
X167595995Y-95413665D01*
X167785499Y-95462732D01*
X167953072Y-95471229D01*
X167981000Y-95472646D01*
X167981000Y-95472645D01*
X167981001Y-95472646D01*
X168174497Y-95443004D01*
X168358065Y-95375018D01*
X168524191Y-95271471D01*
X168524195Y-95271466D01*
X168524199Y-95271464D01*
X168591346Y-95207635D01*
X168666071Y-95136603D01*
X168777899Y-94975936D01*
X168855095Y-94796047D01*
X168894500Y-94604301D01*
X168894500Y-93441609D01*
X168879660Y-93295675D01*
X168821059Y-93108899D01*
X168726059Y-92937743D01*
X168725565Y-92937168D01*
X168725417Y-92936995D01*
X168725194Y-92936501D01*
X168722406Y-92932495D01*
X168723152Y-92931975D01*
X168696223Y-92872279D01*
X168706652Y-92802053D01*
X168753392Y-92748612D01*
X168821022Y-92728924D01*
X169225505Y-92728924D01*
X169293626Y-92748926D01*
X169340119Y-92802582D01*
X169350223Y-92872856D01*
X169333670Y-92919549D01*
X169323147Y-92937161D01*
X169323143Y-92937168D01*
X169242818Y-93151190D01*
X169242818Y-93151191D01*
X169202000Y-93376117D01*
X169202000Y-93744424D01*
X170187966Y-93744424D01*
X170148629Y-93787155D01*
X170097552Y-93903601D01*
X170087051Y-94030322D01*
X170118266Y-94153586D01*
X170182840Y-94252424D01*
X169202000Y-94252424D01*
X169202000Y-94563452D01*
X169217358Y-94734108D01*
X169217359Y-94734110D01*
X169278173Y-94954465D01*
X169278178Y-94954479D01*
X169377360Y-95160432D01*
X169377364Y-95160439D01*
X169511734Y-95345383D01*
X169511735Y-95345384D01*
X169676968Y-95503363D01*
X169867749Y-95629297D01*
X169867761Y-95629303D01*
X170077961Y-95719147D01*
X170077963Y-95719148D01*
X170218000Y-95751110D01*
X170218000Y-94283531D01*
X170288157Y-94338137D01*
X170408422Y-94379424D01*
X170503569Y-94379424D01*
X170597421Y-94363763D01*
X170709251Y-94303244D01*
X170726000Y-94285049D01*
X170726000Y-95753615D01*
X170755747Y-95749586D01*
X170973164Y-95678941D01*
X171174464Y-95570617D01*
X171174465Y-95570617D01*
X171353193Y-95428087D01*
X171503603Y-95255929D01*
X171620851Y-95059690D01*
X171620856Y-95059679D01*
X171701181Y-94845657D01*
X171701181Y-94845656D01*
X171742000Y-94620730D01*
X171742000Y-94252424D01*
X170756034Y-94252424D01*
X170795371Y-94209693D01*
X170846448Y-94093247D01*
X170856949Y-93966526D01*
X170825734Y-93843262D01*
X170761160Y-93744424D01*
X171742000Y-93744424D01*
X171742000Y-93433398D01*
X171741999Y-93433395D01*
X171726641Y-93262739D01*
X171726640Y-93262737D01*
X171665826Y-93042382D01*
X171665821Y-93042368D01*
X171601880Y-92909593D01*
X171590345Y-92839540D01*
X171618514Y-92774371D01*
X171677445Y-92734777D01*
X171715402Y-92728924D01*
X172128116Y-92728924D01*
X172196237Y-92748926D01*
X172242730Y-92802582D01*
X172252834Y-92872856D01*
X172231532Y-92926904D01*
X172166101Y-93020910D01*
X172088906Y-93200797D01*
X172088905Y-93200800D01*
X172088905Y-93200801D01*
X172076998Y-93258737D01*
X172049500Y-93392545D01*
X172049500Y-94555238D01*
X172049501Y-94555257D01*
X172064339Y-94701171D01*
X172122941Y-94887950D01*
X172159861Y-94954465D01*
X172217940Y-95059104D01*
X172218434Y-95059679D01*
X172345449Y-95207635D01*
X172500246Y-95327457D01*
X172675995Y-95413665D01*
X172865499Y-95462732D01*
X173033072Y-95471229D01*
X173061000Y-95472646D01*
X173061000Y-95472645D01*
X173061001Y-95472646D01*
X173254497Y-95443004D01*
X173438065Y-95375018D01*
X173604191Y-95271471D01*
X173604195Y-95271466D01*
X173604199Y-95271464D01*
X173671346Y-95207635D01*
X173746071Y-95136603D01*
X173857899Y-94975936D01*
X173935095Y-94796047D01*
X173974500Y-94604301D01*
X173974500Y-93441609D01*
X173959660Y-93295675D01*
X173901059Y-93108899D01*
X173806059Y-92937743D01*
X173805565Y-92937168D01*
X173805417Y-92936995D01*
X173805194Y-92936501D01*
X173802406Y-92932495D01*
X173803152Y-92931975D01*
X173776223Y-92872279D01*
X173786652Y-92802053D01*
X173833392Y-92748612D01*
X173901022Y-92728924D01*
X174310984Y-92728924D01*
X174379105Y-92748926D01*
X174400079Y-92765829D01*
X177270844Y-95636594D01*
X177274548Y-95640636D01*
X177300545Y-95671618D01*
X177323472Y-95684855D01*
X177335558Y-95691833D01*
X177340193Y-95694785D01*
X177364621Y-95711890D01*
X177373316Y-95717978D01*
X177378870Y-95720568D01*
X177394181Y-95726909D01*
X177399949Y-95729009D01*
X177399955Y-95729012D01*
X177439782Y-95736034D01*
X177445114Y-95737216D01*
X177484193Y-95747688D01*
X177524474Y-95744163D01*
X177529960Y-95743924D01*
X181866314Y-95743924D01*
X181934435Y-95763926D01*
X181980928Y-95817582D01*
X181987504Y-95835441D01*
X181992770Y-95853949D01*
X181992774Y-95853961D01*
X182091938Y-96053108D01*
X182091942Y-96053113D01*
X182226017Y-96230659D01*
X182390438Y-96380548D01*
X182390439Y-96380549D01*
X182579587Y-96497664D01*
X182579590Y-96497665D01*
X182579599Y-96497671D01*
X182728019Y-96555169D01*
X182784311Y-96598427D01*
X182808282Y-96665254D01*
X182808500Y-96672659D01*
X182808500Y-97262007D01*
X182788498Y-97330128D01*
X182741896Y-97373129D01*
X182575461Y-97462090D01*
X182423117Y-97587117D01*
X182298090Y-97739461D01*
X182205186Y-97913271D01*
X182147974Y-98101873D01*
X182147974Y-98101875D01*
X182128659Y-98297996D01*
X182128659Y-98298003D01*
X182147974Y-98494124D01*
X182147974Y-98494126D01*
X182205186Y-98682728D01*
X182298090Y-98856538D01*
X182380181Y-98956566D01*
X182407935Y-99021914D01*
X182395953Y-99091892D01*
X182348041Y-99144284D01*
X182282782Y-99162500D01*
X173193775Y-99162500D01*
X173188283Y-99162260D01*
X173148005Y-99158737D01*
X173148002Y-99158737D01*
X173108957Y-99169199D01*
X173103592Y-99170389D01*
X173063764Y-99177412D01*
X173058047Y-99179493D01*
X173042652Y-99185869D01*
X173037126Y-99188446D01*
X173004007Y-99211636D01*
X172999371Y-99214590D01*
X172964358Y-99234805D01*
X172964356Y-99234807D01*
X172938365Y-99265780D01*
X172934650Y-99269833D01*
X170792889Y-101411596D01*
X170730579Y-101445620D01*
X170703796Y-101448500D01*
X155047016Y-101448500D01*
X154978895Y-101428498D01*
X154957921Y-101411595D01*
X153616720Y-100070394D01*
X153582694Y-100008082D01*
X153585240Y-99944726D01*
X153640024Y-99764132D01*
X153656329Y-99598580D01*
X153659341Y-99568003D01*
X153659341Y-99567996D01*
X153640025Y-99371875D01*
X153640025Y-99371873D01*
X153640024Y-99371870D01*
X153640024Y-99371868D01*
X153582814Y-99183273D01*
X153575929Y-99170393D01*
X153547088Y-99116435D01*
X153489910Y-99009462D01*
X153364883Y-98857117D01*
X153212538Y-98732090D01*
X153181145Y-98715310D01*
X153084104Y-98663440D01*
X153033456Y-98613687D01*
X153017500Y-98552318D01*
X153017500Y-95499962D01*
X153037502Y-95431841D01*
X153091158Y-95385348D01*
X153099741Y-95381805D01*
X153118058Y-95375021D01*
X153118059Y-95375019D01*
X153118065Y-95375018D01*
X153284191Y-95271471D01*
X153284195Y-95271466D01*
X153284199Y-95271464D01*
X153351346Y-95207635D01*
X153426071Y-95136603D01*
X153537899Y-94975936D01*
X153615095Y-94796047D01*
X153654500Y-94604301D01*
X153654500Y-93441609D01*
X153639660Y-93295675D01*
X153581059Y-93108899D01*
X153486059Y-92937743D01*
X153485565Y-92937168D01*
X153485417Y-92936995D01*
X153485194Y-92936501D01*
X153482406Y-92932495D01*
X153483152Y-92931975D01*
X153456223Y-92872279D01*
X153466652Y-92802053D01*
X153513392Y-92748612D01*
X153581022Y-92728924D01*
X154348116Y-92728924D01*
X154416237Y-92748926D01*
G37*
%TD.AperFunction*%
%TD*%
M02*
