M48
INCH
T1C0.0157
T2C0.0300
T3C0.0315
T4C0.0394
T5C0.0433
T6C0.0591
T7C0.1378
%
G90
G05
T1
X4.38Y-3.9
X4.38Y-4.84
X4.58Y-4.39
X4.59Y-4.63
X4.84Y-4.6
X5.01Y-3.77
X5.14Y-3.73
X5.3Y-4.65
X5.3Y-4.73
X5.35Y-3.73
T2
X5.4115Y-3.7007
X5.4115Y-4.7007
X5.5115Y-3.7007
X5.5115Y-4.7007
X5.6115Y-3.7007
X5.6115Y-4.7007
X5.7115Y-3.7007
X5.7115Y-4.7007
X5.8115Y-3.7007
X5.8115Y-4.7007
X5.9115Y-3.7007
X5.9115Y-4.7007
X6.0115Y-3.7007
X6.0115Y-4.7007
X6.1115Y-3.7007
X6.1115Y-4.7007
X6.2115Y-3.7007
X6.2115Y-4.7007
X6.3115Y-3.7007
X6.3115Y-4.7007
X6.4115Y-3.7007
X6.4115Y-4.7007
X6.5115Y-3.7007
X6.5115Y-4.7007
X6.6115Y-3.7007
X6.6115Y-4.7007
X6.7115Y-3.7007
X6.7115Y-4.7007
X6.8115Y-3.7007
X6.8115Y-4.7007
T3
X4.6115Y-3.7599
X4.6115Y-3.8599
X5.51Y-3.92
X5.61Y-3.92
X5.71Y-3.92
X5.81Y-3.92
X5.91Y-3.92
X6.01Y-3.92
X6.11Y-3.92
X6.21Y-3.92
X6.31Y-3.92
X6.41Y-3.92
X6.7116Y-3.52
X6.7116Y-4.87
X6.81Y-3.52
X6.81Y-4.87
X7.21Y-3.87
X7.21Y-4.44
X7.2108Y-5.0
X7.3084Y-3.87
X7.3084Y-4.44
X7.3092Y-5.0
X7.5308Y-4.18
X7.5308Y-5.0
X7.6292Y-4.18
X7.6292Y-5.0
X7.7308Y-4.18
X7.7308Y-5.0
X7.8292Y-4.18
X7.8292Y-5.0
X7.9308Y-4.18
X7.9308Y-5.0
X8.0292Y-4.18
X8.0292Y-5.0
T4
X4.5024Y-3.8295
X4.5024Y-3.9295
X4.5024Y-4.0295
X4.5024Y-4.1295
X4.5024Y-4.2295
X4.5024Y-4.3295
X4.5024Y-4.4295
X4.5024Y-4.5295
X4.5024Y-4.6295
X4.8195Y-3.6287
X4.8195Y-3.7287
X4.8195Y-3.8287
X4.8195Y-3.9287
X4.8195Y-4.0287
X4.9195Y-3.6287
X4.9195Y-3.7287
X4.9195Y-3.8287
X4.9195Y-3.9287
X4.9195Y-4.0287
X7.0032Y-4.0295
X7.0032Y-4.1295
X7.0032Y-4.2295
X7.0032Y-4.3295
X7.0032Y-4.4295
X7.6827Y-3.4744
X7.6827Y-4.0452
X7.6827Y-4.3007
X7.6827Y-4.8716
X7.7811Y-4.0452
X7.7811Y-4.8716
X7.8795Y-3.4744
X7.8795Y-4.0452
X7.8795Y-4.3007
X7.8795Y-4.8716
T5
X7.2093Y-3.5007
X7.2093Y-3.7566
X7.2093Y-4.0657
X7.2093Y-4.3216
X7.2093Y-4.6307
X7.2093Y-4.8866
X7.3865Y-3.5007
X7.3865Y-3.7566
X7.3865Y-4.0657
X7.3865Y-4.3216
X7.3865Y-4.6307
X7.3865Y-4.8866
T7
X4.5615Y-3.5582
X4.5615Y-4.9007
X6.9709Y-3.5582
X6.9709Y-4.9007
T6
G00X7.5606Y-3.7755
M15
G01X7.5606Y-3.7244
M16
G05
G00X7.5606Y-4.6019
M15
G01X7.5606Y-4.5507
M16
G05
G00X8.0016Y-3.7755
M15
G01X8.0016Y-3.7244
M16
G05
G00X8.0016Y-4.6019
M15
G01X8.0016Y-4.5507
M16
G05
T0
M30
