%TF.GenerationSoftware,KiCad,Pcbnew,7.0.9*%
%TF.CreationDate,2024-03-08T21:06:40+01:00*%
%TF.ProjectId,SI4684 controller,53493436-3834-4206-936f-6e74726f6c6c,rev?*%
%TF.SameCoordinates,Original*%
%TF.FileFunction,Soldermask,Top*%
%TF.FilePolarity,Negative*%
%FSLAX46Y46*%
G04 Gerber Fmt 4.6, Leading zero omitted, Abs format (unit mm)*
G04 Created by KiCad (PCBNEW 7.0.9) date 2024-03-08 21:06:40*
%MOMM*%
%LPD*%
G01*
G04 APERTURE LIST*
G04 Aperture macros list*
%AMRoundRect*
0 Rectangle with rounded corners*
0 $1 Rounding radius*
0 $2 $3 $4 $5 $6 $7 $8 $9 X,Y pos of 4 corners*
0 Add a 4 corners polygon primitive as box body*
4,1,4,$2,$3,$4,$5,$6,$7,$8,$9,$2,$3,0*
0 Add four circle primitives for the rounded corners*
1,1,$1+$1,$2,$3*
1,1,$1+$1,$4,$5*
1,1,$1+$1,$6,$7*
1,1,$1+$1,$8,$9*
0 Add four rect primitives between the rounded corners*
20,1,$1+$1,$2,$3,$4,$5,0*
20,1,$1+$1,$4,$5,$6,$7,0*
20,1,$1+$1,$6,$7,$8,$9,0*
20,1,$1+$1,$8,$9,$2,$3,0*%
G04 Aperture macros list end*
%ADD10C,4.000000*%
%ADD11R,1.500000X1.500000*%
%ADD12C,1.500000*%
%ADD13R,2.000000X2.000000*%
%ADD14C,2.000000*%
%ADD15R,2.000000X3.200000*%
%ADD16RoundRect,0.250000X0.600000X0.600000X-0.600000X0.600000X-0.600000X-0.600000X0.600000X-0.600000X0*%
%ADD17C,1.700000*%
%ADD18C,1.400000*%
%ADD19O,1.524000X2.540000*%
%ADD20C,1.600000*%
%ADD21R,1.600000X1.600000*%
%ADD22O,1.600000X1.600000*%
G04 APERTURE END LIST*
D10*
%TO.C,U1*%
X115862000Y-90378424D03*
X115862000Y-124478424D03*
X177062000Y-90378424D03*
X177062000Y-124478424D03*
D11*
X114362000Y-97268424D03*
D12*
X114362000Y-99808424D03*
X114362000Y-102348424D03*
X114362000Y-104888424D03*
X114362000Y-107428424D03*
X114362000Y-109968424D03*
X114362000Y-112508424D03*
X114362000Y-115048424D03*
X114362000Y-117588424D03*
X177882000Y-102348424D03*
X177882000Y-104888424D03*
X177882000Y-107428424D03*
X177882000Y-109968424D03*
X177882000Y-112508424D03*
%TD*%
D13*
%TO.C,SW1*%
X195140000Y-102748724D03*
D14*
X200140000Y-102748724D03*
X197640000Y-102748724D03*
D15*
X192040000Y-95248724D03*
X203240000Y-95248724D03*
D14*
X200140000Y-88248724D03*
X195140000Y-88248724D03*
%TD*%
%TO.C,SW3*%
X187617000Y-103269424D03*
X187617000Y-109769424D03*
X183117000Y-103269424D03*
X183117000Y-109769424D03*
%TD*%
%TO.C,SW2*%
X187617000Y-117620424D03*
X187617000Y-124120424D03*
X183117000Y-117620424D03*
X183117000Y-124120424D03*
%TD*%
%TO.C,SW4*%
X187617000Y-88918424D03*
X187617000Y-95418424D03*
X183117000Y-88918424D03*
X183117000Y-95418424D03*
%TD*%
D13*
%TO.C,SW5*%
X195140000Y-123738424D03*
D14*
X200140000Y-123738424D03*
X197640000Y-123738424D03*
D15*
X192040000Y-116238424D03*
X203240000Y-116238424D03*
D14*
X200140000Y-109238424D03*
X195140000Y-109238424D03*
%TD*%
D16*
%TO.C,J1*%
X124955200Y-92169624D03*
D17*
X122415200Y-92169624D03*
X124955200Y-94709624D03*
X122415200Y-94709624D03*
X124955200Y-97249624D03*
X122415200Y-97249624D03*
X124955200Y-99789624D03*
X122415200Y-99789624D03*
X124955200Y-102329624D03*
X122415200Y-102329624D03*
%TD*%
D18*
%TO.C,JP1*%
X117132000Y-98042424D03*
X117132000Y-95502424D03*
%TD*%
D19*
%TO.C,M1*%
X173012000Y-119398424D03*
X170472000Y-119398424D03*
X167932000Y-119398424D03*
X165392000Y-119398424D03*
X162852000Y-119398424D03*
X160312000Y-119398424D03*
X157772000Y-119398424D03*
X155232000Y-119398424D03*
X152692000Y-119398424D03*
X150152000Y-119398424D03*
X147612000Y-119398424D03*
X145072000Y-119398424D03*
X142532000Y-119398424D03*
X139992000Y-119398424D03*
X137452000Y-119398424D03*
X137452000Y-93998424D03*
X139992000Y-93998424D03*
X142532000Y-93998424D03*
X145072000Y-93998424D03*
X147612000Y-93998424D03*
X150152000Y-93998424D03*
X152692000Y-93998424D03*
X155232000Y-93998424D03*
X157772000Y-93998424D03*
X160312000Y-93998424D03*
X162852000Y-93998424D03*
X165392000Y-93998424D03*
X167932000Y-93998424D03*
X170472000Y-93998424D03*
X173012000Y-93998424D03*
%TD*%
D20*
%TO.C,C4*%
X203942000Y-127000000D03*
X201442000Y-127000000D03*
%TD*%
%TO.C,C7*%
X185654000Y-127000000D03*
X183154000Y-127000000D03*
%TD*%
%TO.C,C11*%
X172974000Y-123698000D03*
X170474000Y-123698000D03*
%TD*%
%TO.C,C1*%
X198862000Y-127000000D03*
X196362000Y-127000000D03*
%TD*%
%TO.C,C2*%
X203942000Y-106172000D03*
X201442000Y-106172000D03*
%TD*%
%TO.C,C5*%
X198862000Y-106172000D03*
X196362000Y-106172000D03*
%TD*%
%TO.C,C6*%
X193782000Y-127000000D03*
X191282000Y-127000000D03*
%TD*%
%TO.C,C8*%
X185634000Y-112776000D03*
X183134000Y-112776000D03*
%TD*%
%TO.C,C9*%
X185634000Y-98298000D03*
X183134000Y-98298000D03*
%TD*%
D21*
%TO.C,RN1*%
X162814000Y-99568000D03*
D22*
X160274000Y-99568000D03*
X157734000Y-99568000D03*
X155194000Y-99568000D03*
X152654000Y-99568000D03*
X150114000Y-99568000D03*
X147574000Y-99568000D03*
X145034000Y-99568000D03*
X142494000Y-99568000D03*
X139954000Y-99568000D03*
%TD*%
D20*
%TO.C,C10*%
X172974000Y-89408000D03*
X170474000Y-89408000D03*
%TD*%
%TO.C,C3*%
X193782000Y-106172000D03*
X191282000Y-106172000D03*
%TD*%
M02*
