%TF.GenerationSoftware,KiCad,Pcbnew,7.0.9*%
%TF.CreationDate,2024-03-08T21:06:40+01:00*%
%TF.ProjectId,SI4684 controller,53493436-3834-4206-936f-6e74726f6c6c,rev?*%
%TF.SameCoordinates,Original*%
%TF.FileFunction,Legend,Bot*%
%TF.FilePolarity,Positive*%
%FSLAX46Y46*%
G04 Gerber Fmt 4.6, Leading zero omitted, Abs format (unit mm)*
G04 Created by KiCad (PCBNEW 7.0.9) date 2024-03-08 21:06:40*
%MOMM*%
%LPD*%
G01*
G04 APERTURE LIST*
G04 Aperture macros list*
%AMRoundRect*
0 Rectangle with rounded corners*
0 $1 Rounding radius*
0 $2 $3 $4 $5 $6 $7 $8 $9 X,Y pos of 4 corners*
0 Add a 4 corners polygon primitive as box body*
4,1,4,$2,$3,$4,$5,$6,$7,$8,$9,$2,$3,0*
0 Add four circle primitives for the rounded corners*
1,1,$1+$1,$2,$3*
1,1,$1+$1,$4,$5*
1,1,$1+$1,$6,$7*
1,1,$1+$1,$8,$9*
0 Add four rect primitives between the rounded corners*
20,1,$1+$1,$2,$3,$4,$5,0*
20,1,$1+$1,$4,$5,$6,$7,0*
20,1,$1+$1,$6,$7,$8,$9,0*
20,1,$1+$1,$8,$9,$2,$3,0*%
G04 Aperture macros list end*
%ADD10C,0.300000*%
%ADD11C,0.150000*%
%ADD12C,0.120000*%
%ADD13C,4.000000*%
%ADD14R,1.500000X1.500000*%
%ADD15C,1.500000*%
%ADD16R,2.000000X2.000000*%
%ADD17C,2.000000*%
%ADD18R,2.000000X3.200000*%
%ADD19RoundRect,0.250000X0.600000X0.600000X-0.600000X0.600000X-0.600000X-0.600000X0.600000X-0.600000X0*%
%ADD20C,1.700000*%
%ADD21C,1.400000*%
%ADD22O,1.524000X2.540000*%
%ADD23C,1.600000*%
%ADD24R,1.600000X1.600000*%
%ADD25O,1.600000X1.600000*%
G04 APERTURE END LIST*
D10*
X109356900Y-105401854D02*
X109428328Y-105616140D01*
X109428328Y-105616140D02*
X109428328Y-105973282D01*
X109428328Y-105973282D02*
X109356900Y-106116140D01*
X109356900Y-106116140D02*
X109285471Y-106187568D01*
X109285471Y-106187568D02*
X109142614Y-106258997D01*
X109142614Y-106258997D02*
X108999757Y-106258997D01*
X108999757Y-106258997D02*
X108856900Y-106187568D01*
X108856900Y-106187568D02*
X108785471Y-106116140D01*
X108785471Y-106116140D02*
X108714042Y-105973282D01*
X108714042Y-105973282D02*
X108642614Y-105687568D01*
X108642614Y-105687568D02*
X108571185Y-105544711D01*
X108571185Y-105544711D02*
X108499757Y-105473282D01*
X108499757Y-105473282D02*
X108356900Y-105401854D01*
X108356900Y-105401854D02*
X108214042Y-105401854D01*
X108214042Y-105401854D02*
X108071185Y-105473282D01*
X108071185Y-105473282D02*
X107999757Y-105544711D01*
X107999757Y-105544711D02*
X107928328Y-105687568D01*
X107928328Y-105687568D02*
X107928328Y-106044711D01*
X107928328Y-106044711D02*
X107999757Y-106258997D01*
X109428328Y-106901853D02*
X107928328Y-106901853D01*
X108428328Y-108258997D02*
X109428328Y-108258997D01*
X107856900Y-107901854D02*
X108928328Y-107544711D01*
X108928328Y-107544711D02*
X108928328Y-108473282D01*
X107928328Y-109687568D02*
X107928328Y-109401853D01*
X107928328Y-109401853D02*
X107999757Y-109258996D01*
X107999757Y-109258996D02*
X108071185Y-109187568D01*
X108071185Y-109187568D02*
X108285471Y-109044710D01*
X108285471Y-109044710D02*
X108571185Y-108973282D01*
X108571185Y-108973282D02*
X109142614Y-108973282D01*
X109142614Y-108973282D02*
X109285471Y-109044710D01*
X109285471Y-109044710D02*
X109356900Y-109116139D01*
X109356900Y-109116139D02*
X109428328Y-109258996D01*
X109428328Y-109258996D02*
X109428328Y-109544710D01*
X109428328Y-109544710D02*
X109356900Y-109687568D01*
X109356900Y-109687568D02*
X109285471Y-109758996D01*
X109285471Y-109758996D02*
X109142614Y-109830425D01*
X109142614Y-109830425D02*
X108785471Y-109830425D01*
X108785471Y-109830425D02*
X108642614Y-109758996D01*
X108642614Y-109758996D02*
X108571185Y-109687568D01*
X108571185Y-109687568D02*
X108499757Y-109544710D01*
X108499757Y-109544710D02*
X108499757Y-109258996D01*
X108499757Y-109258996D02*
X108571185Y-109116139D01*
X108571185Y-109116139D02*
X108642614Y-109044710D01*
X108642614Y-109044710D02*
X108785471Y-108973282D01*
X108571185Y-110687567D02*
X108499757Y-110544710D01*
X108499757Y-110544710D02*
X108428328Y-110473281D01*
X108428328Y-110473281D02*
X108285471Y-110401853D01*
X108285471Y-110401853D02*
X108214042Y-110401853D01*
X108214042Y-110401853D02*
X108071185Y-110473281D01*
X108071185Y-110473281D02*
X107999757Y-110544710D01*
X107999757Y-110544710D02*
X107928328Y-110687567D01*
X107928328Y-110687567D02*
X107928328Y-110973281D01*
X107928328Y-110973281D02*
X107999757Y-111116139D01*
X107999757Y-111116139D02*
X108071185Y-111187567D01*
X108071185Y-111187567D02*
X108214042Y-111258996D01*
X108214042Y-111258996D02*
X108285471Y-111258996D01*
X108285471Y-111258996D02*
X108428328Y-111187567D01*
X108428328Y-111187567D02*
X108499757Y-111116139D01*
X108499757Y-111116139D02*
X108571185Y-110973281D01*
X108571185Y-110973281D02*
X108571185Y-110687567D01*
X108571185Y-110687567D02*
X108642614Y-110544710D01*
X108642614Y-110544710D02*
X108714042Y-110473281D01*
X108714042Y-110473281D02*
X108856900Y-110401853D01*
X108856900Y-110401853D02*
X109142614Y-110401853D01*
X109142614Y-110401853D02*
X109285471Y-110473281D01*
X109285471Y-110473281D02*
X109356900Y-110544710D01*
X109356900Y-110544710D02*
X109428328Y-110687567D01*
X109428328Y-110687567D02*
X109428328Y-110973281D01*
X109428328Y-110973281D02*
X109356900Y-111116139D01*
X109356900Y-111116139D02*
X109285471Y-111187567D01*
X109285471Y-111187567D02*
X109142614Y-111258996D01*
X109142614Y-111258996D02*
X108856900Y-111258996D01*
X108856900Y-111258996D02*
X108714042Y-111187567D01*
X108714042Y-111187567D02*
X108642614Y-111116139D01*
X108642614Y-111116139D02*
X108571185Y-110973281D01*
X108428328Y-112544710D02*
X109428328Y-112544710D01*
X107856900Y-112187567D02*
X108928328Y-111830424D01*
X108928328Y-111830424D02*
X108928328Y-112758995D01*
X109356900Y-115116138D02*
X109428328Y-114973280D01*
X109428328Y-114973280D02*
X109428328Y-114687566D01*
X109428328Y-114687566D02*
X109356900Y-114544709D01*
X109356900Y-114544709D02*
X109285471Y-114473280D01*
X109285471Y-114473280D02*
X109142614Y-114401852D01*
X109142614Y-114401852D02*
X108714042Y-114401852D01*
X108714042Y-114401852D02*
X108571185Y-114473280D01*
X108571185Y-114473280D02*
X108499757Y-114544709D01*
X108499757Y-114544709D02*
X108428328Y-114687566D01*
X108428328Y-114687566D02*
X108428328Y-114973280D01*
X108428328Y-114973280D02*
X108499757Y-115116138D01*
X109428328Y-115973280D02*
X109356900Y-115830423D01*
X109356900Y-115830423D02*
X109285471Y-115758994D01*
X109285471Y-115758994D02*
X109142614Y-115687566D01*
X109142614Y-115687566D02*
X108714042Y-115687566D01*
X108714042Y-115687566D02*
X108571185Y-115758994D01*
X108571185Y-115758994D02*
X108499757Y-115830423D01*
X108499757Y-115830423D02*
X108428328Y-115973280D01*
X108428328Y-115973280D02*
X108428328Y-116187566D01*
X108428328Y-116187566D02*
X108499757Y-116330423D01*
X108499757Y-116330423D02*
X108571185Y-116401852D01*
X108571185Y-116401852D02*
X108714042Y-116473280D01*
X108714042Y-116473280D02*
X109142614Y-116473280D01*
X109142614Y-116473280D02*
X109285471Y-116401852D01*
X109285471Y-116401852D02*
X109356900Y-116330423D01*
X109356900Y-116330423D02*
X109428328Y-116187566D01*
X109428328Y-116187566D02*
X109428328Y-115973280D01*
X108428328Y-117116137D02*
X109428328Y-117116137D01*
X108571185Y-117116137D02*
X108499757Y-117187566D01*
X108499757Y-117187566D02*
X108428328Y-117330423D01*
X108428328Y-117330423D02*
X108428328Y-117544709D01*
X108428328Y-117544709D02*
X108499757Y-117687566D01*
X108499757Y-117687566D02*
X108642614Y-117758995D01*
X108642614Y-117758995D02*
X109428328Y-117758995D01*
X108428328Y-118258995D02*
X108428328Y-118830423D01*
X107928328Y-118473280D02*
X109214042Y-118473280D01*
X109214042Y-118473280D02*
X109356900Y-118544709D01*
X109356900Y-118544709D02*
X109428328Y-118687566D01*
X109428328Y-118687566D02*
X109428328Y-118830423D01*
X109428328Y-119330423D02*
X108428328Y-119330423D01*
X108714042Y-119330423D02*
X108571185Y-119401852D01*
X108571185Y-119401852D02*
X108499757Y-119473281D01*
X108499757Y-119473281D02*
X108428328Y-119616138D01*
X108428328Y-119616138D02*
X108428328Y-119758995D01*
X109428328Y-120473280D02*
X109356900Y-120330423D01*
X109356900Y-120330423D02*
X109285471Y-120258994D01*
X109285471Y-120258994D02*
X109142614Y-120187566D01*
X109142614Y-120187566D02*
X108714042Y-120187566D01*
X108714042Y-120187566D02*
X108571185Y-120258994D01*
X108571185Y-120258994D02*
X108499757Y-120330423D01*
X108499757Y-120330423D02*
X108428328Y-120473280D01*
X108428328Y-120473280D02*
X108428328Y-120687566D01*
X108428328Y-120687566D02*
X108499757Y-120830423D01*
X108499757Y-120830423D02*
X108571185Y-120901852D01*
X108571185Y-120901852D02*
X108714042Y-120973280D01*
X108714042Y-120973280D02*
X109142614Y-120973280D01*
X109142614Y-120973280D02*
X109285471Y-120901852D01*
X109285471Y-120901852D02*
X109356900Y-120830423D01*
X109356900Y-120830423D02*
X109428328Y-120687566D01*
X109428328Y-120687566D02*
X109428328Y-120473280D01*
X109428328Y-121830423D02*
X109356900Y-121687566D01*
X109356900Y-121687566D02*
X109214042Y-121616137D01*
X109214042Y-121616137D02*
X107928328Y-121616137D01*
X109428328Y-122616137D02*
X109356900Y-122473280D01*
X109356900Y-122473280D02*
X109214042Y-122401851D01*
X109214042Y-122401851D02*
X107928328Y-122401851D01*
X109356900Y-123758994D02*
X109428328Y-123616137D01*
X109428328Y-123616137D02*
X109428328Y-123330423D01*
X109428328Y-123330423D02*
X109356900Y-123187565D01*
X109356900Y-123187565D02*
X109214042Y-123116137D01*
X109214042Y-123116137D02*
X108642614Y-123116137D01*
X108642614Y-123116137D02*
X108499757Y-123187565D01*
X108499757Y-123187565D02*
X108428328Y-123330423D01*
X108428328Y-123330423D02*
X108428328Y-123616137D01*
X108428328Y-123616137D02*
X108499757Y-123758994D01*
X108499757Y-123758994D02*
X108642614Y-123830423D01*
X108642614Y-123830423D02*
X108785471Y-123830423D01*
X108785471Y-123830423D02*
X108928328Y-123116137D01*
X109428328Y-124473279D02*
X108428328Y-124473279D01*
X108714042Y-124473279D02*
X108571185Y-124544708D01*
X108571185Y-124544708D02*
X108499757Y-124616137D01*
X108499757Y-124616137D02*
X108428328Y-124758994D01*
X108428328Y-124758994D02*
X108428328Y-124901851D01*
D11*
X111236819Y-106416176D02*
X110236819Y-106416176D01*
X110236819Y-106416176D02*
X110236819Y-106797128D01*
X110236819Y-106797128D02*
X110284438Y-106892366D01*
X110284438Y-106892366D02*
X110332057Y-106939985D01*
X110332057Y-106939985D02*
X110427295Y-106987604D01*
X110427295Y-106987604D02*
X110570152Y-106987604D01*
X110570152Y-106987604D02*
X110665390Y-106939985D01*
X110665390Y-106939985D02*
X110713009Y-106892366D01*
X110713009Y-106892366D02*
X110760628Y-106797128D01*
X110760628Y-106797128D02*
X110760628Y-106416176D01*
X110713009Y-107416176D02*
X110713009Y-107749509D01*
X111236819Y-107892366D02*
X111236819Y-107416176D01*
X111236819Y-107416176D02*
X110236819Y-107416176D01*
X110236819Y-107416176D02*
X110236819Y-107892366D01*
X110236819Y-108797128D02*
X110236819Y-108320938D01*
X110236819Y-108320938D02*
X110713009Y-108273319D01*
X110713009Y-108273319D02*
X110665390Y-108320938D01*
X110665390Y-108320938D02*
X110617771Y-108416176D01*
X110617771Y-108416176D02*
X110617771Y-108654271D01*
X110617771Y-108654271D02*
X110665390Y-108749509D01*
X110665390Y-108749509D02*
X110713009Y-108797128D01*
X110713009Y-108797128D02*
X110808247Y-108844747D01*
X110808247Y-108844747D02*
X111046342Y-108844747D01*
X111046342Y-108844747D02*
X111141580Y-108797128D01*
X111141580Y-108797128D02*
X111189200Y-108749509D01*
X111189200Y-108749509D02*
X111236819Y-108654271D01*
X111236819Y-108654271D02*
X111236819Y-108416176D01*
X111236819Y-108416176D02*
X111189200Y-108320938D01*
X111189200Y-108320938D02*
X111141580Y-108273319D01*
X111236819Y-109273319D02*
X110236819Y-109273319D01*
X110236819Y-109273319D02*
X110236819Y-109654271D01*
X110236819Y-109654271D02*
X110284438Y-109749509D01*
X110284438Y-109749509D02*
X110332057Y-109797128D01*
X110332057Y-109797128D02*
X110427295Y-109844747D01*
X110427295Y-109844747D02*
X110570152Y-109844747D01*
X110570152Y-109844747D02*
X110665390Y-109797128D01*
X110665390Y-109797128D02*
X110713009Y-109749509D01*
X110713009Y-109749509D02*
X110760628Y-109654271D01*
X110760628Y-109654271D02*
X110760628Y-109273319D01*
X110236819Y-110130462D02*
X111236819Y-110463795D01*
X111236819Y-110463795D02*
X110236819Y-110797128D01*
X110713009Y-111463795D02*
X110760628Y-111606652D01*
X110760628Y-111606652D02*
X110808247Y-111654271D01*
X110808247Y-111654271D02*
X110903485Y-111701890D01*
X110903485Y-111701890D02*
X111046342Y-111701890D01*
X111046342Y-111701890D02*
X111141580Y-111654271D01*
X111141580Y-111654271D02*
X111189200Y-111606652D01*
X111189200Y-111606652D02*
X111236819Y-111511414D01*
X111236819Y-111511414D02*
X111236819Y-111130462D01*
X111236819Y-111130462D02*
X110236819Y-111130462D01*
X110236819Y-111130462D02*
X110236819Y-111463795D01*
X110236819Y-111463795D02*
X110284438Y-111559033D01*
X110284438Y-111559033D02*
X110332057Y-111606652D01*
X110332057Y-111606652D02*
X110427295Y-111654271D01*
X110427295Y-111654271D02*
X110522533Y-111654271D01*
X110522533Y-111654271D02*
X110617771Y-111606652D01*
X110617771Y-111606652D02*
X110665390Y-111559033D01*
X110665390Y-111559033D02*
X110713009Y-111463795D01*
X110713009Y-111463795D02*
X110713009Y-111130462D01*
X124069333Y-108185243D02*
X124069333Y-108899528D01*
X124069333Y-108899528D02*
X124116952Y-109042385D01*
X124116952Y-109042385D02*
X124212190Y-109137624D01*
X124212190Y-109137624D02*
X124355047Y-109185243D01*
X124355047Y-109185243D02*
X124450285Y-109185243D01*
X123069333Y-109185243D02*
X123640761Y-109185243D01*
X123355047Y-109185243D02*
X123355047Y-108185243D01*
X123355047Y-108185243D02*
X123450285Y-108328100D01*
X123450285Y-108328100D02*
X123545523Y-108423338D01*
X123545523Y-108423338D02*
X123640761Y-108470957D01*
X116586819Y-100150090D02*
X117301104Y-100150090D01*
X117301104Y-100150090D02*
X117443961Y-100102471D01*
X117443961Y-100102471D02*
X117539200Y-100007233D01*
X117539200Y-100007233D02*
X117586819Y-99864376D01*
X117586819Y-99864376D02*
X117586819Y-99769138D01*
X117586819Y-100626281D02*
X116586819Y-100626281D01*
X116586819Y-100626281D02*
X116586819Y-101007233D01*
X116586819Y-101007233D02*
X116634438Y-101102471D01*
X116634438Y-101102471D02*
X116682057Y-101150090D01*
X116682057Y-101150090D02*
X116777295Y-101197709D01*
X116777295Y-101197709D02*
X116920152Y-101197709D01*
X116920152Y-101197709D02*
X117015390Y-101150090D01*
X117015390Y-101150090D02*
X117063009Y-101102471D01*
X117063009Y-101102471D02*
X117110628Y-101007233D01*
X117110628Y-101007233D02*
X117110628Y-100626281D01*
X117586819Y-102150090D02*
X117586819Y-101578662D01*
X117586819Y-101864376D02*
X116586819Y-101864376D01*
X116586819Y-101864376D02*
X116729676Y-101769138D01*
X116729676Y-101769138D02*
X116824914Y-101673900D01*
X116824914Y-101673900D02*
X116872533Y-101578662D01*
X150923523Y-107896819D02*
X150923523Y-106896819D01*
X150923523Y-106896819D02*
X150590190Y-107611104D01*
X150590190Y-107611104D02*
X150256857Y-106896819D01*
X150256857Y-106896819D02*
X150256857Y-107896819D01*
X149256857Y-107896819D02*
X149828285Y-107896819D01*
X149542571Y-107896819D02*
X149542571Y-106896819D01*
X149542571Y-106896819D02*
X149637809Y-107039676D01*
X149637809Y-107039676D02*
X149733047Y-107134914D01*
X149733047Y-107134914D02*
X149828285Y-107182533D01*
X202858666Y-125581580D02*
X202906285Y-125629200D01*
X202906285Y-125629200D02*
X203049142Y-125676819D01*
X203049142Y-125676819D02*
X203144380Y-125676819D01*
X203144380Y-125676819D02*
X203287237Y-125629200D01*
X203287237Y-125629200D02*
X203382475Y-125533961D01*
X203382475Y-125533961D02*
X203430094Y-125438723D01*
X203430094Y-125438723D02*
X203477713Y-125248247D01*
X203477713Y-125248247D02*
X203477713Y-125105390D01*
X203477713Y-125105390D02*
X203430094Y-124914914D01*
X203430094Y-124914914D02*
X203382475Y-124819676D01*
X203382475Y-124819676D02*
X203287237Y-124724438D01*
X203287237Y-124724438D02*
X203144380Y-124676819D01*
X203144380Y-124676819D02*
X203049142Y-124676819D01*
X203049142Y-124676819D02*
X202906285Y-124724438D01*
X202906285Y-124724438D02*
X202858666Y-124772057D01*
X202001523Y-125010152D02*
X202001523Y-125676819D01*
X202239618Y-124629200D02*
X202477713Y-125343485D01*
X202477713Y-125343485D02*
X201858666Y-125343485D01*
X187872666Y-127359580D02*
X187920285Y-127407200D01*
X187920285Y-127407200D02*
X188063142Y-127454819D01*
X188063142Y-127454819D02*
X188158380Y-127454819D01*
X188158380Y-127454819D02*
X188301237Y-127407200D01*
X188301237Y-127407200D02*
X188396475Y-127311961D01*
X188396475Y-127311961D02*
X188444094Y-127216723D01*
X188444094Y-127216723D02*
X188491713Y-127026247D01*
X188491713Y-127026247D02*
X188491713Y-126883390D01*
X188491713Y-126883390D02*
X188444094Y-126692914D01*
X188444094Y-126692914D02*
X188396475Y-126597676D01*
X188396475Y-126597676D02*
X188301237Y-126502438D01*
X188301237Y-126502438D02*
X188158380Y-126454819D01*
X188158380Y-126454819D02*
X188063142Y-126454819D01*
X188063142Y-126454819D02*
X187920285Y-126502438D01*
X187920285Y-126502438D02*
X187872666Y-126550057D01*
X187539332Y-126454819D02*
X186872666Y-126454819D01*
X186872666Y-126454819D02*
X187301237Y-127454819D01*
X172366857Y-126343580D02*
X172414476Y-126391200D01*
X172414476Y-126391200D02*
X172557333Y-126438819D01*
X172557333Y-126438819D02*
X172652571Y-126438819D01*
X172652571Y-126438819D02*
X172795428Y-126391200D01*
X172795428Y-126391200D02*
X172890666Y-126295961D01*
X172890666Y-126295961D02*
X172938285Y-126200723D01*
X172938285Y-126200723D02*
X172985904Y-126010247D01*
X172985904Y-126010247D02*
X172985904Y-125867390D01*
X172985904Y-125867390D02*
X172938285Y-125676914D01*
X172938285Y-125676914D02*
X172890666Y-125581676D01*
X172890666Y-125581676D02*
X172795428Y-125486438D01*
X172795428Y-125486438D02*
X172652571Y-125438819D01*
X172652571Y-125438819D02*
X172557333Y-125438819D01*
X172557333Y-125438819D02*
X172414476Y-125486438D01*
X172414476Y-125486438D02*
X172366857Y-125534057D01*
X171414476Y-126438819D02*
X171985904Y-126438819D01*
X171700190Y-126438819D02*
X171700190Y-125438819D01*
X171700190Y-125438819D02*
X171795428Y-125581676D01*
X171795428Y-125581676D02*
X171890666Y-125676914D01*
X171890666Y-125676914D02*
X171985904Y-125724533D01*
X170462095Y-126438819D02*
X171033523Y-126438819D01*
X170747809Y-126438819D02*
X170747809Y-125438819D01*
X170747809Y-125438819D02*
X170843047Y-125581676D01*
X170843047Y-125581676D02*
X170938285Y-125676914D01*
X170938285Y-125676914D02*
X171033523Y-125724533D01*
X197778666Y-125581580D02*
X197826285Y-125629200D01*
X197826285Y-125629200D02*
X197969142Y-125676819D01*
X197969142Y-125676819D02*
X198064380Y-125676819D01*
X198064380Y-125676819D02*
X198207237Y-125629200D01*
X198207237Y-125629200D02*
X198302475Y-125533961D01*
X198302475Y-125533961D02*
X198350094Y-125438723D01*
X198350094Y-125438723D02*
X198397713Y-125248247D01*
X198397713Y-125248247D02*
X198397713Y-125105390D01*
X198397713Y-125105390D02*
X198350094Y-124914914D01*
X198350094Y-124914914D02*
X198302475Y-124819676D01*
X198302475Y-124819676D02*
X198207237Y-124724438D01*
X198207237Y-124724438D02*
X198064380Y-124676819D01*
X198064380Y-124676819D02*
X197969142Y-124676819D01*
X197969142Y-124676819D02*
X197826285Y-124724438D01*
X197826285Y-124724438D02*
X197778666Y-124772057D01*
X196826285Y-125676819D02*
X197397713Y-125676819D01*
X197111999Y-125676819D02*
X197111999Y-124676819D01*
X197111999Y-124676819D02*
X197207237Y-124819676D01*
X197207237Y-124819676D02*
X197302475Y-124914914D01*
X197302475Y-124914914D02*
X197397713Y-124962533D01*
X202858666Y-104753580D02*
X202906285Y-104801200D01*
X202906285Y-104801200D02*
X203049142Y-104848819D01*
X203049142Y-104848819D02*
X203144380Y-104848819D01*
X203144380Y-104848819D02*
X203287237Y-104801200D01*
X203287237Y-104801200D02*
X203382475Y-104705961D01*
X203382475Y-104705961D02*
X203430094Y-104610723D01*
X203430094Y-104610723D02*
X203477713Y-104420247D01*
X203477713Y-104420247D02*
X203477713Y-104277390D01*
X203477713Y-104277390D02*
X203430094Y-104086914D01*
X203430094Y-104086914D02*
X203382475Y-103991676D01*
X203382475Y-103991676D02*
X203287237Y-103896438D01*
X203287237Y-103896438D02*
X203144380Y-103848819D01*
X203144380Y-103848819D02*
X203049142Y-103848819D01*
X203049142Y-103848819D02*
X202906285Y-103896438D01*
X202906285Y-103896438D02*
X202858666Y-103944057D01*
X202477713Y-103944057D02*
X202430094Y-103896438D01*
X202430094Y-103896438D02*
X202334856Y-103848819D01*
X202334856Y-103848819D02*
X202096761Y-103848819D01*
X202096761Y-103848819D02*
X202001523Y-103896438D01*
X202001523Y-103896438D02*
X201953904Y-103944057D01*
X201953904Y-103944057D02*
X201906285Y-104039295D01*
X201906285Y-104039295D02*
X201906285Y-104134533D01*
X201906285Y-104134533D02*
X201953904Y-104277390D01*
X201953904Y-104277390D02*
X202525332Y-104848819D01*
X202525332Y-104848819D02*
X201906285Y-104848819D01*
X197778666Y-104753580D02*
X197826285Y-104801200D01*
X197826285Y-104801200D02*
X197969142Y-104848819D01*
X197969142Y-104848819D02*
X198064380Y-104848819D01*
X198064380Y-104848819D02*
X198207237Y-104801200D01*
X198207237Y-104801200D02*
X198302475Y-104705961D01*
X198302475Y-104705961D02*
X198350094Y-104610723D01*
X198350094Y-104610723D02*
X198397713Y-104420247D01*
X198397713Y-104420247D02*
X198397713Y-104277390D01*
X198397713Y-104277390D02*
X198350094Y-104086914D01*
X198350094Y-104086914D02*
X198302475Y-103991676D01*
X198302475Y-103991676D02*
X198207237Y-103896438D01*
X198207237Y-103896438D02*
X198064380Y-103848819D01*
X198064380Y-103848819D02*
X197969142Y-103848819D01*
X197969142Y-103848819D02*
X197826285Y-103896438D01*
X197826285Y-103896438D02*
X197778666Y-103944057D01*
X196873904Y-103848819D02*
X197350094Y-103848819D01*
X197350094Y-103848819D02*
X197397713Y-104325009D01*
X197397713Y-104325009D02*
X197350094Y-104277390D01*
X197350094Y-104277390D02*
X197254856Y-104229771D01*
X197254856Y-104229771D02*
X197016761Y-104229771D01*
X197016761Y-104229771D02*
X196921523Y-104277390D01*
X196921523Y-104277390D02*
X196873904Y-104325009D01*
X196873904Y-104325009D02*
X196826285Y-104420247D01*
X196826285Y-104420247D02*
X196826285Y-104658342D01*
X196826285Y-104658342D02*
X196873904Y-104753580D01*
X196873904Y-104753580D02*
X196921523Y-104801200D01*
X196921523Y-104801200D02*
X197016761Y-104848819D01*
X197016761Y-104848819D02*
X197254856Y-104848819D01*
X197254856Y-104848819D02*
X197350094Y-104801200D01*
X197350094Y-104801200D02*
X197397713Y-104753580D01*
X192698666Y-125581580D02*
X192746285Y-125629200D01*
X192746285Y-125629200D02*
X192889142Y-125676819D01*
X192889142Y-125676819D02*
X192984380Y-125676819D01*
X192984380Y-125676819D02*
X193127237Y-125629200D01*
X193127237Y-125629200D02*
X193222475Y-125533961D01*
X193222475Y-125533961D02*
X193270094Y-125438723D01*
X193270094Y-125438723D02*
X193317713Y-125248247D01*
X193317713Y-125248247D02*
X193317713Y-125105390D01*
X193317713Y-125105390D02*
X193270094Y-124914914D01*
X193270094Y-124914914D02*
X193222475Y-124819676D01*
X193222475Y-124819676D02*
X193127237Y-124724438D01*
X193127237Y-124724438D02*
X192984380Y-124676819D01*
X192984380Y-124676819D02*
X192889142Y-124676819D01*
X192889142Y-124676819D02*
X192746285Y-124724438D01*
X192746285Y-124724438D02*
X192698666Y-124772057D01*
X191841523Y-124676819D02*
X192031999Y-124676819D01*
X192031999Y-124676819D02*
X192127237Y-124724438D01*
X192127237Y-124724438D02*
X192174856Y-124772057D01*
X192174856Y-124772057D02*
X192270094Y-124914914D01*
X192270094Y-124914914D02*
X192317713Y-125105390D01*
X192317713Y-125105390D02*
X192317713Y-125486342D01*
X192317713Y-125486342D02*
X192270094Y-125581580D01*
X192270094Y-125581580D02*
X192222475Y-125629200D01*
X192222475Y-125629200D02*
X192127237Y-125676819D01*
X192127237Y-125676819D02*
X191936761Y-125676819D01*
X191936761Y-125676819D02*
X191841523Y-125629200D01*
X191841523Y-125629200D02*
X191793904Y-125581580D01*
X191793904Y-125581580D02*
X191746285Y-125486342D01*
X191746285Y-125486342D02*
X191746285Y-125248247D01*
X191746285Y-125248247D02*
X191793904Y-125153009D01*
X191793904Y-125153009D02*
X191841523Y-125105390D01*
X191841523Y-125105390D02*
X191936761Y-125057771D01*
X191936761Y-125057771D02*
X192127237Y-125057771D01*
X192127237Y-125057771D02*
X192222475Y-125105390D01*
X192222475Y-125105390D02*
X192270094Y-125153009D01*
X192270094Y-125153009D02*
X192317713Y-125248247D01*
X187872666Y-113135580D02*
X187920285Y-113183200D01*
X187920285Y-113183200D02*
X188063142Y-113230819D01*
X188063142Y-113230819D02*
X188158380Y-113230819D01*
X188158380Y-113230819D02*
X188301237Y-113183200D01*
X188301237Y-113183200D02*
X188396475Y-113087961D01*
X188396475Y-113087961D02*
X188444094Y-112992723D01*
X188444094Y-112992723D02*
X188491713Y-112802247D01*
X188491713Y-112802247D02*
X188491713Y-112659390D01*
X188491713Y-112659390D02*
X188444094Y-112468914D01*
X188444094Y-112468914D02*
X188396475Y-112373676D01*
X188396475Y-112373676D02*
X188301237Y-112278438D01*
X188301237Y-112278438D02*
X188158380Y-112230819D01*
X188158380Y-112230819D02*
X188063142Y-112230819D01*
X188063142Y-112230819D02*
X187920285Y-112278438D01*
X187920285Y-112278438D02*
X187872666Y-112326057D01*
X187301237Y-112659390D02*
X187396475Y-112611771D01*
X187396475Y-112611771D02*
X187444094Y-112564152D01*
X187444094Y-112564152D02*
X187491713Y-112468914D01*
X187491713Y-112468914D02*
X187491713Y-112421295D01*
X187491713Y-112421295D02*
X187444094Y-112326057D01*
X187444094Y-112326057D02*
X187396475Y-112278438D01*
X187396475Y-112278438D02*
X187301237Y-112230819D01*
X187301237Y-112230819D02*
X187110761Y-112230819D01*
X187110761Y-112230819D02*
X187015523Y-112278438D01*
X187015523Y-112278438D02*
X186967904Y-112326057D01*
X186967904Y-112326057D02*
X186920285Y-112421295D01*
X186920285Y-112421295D02*
X186920285Y-112468914D01*
X186920285Y-112468914D02*
X186967904Y-112564152D01*
X186967904Y-112564152D02*
X187015523Y-112611771D01*
X187015523Y-112611771D02*
X187110761Y-112659390D01*
X187110761Y-112659390D02*
X187301237Y-112659390D01*
X187301237Y-112659390D02*
X187396475Y-112707009D01*
X187396475Y-112707009D02*
X187444094Y-112754628D01*
X187444094Y-112754628D02*
X187491713Y-112849866D01*
X187491713Y-112849866D02*
X187491713Y-113040342D01*
X187491713Y-113040342D02*
X187444094Y-113135580D01*
X187444094Y-113135580D02*
X187396475Y-113183200D01*
X187396475Y-113183200D02*
X187301237Y-113230819D01*
X187301237Y-113230819D02*
X187110761Y-113230819D01*
X187110761Y-113230819D02*
X187015523Y-113183200D01*
X187015523Y-113183200D02*
X186967904Y-113135580D01*
X186967904Y-113135580D02*
X186920285Y-113040342D01*
X186920285Y-113040342D02*
X186920285Y-112849866D01*
X186920285Y-112849866D02*
X186967904Y-112754628D01*
X186967904Y-112754628D02*
X187015523Y-112707009D01*
X187015523Y-112707009D02*
X187110761Y-112659390D01*
X187872666Y-98657580D02*
X187920285Y-98705200D01*
X187920285Y-98705200D02*
X188063142Y-98752819D01*
X188063142Y-98752819D02*
X188158380Y-98752819D01*
X188158380Y-98752819D02*
X188301237Y-98705200D01*
X188301237Y-98705200D02*
X188396475Y-98609961D01*
X188396475Y-98609961D02*
X188444094Y-98514723D01*
X188444094Y-98514723D02*
X188491713Y-98324247D01*
X188491713Y-98324247D02*
X188491713Y-98181390D01*
X188491713Y-98181390D02*
X188444094Y-97990914D01*
X188444094Y-97990914D02*
X188396475Y-97895676D01*
X188396475Y-97895676D02*
X188301237Y-97800438D01*
X188301237Y-97800438D02*
X188158380Y-97752819D01*
X188158380Y-97752819D02*
X188063142Y-97752819D01*
X188063142Y-97752819D02*
X187920285Y-97800438D01*
X187920285Y-97800438D02*
X187872666Y-97848057D01*
X187396475Y-98752819D02*
X187205999Y-98752819D01*
X187205999Y-98752819D02*
X187110761Y-98705200D01*
X187110761Y-98705200D02*
X187063142Y-98657580D01*
X187063142Y-98657580D02*
X186967904Y-98514723D01*
X186967904Y-98514723D02*
X186920285Y-98324247D01*
X186920285Y-98324247D02*
X186920285Y-97943295D01*
X186920285Y-97943295D02*
X186967904Y-97848057D01*
X186967904Y-97848057D02*
X187015523Y-97800438D01*
X187015523Y-97800438D02*
X187110761Y-97752819D01*
X187110761Y-97752819D02*
X187301237Y-97752819D01*
X187301237Y-97752819D02*
X187396475Y-97800438D01*
X187396475Y-97800438D02*
X187444094Y-97848057D01*
X187444094Y-97848057D02*
X187491713Y-97943295D01*
X187491713Y-97943295D02*
X187491713Y-98181390D01*
X187491713Y-98181390D02*
X187444094Y-98276628D01*
X187444094Y-98276628D02*
X187396475Y-98324247D01*
X187396475Y-98324247D02*
X187301237Y-98371866D01*
X187301237Y-98371866D02*
X187110761Y-98371866D01*
X187110761Y-98371866D02*
X187015523Y-98324247D01*
X187015523Y-98324247D02*
X186967904Y-98276628D01*
X186967904Y-98276628D02*
X186920285Y-98181390D01*
X150804476Y-97622819D02*
X151137809Y-97146628D01*
X151375904Y-97622819D02*
X151375904Y-96622819D01*
X151375904Y-96622819D02*
X150994952Y-96622819D01*
X150994952Y-96622819D02*
X150899714Y-96670438D01*
X150899714Y-96670438D02*
X150852095Y-96718057D01*
X150852095Y-96718057D02*
X150804476Y-96813295D01*
X150804476Y-96813295D02*
X150804476Y-96956152D01*
X150804476Y-96956152D02*
X150852095Y-97051390D01*
X150852095Y-97051390D02*
X150899714Y-97099009D01*
X150899714Y-97099009D02*
X150994952Y-97146628D01*
X150994952Y-97146628D02*
X151375904Y-97146628D01*
X150375904Y-97622819D02*
X150375904Y-96622819D01*
X150375904Y-96622819D02*
X149804476Y-97622819D01*
X149804476Y-97622819D02*
X149804476Y-96622819D01*
X148804476Y-97622819D02*
X149375904Y-97622819D01*
X149090190Y-97622819D02*
X149090190Y-96622819D01*
X149090190Y-96622819D02*
X149185428Y-96765676D01*
X149185428Y-96765676D02*
X149280666Y-96860914D01*
X149280666Y-96860914D02*
X149375904Y-96908533D01*
X172366857Y-87517580D02*
X172414476Y-87565200D01*
X172414476Y-87565200D02*
X172557333Y-87612819D01*
X172557333Y-87612819D02*
X172652571Y-87612819D01*
X172652571Y-87612819D02*
X172795428Y-87565200D01*
X172795428Y-87565200D02*
X172890666Y-87469961D01*
X172890666Y-87469961D02*
X172938285Y-87374723D01*
X172938285Y-87374723D02*
X172985904Y-87184247D01*
X172985904Y-87184247D02*
X172985904Y-87041390D01*
X172985904Y-87041390D02*
X172938285Y-86850914D01*
X172938285Y-86850914D02*
X172890666Y-86755676D01*
X172890666Y-86755676D02*
X172795428Y-86660438D01*
X172795428Y-86660438D02*
X172652571Y-86612819D01*
X172652571Y-86612819D02*
X172557333Y-86612819D01*
X172557333Y-86612819D02*
X172414476Y-86660438D01*
X172414476Y-86660438D02*
X172366857Y-86708057D01*
X171414476Y-87612819D02*
X171985904Y-87612819D01*
X171700190Y-87612819D02*
X171700190Y-86612819D01*
X171700190Y-86612819D02*
X171795428Y-86755676D01*
X171795428Y-86755676D02*
X171890666Y-86850914D01*
X171890666Y-86850914D02*
X171985904Y-86898533D01*
X170795428Y-86612819D02*
X170700190Y-86612819D01*
X170700190Y-86612819D02*
X170604952Y-86660438D01*
X170604952Y-86660438D02*
X170557333Y-86708057D01*
X170557333Y-86708057D02*
X170509714Y-86803295D01*
X170509714Y-86803295D02*
X170462095Y-86993771D01*
X170462095Y-86993771D02*
X170462095Y-87231866D01*
X170462095Y-87231866D02*
X170509714Y-87422342D01*
X170509714Y-87422342D02*
X170557333Y-87517580D01*
X170557333Y-87517580D02*
X170604952Y-87565200D01*
X170604952Y-87565200D02*
X170700190Y-87612819D01*
X170700190Y-87612819D02*
X170795428Y-87612819D01*
X170795428Y-87612819D02*
X170890666Y-87565200D01*
X170890666Y-87565200D02*
X170938285Y-87517580D01*
X170938285Y-87517580D02*
X170985904Y-87422342D01*
X170985904Y-87422342D02*
X171033523Y-87231866D01*
X171033523Y-87231866D02*
X171033523Y-86993771D01*
X171033523Y-86993771D02*
X170985904Y-86803295D01*
X170985904Y-86803295D02*
X170938285Y-86708057D01*
X170938285Y-86708057D02*
X170890666Y-86660438D01*
X170890666Y-86660438D02*
X170795428Y-86612819D01*
X192698666Y-104753580D02*
X192746285Y-104801200D01*
X192746285Y-104801200D02*
X192889142Y-104848819D01*
X192889142Y-104848819D02*
X192984380Y-104848819D01*
X192984380Y-104848819D02*
X193127237Y-104801200D01*
X193127237Y-104801200D02*
X193222475Y-104705961D01*
X193222475Y-104705961D02*
X193270094Y-104610723D01*
X193270094Y-104610723D02*
X193317713Y-104420247D01*
X193317713Y-104420247D02*
X193317713Y-104277390D01*
X193317713Y-104277390D02*
X193270094Y-104086914D01*
X193270094Y-104086914D02*
X193222475Y-103991676D01*
X193222475Y-103991676D02*
X193127237Y-103896438D01*
X193127237Y-103896438D02*
X192984380Y-103848819D01*
X192984380Y-103848819D02*
X192889142Y-103848819D01*
X192889142Y-103848819D02*
X192746285Y-103896438D01*
X192746285Y-103896438D02*
X192698666Y-103944057D01*
X192365332Y-103848819D02*
X191746285Y-103848819D01*
X191746285Y-103848819D02*
X192079618Y-104229771D01*
X192079618Y-104229771D02*
X191936761Y-104229771D01*
X191936761Y-104229771D02*
X191841523Y-104277390D01*
X191841523Y-104277390D02*
X191793904Y-104325009D01*
X191793904Y-104325009D02*
X191746285Y-104420247D01*
X191746285Y-104420247D02*
X191746285Y-104658342D01*
X191746285Y-104658342D02*
X191793904Y-104753580D01*
X191793904Y-104753580D02*
X191841523Y-104801200D01*
X191841523Y-104801200D02*
X191936761Y-104848819D01*
X191936761Y-104848819D02*
X192222475Y-104848819D01*
X192222475Y-104848819D02*
X192317713Y-104801200D01*
X192317713Y-104801200D02*
X192365332Y-104753580D01*
D12*
%TO.C,J1*%
X128245200Y-107539624D02*
X128245200Y-86959624D01*
X128245200Y-95199624D02*
X126935200Y-95199624D01*
X128245200Y-86959624D02*
X119125200Y-86959624D01*
X126935200Y-106239624D02*
X126935200Y-99299624D01*
X126935200Y-99299624D02*
X128245200Y-99299624D01*
X126935200Y-99299624D02*
X126935200Y-99299624D01*
X126935200Y-95199624D02*
X126935200Y-88259624D01*
X126935200Y-88259624D02*
X120435200Y-88259624D01*
X120435200Y-106239624D02*
X126935200Y-106239624D01*
X120435200Y-88259624D02*
X120435200Y-106239624D01*
X119125200Y-107539624D02*
X128245200Y-107539624D01*
X119125200Y-86959624D02*
X119125200Y-107539624D01*
D11*
%TO.C,JP1*%
X116732000Y-99072424D02*
X117532000Y-99072424D01*
X117532000Y-99072424D02*
X118032000Y-98572424D01*
X116232000Y-98572424D02*
X116732000Y-99072424D01*
X118032000Y-98572424D02*
X118032000Y-94972424D01*
X116232000Y-94972424D02*
X116232000Y-98572424D01*
X118032000Y-94972424D02*
X117532000Y-94472424D01*
X116732000Y-94472424D02*
X116232000Y-94972424D01*
X117532000Y-94472424D02*
X116732000Y-94472424D01*
%TO.C,M1*%
X183172000Y-91712424D02*
X183172000Y-121712424D01*
X129832000Y-91712424D02*
X183172000Y-91712424D01*
X129832000Y-91712424D02*
X129832000Y-121712424D01*
X183172000Y-121712424D02*
X129832000Y-121712424D01*
D12*
%TO.C,C4*%
X204312000Y-128120000D02*
X201072000Y-128120000D01*
X204312000Y-128055000D02*
X204312000Y-128120000D01*
X204312000Y-125880000D02*
X204312000Y-125945000D01*
X204312000Y-125880000D02*
X201072000Y-125880000D01*
X201072000Y-128055000D02*
X201072000Y-128120000D01*
X201072000Y-125880000D02*
X201072000Y-125945000D01*
%TO.C,C7*%
X186024000Y-128120000D02*
X182784000Y-128120000D01*
X186024000Y-128055000D02*
X186024000Y-128120000D01*
X186024000Y-125880000D02*
X186024000Y-125945000D01*
X186024000Y-125880000D02*
X182784000Y-125880000D01*
X182784000Y-128055000D02*
X182784000Y-128120000D01*
X182784000Y-125880000D02*
X182784000Y-125945000D01*
%TO.C,C11*%
X173344000Y-124818000D02*
X170104000Y-124818000D01*
X173344000Y-124753000D02*
X173344000Y-124818000D01*
X173344000Y-122578000D02*
X173344000Y-122643000D01*
X173344000Y-122578000D02*
X170104000Y-122578000D01*
X170104000Y-124753000D02*
X170104000Y-124818000D01*
X170104000Y-122578000D02*
X170104000Y-122643000D01*
%TO.C,C1*%
X199232000Y-128120000D02*
X195992000Y-128120000D01*
X199232000Y-128055000D02*
X199232000Y-128120000D01*
X199232000Y-125880000D02*
X199232000Y-125945000D01*
X199232000Y-125880000D02*
X195992000Y-125880000D01*
X195992000Y-128055000D02*
X195992000Y-128120000D01*
X195992000Y-125880000D02*
X195992000Y-125945000D01*
%TO.C,C2*%
X204312000Y-107292000D02*
X201072000Y-107292000D01*
X204312000Y-107227000D02*
X204312000Y-107292000D01*
X204312000Y-105052000D02*
X204312000Y-105117000D01*
X204312000Y-105052000D02*
X201072000Y-105052000D01*
X201072000Y-107227000D02*
X201072000Y-107292000D01*
X201072000Y-105052000D02*
X201072000Y-105117000D01*
%TO.C,C5*%
X199232000Y-107292000D02*
X195992000Y-107292000D01*
X199232000Y-107227000D02*
X199232000Y-107292000D01*
X199232000Y-105052000D02*
X199232000Y-105117000D01*
X199232000Y-105052000D02*
X195992000Y-105052000D01*
X195992000Y-107227000D02*
X195992000Y-107292000D01*
X195992000Y-105052000D02*
X195992000Y-105117000D01*
%TO.C,C6*%
X194152000Y-128120000D02*
X190912000Y-128120000D01*
X194152000Y-128055000D02*
X194152000Y-128120000D01*
X194152000Y-125880000D02*
X194152000Y-125945000D01*
X194152000Y-125880000D02*
X190912000Y-125880000D01*
X190912000Y-128055000D02*
X190912000Y-128120000D01*
X190912000Y-125880000D02*
X190912000Y-125945000D01*
%TO.C,C8*%
X186004000Y-113896000D02*
X182764000Y-113896000D01*
X186004000Y-113831000D02*
X186004000Y-113896000D01*
X186004000Y-111656000D02*
X186004000Y-111721000D01*
X186004000Y-111656000D02*
X182764000Y-111656000D01*
X182764000Y-113831000D02*
X182764000Y-113896000D01*
X182764000Y-111656000D02*
X182764000Y-111721000D01*
%TO.C,C9*%
X186004000Y-99418000D02*
X182764000Y-99418000D01*
X186004000Y-99353000D02*
X186004000Y-99418000D01*
X186004000Y-97178000D02*
X186004000Y-97243000D01*
X186004000Y-97178000D02*
X182764000Y-97178000D01*
X182764000Y-99353000D02*
X182764000Y-99418000D01*
X182764000Y-97178000D02*
X182764000Y-97243000D01*
%TO.C,RN1*%
X164254000Y-100968000D02*
X138514000Y-100968000D01*
X164254000Y-98168000D02*
X164254000Y-100968000D01*
X161544000Y-98168000D02*
X161544000Y-100968000D01*
X138514000Y-100968000D02*
X138514000Y-98168000D01*
X138514000Y-98168000D02*
X164254000Y-98168000D01*
%TO.C,C10*%
X173344000Y-90528000D02*
X170104000Y-90528000D01*
X173344000Y-90463000D02*
X173344000Y-90528000D01*
X173344000Y-88288000D02*
X173344000Y-88353000D01*
X173344000Y-88288000D02*
X170104000Y-88288000D01*
X170104000Y-90463000D02*
X170104000Y-90528000D01*
X170104000Y-88288000D02*
X170104000Y-88353000D01*
%TO.C,C3*%
X194152000Y-107292000D02*
X190912000Y-107292000D01*
X194152000Y-107227000D02*
X194152000Y-107292000D01*
X194152000Y-105052000D02*
X194152000Y-105117000D01*
X194152000Y-105052000D02*
X190912000Y-105052000D01*
X190912000Y-107227000D02*
X190912000Y-107292000D01*
X190912000Y-105052000D02*
X190912000Y-105117000D01*
%TD*%
%LPC*%
D13*
%TO.C,U1*%
X115862000Y-90378424D03*
X115862000Y-124478424D03*
X177062000Y-90378424D03*
X177062000Y-124478424D03*
D14*
X114362000Y-97268424D03*
D15*
X114362000Y-99808424D03*
X114362000Y-102348424D03*
X114362000Y-104888424D03*
X114362000Y-107428424D03*
X114362000Y-109968424D03*
X114362000Y-112508424D03*
X114362000Y-115048424D03*
X114362000Y-117588424D03*
X177882000Y-102348424D03*
X177882000Y-104888424D03*
X177882000Y-107428424D03*
X177882000Y-109968424D03*
X177882000Y-112508424D03*
%TD*%
D16*
%TO.C,SW1*%
X195140000Y-102748724D03*
D17*
X200140000Y-102748724D03*
X197640000Y-102748724D03*
D18*
X192040000Y-95248724D03*
X203240000Y-95248724D03*
D17*
X200140000Y-88248724D03*
X195140000Y-88248724D03*
%TD*%
%TO.C,SW3*%
X187617000Y-103269424D03*
X187617000Y-109769424D03*
X183117000Y-103269424D03*
X183117000Y-109769424D03*
%TD*%
%TO.C,SW2*%
X187617000Y-117620424D03*
X187617000Y-124120424D03*
X183117000Y-117620424D03*
X183117000Y-124120424D03*
%TD*%
%TO.C,SW4*%
X187617000Y-88918424D03*
X187617000Y-95418424D03*
X183117000Y-88918424D03*
X183117000Y-95418424D03*
%TD*%
D16*
%TO.C,SW5*%
X195140000Y-123738424D03*
D17*
X200140000Y-123738424D03*
X197640000Y-123738424D03*
D18*
X192040000Y-116238424D03*
X203240000Y-116238424D03*
D17*
X200140000Y-109238424D03*
X195140000Y-109238424D03*
%TD*%
D19*
%TO.C,J1*%
X124955200Y-92169624D03*
D20*
X122415200Y-92169624D03*
X124955200Y-94709624D03*
X122415200Y-94709624D03*
X124955200Y-97249624D03*
X122415200Y-97249624D03*
X124955200Y-99789624D03*
X122415200Y-99789624D03*
X124955200Y-102329624D03*
X122415200Y-102329624D03*
%TD*%
D21*
%TO.C,JP1*%
X117132000Y-98042424D03*
X117132000Y-95502424D03*
%TD*%
D22*
%TO.C,M1*%
X173012000Y-119398424D03*
X170472000Y-119398424D03*
X167932000Y-119398424D03*
X165392000Y-119398424D03*
X162852000Y-119398424D03*
X160312000Y-119398424D03*
X157772000Y-119398424D03*
X155232000Y-119398424D03*
X152692000Y-119398424D03*
X150152000Y-119398424D03*
X147612000Y-119398424D03*
X145072000Y-119398424D03*
X142532000Y-119398424D03*
X139992000Y-119398424D03*
X137452000Y-119398424D03*
X137452000Y-93998424D03*
X139992000Y-93998424D03*
X142532000Y-93998424D03*
X145072000Y-93998424D03*
X147612000Y-93998424D03*
X150152000Y-93998424D03*
X152692000Y-93998424D03*
X155232000Y-93998424D03*
X157772000Y-93998424D03*
X160312000Y-93998424D03*
X162852000Y-93998424D03*
X165392000Y-93998424D03*
X167932000Y-93998424D03*
X170472000Y-93998424D03*
X173012000Y-93998424D03*
%TD*%
D23*
%TO.C,C4*%
X203942000Y-127000000D03*
X201442000Y-127000000D03*
%TD*%
%TO.C,C7*%
X185654000Y-127000000D03*
X183154000Y-127000000D03*
%TD*%
%TO.C,C11*%
X172974000Y-123698000D03*
X170474000Y-123698000D03*
%TD*%
%TO.C,C1*%
X198862000Y-127000000D03*
X196362000Y-127000000D03*
%TD*%
%TO.C,C2*%
X203942000Y-106172000D03*
X201442000Y-106172000D03*
%TD*%
%TO.C,C5*%
X198862000Y-106172000D03*
X196362000Y-106172000D03*
%TD*%
%TO.C,C6*%
X193782000Y-127000000D03*
X191282000Y-127000000D03*
%TD*%
%TO.C,C8*%
X185634000Y-112776000D03*
X183134000Y-112776000D03*
%TD*%
%TO.C,C9*%
X185634000Y-98298000D03*
X183134000Y-98298000D03*
%TD*%
D24*
%TO.C,RN1*%
X162814000Y-99568000D03*
D25*
X160274000Y-99568000D03*
X157734000Y-99568000D03*
X155194000Y-99568000D03*
X152654000Y-99568000D03*
X150114000Y-99568000D03*
X147574000Y-99568000D03*
X145034000Y-99568000D03*
X142494000Y-99568000D03*
X139954000Y-99568000D03*
%TD*%
D23*
%TO.C,C10*%
X172974000Y-89408000D03*
X170474000Y-89408000D03*
%TD*%
%TO.C,C3*%
X193782000Y-106172000D03*
X191282000Y-106172000D03*
%TD*%
%LPD*%
M02*
