%TF.GenerationSoftware,KiCad,Pcbnew,7.0.9*%
%TF.CreationDate,2024-03-08T21:06:40+01:00*%
%TF.ProjectId,SI4684 controller,53493436-3834-4206-936f-6e74726f6c6c,rev?*%
%TF.SameCoordinates,Original*%
%TF.FileFunction,Legend,Top*%
%TF.FilePolarity,Positive*%
%FSLAX46Y46*%
G04 Gerber Fmt 4.6, Leading zero omitted, Abs format (unit mm)*
G04 Created by KiCad (PCBNEW 7.0.9) date 2024-03-08 21:06:40*
%MOMM*%
%LPD*%
G01*
G04 APERTURE LIST*
G04 Aperture macros list*
%AMRoundRect*
0 Rectangle with rounded corners*
0 $1 Rounding radius*
0 $2 $3 $4 $5 $6 $7 $8 $9 X,Y pos of 4 corners*
0 Add a 4 corners polygon primitive as box body*
4,1,4,$2,$3,$4,$5,$6,$7,$8,$9,$2,$3,0*
0 Add four circle primitives for the rounded corners*
1,1,$1+$1,$2,$3*
1,1,$1+$1,$4,$5*
1,1,$1+$1,$6,$7*
1,1,$1+$1,$8,$9*
0 Add four rect primitives between the rounded corners*
20,1,$1+$1,$2,$3,$4,$5,0*
20,1,$1+$1,$4,$5,$6,$7,0*
20,1,$1+$1,$6,$7,$8,$9,0*
20,1,$1+$1,$8,$9,$2,$3,0*%
G04 Aperture macros list end*
%ADD10C,0.150000*%
%ADD11C,0.120000*%
%ADD12C,4.000000*%
%ADD13R,1.500000X1.500000*%
%ADD14C,1.500000*%
%ADD15R,2.000000X2.000000*%
%ADD16C,2.000000*%
%ADD17R,2.000000X3.200000*%
%ADD18RoundRect,0.250000X0.600000X0.600000X-0.600000X0.600000X-0.600000X-0.600000X0.600000X-0.600000X0*%
%ADD19C,1.700000*%
%ADD20C,1.400000*%
%ADD21O,1.524000X2.540000*%
%ADD22C,1.600000*%
%ADD23R,1.600000X1.600000*%
%ADD24O,1.600000X1.600000*%
G04 APERTURE END LIST*
D10*
X196278667Y-100991200D02*
X196421524Y-101038819D01*
X196421524Y-101038819D02*
X196659619Y-101038819D01*
X196659619Y-101038819D02*
X196754857Y-100991200D01*
X196754857Y-100991200D02*
X196802476Y-100943580D01*
X196802476Y-100943580D02*
X196850095Y-100848342D01*
X196850095Y-100848342D02*
X196850095Y-100753104D01*
X196850095Y-100753104D02*
X196802476Y-100657866D01*
X196802476Y-100657866D02*
X196754857Y-100610247D01*
X196754857Y-100610247D02*
X196659619Y-100562628D01*
X196659619Y-100562628D02*
X196469143Y-100515009D01*
X196469143Y-100515009D02*
X196373905Y-100467390D01*
X196373905Y-100467390D02*
X196326286Y-100419771D01*
X196326286Y-100419771D02*
X196278667Y-100324533D01*
X196278667Y-100324533D02*
X196278667Y-100229295D01*
X196278667Y-100229295D02*
X196326286Y-100134057D01*
X196326286Y-100134057D02*
X196373905Y-100086438D01*
X196373905Y-100086438D02*
X196469143Y-100038819D01*
X196469143Y-100038819D02*
X196707238Y-100038819D01*
X196707238Y-100038819D02*
X196850095Y-100086438D01*
X197183429Y-100038819D02*
X197421524Y-101038819D01*
X197421524Y-101038819D02*
X197612000Y-100324533D01*
X197612000Y-100324533D02*
X197802476Y-101038819D01*
X197802476Y-101038819D02*
X198040572Y-100038819D01*
X198945333Y-101038819D02*
X198373905Y-101038819D01*
X198659619Y-101038819D02*
X198659619Y-100038819D01*
X198659619Y-100038819D02*
X198564381Y-100181676D01*
X198564381Y-100181676D02*
X198469143Y-100276914D01*
X198469143Y-100276914D02*
X198373905Y-100324533D01*
X185827200Y-107852756D02*
X185874819Y-107709899D01*
X185874819Y-107709899D02*
X185874819Y-107471804D01*
X185874819Y-107471804D02*
X185827200Y-107376566D01*
X185827200Y-107376566D02*
X185779580Y-107328947D01*
X185779580Y-107328947D02*
X185684342Y-107281328D01*
X185684342Y-107281328D02*
X185589104Y-107281328D01*
X185589104Y-107281328D02*
X185493866Y-107328947D01*
X185493866Y-107328947D02*
X185446247Y-107376566D01*
X185446247Y-107376566D02*
X185398628Y-107471804D01*
X185398628Y-107471804D02*
X185351009Y-107662280D01*
X185351009Y-107662280D02*
X185303390Y-107757518D01*
X185303390Y-107757518D02*
X185255771Y-107805137D01*
X185255771Y-107805137D02*
X185160533Y-107852756D01*
X185160533Y-107852756D02*
X185065295Y-107852756D01*
X185065295Y-107852756D02*
X184970057Y-107805137D01*
X184970057Y-107805137D02*
X184922438Y-107757518D01*
X184922438Y-107757518D02*
X184874819Y-107662280D01*
X184874819Y-107662280D02*
X184874819Y-107424185D01*
X184874819Y-107424185D02*
X184922438Y-107281328D01*
X184874819Y-106947994D02*
X185874819Y-106709899D01*
X185874819Y-106709899D02*
X185160533Y-106519423D01*
X185160533Y-106519423D02*
X185874819Y-106328947D01*
X185874819Y-106328947D02*
X184874819Y-106090852D01*
X184874819Y-105805137D02*
X184874819Y-105186090D01*
X184874819Y-105186090D02*
X185255771Y-105519423D01*
X185255771Y-105519423D02*
X185255771Y-105376566D01*
X185255771Y-105376566D02*
X185303390Y-105281328D01*
X185303390Y-105281328D02*
X185351009Y-105233709D01*
X185351009Y-105233709D02*
X185446247Y-105186090D01*
X185446247Y-105186090D02*
X185684342Y-105186090D01*
X185684342Y-105186090D02*
X185779580Y-105233709D01*
X185779580Y-105233709D02*
X185827200Y-105281328D01*
X185827200Y-105281328D02*
X185874819Y-105376566D01*
X185874819Y-105376566D02*
X185874819Y-105662280D01*
X185874819Y-105662280D02*
X185827200Y-105757518D01*
X185827200Y-105757518D02*
X185779580Y-105805137D01*
X185827200Y-122203756D02*
X185874819Y-122060899D01*
X185874819Y-122060899D02*
X185874819Y-121822804D01*
X185874819Y-121822804D02*
X185827200Y-121727566D01*
X185827200Y-121727566D02*
X185779580Y-121679947D01*
X185779580Y-121679947D02*
X185684342Y-121632328D01*
X185684342Y-121632328D02*
X185589104Y-121632328D01*
X185589104Y-121632328D02*
X185493866Y-121679947D01*
X185493866Y-121679947D02*
X185446247Y-121727566D01*
X185446247Y-121727566D02*
X185398628Y-121822804D01*
X185398628Y-121822804D02*
X185351009Y-122013280D01*
X185351009Y-122013280D02*
X185303390Y-122108518D01*
X185303390Y-122108518D02*
X185255771Y-122156137D01*
X185255771Y-122156137D02*
X185160533Y-122203756D01*
X185160533Y-122203756D02*
X185065295Y-122203756D01*
X185065295Y-122203756D02*
X184970057Y-122156137D01*
X184970057Y-122156137D02*
X184922438Y-122108518D01*
X184922438Y-122108518D02*
X184874819Y-122013280D01*
X184874819Y-122013280D02*
X184874819Y-121775185D01*
X184874819Y-121775185D02*
X184922438Y-121632328D01*
X184874819Y-121298994D02*
X185874819Y-121060899D01*
X185874819Y-121060899D02*
X185160533Y-120870423D01*
X185160533Y-120870423D02*
X185874819Y-120679947D01*
X185874819Y-120679947D02*
X184874819Y-120441852D01*
X184970057Y-120108518D02*
X184922438Y-120060899D01*
X184922438Y-120060899D02*
X184874819Y-119965661D01*
X184874819Y-119965661D02*
X184874819Y-119727566D01*
X184874819Y-119727566D02*
X184922438Y-119632328D01*
X184922438Y-119632328D02*
X184970057Y-119584709D01*
X184970057Y-119584709D02*
X185065295Y-119537090D01*
X185065295Y-119537090D02*
X185160533Y-119537090D01*
X185160533Y-119537090D02*
X185303390Y-119584709D01*
X185303390Y-119584709D02*
X185874819Y-120156137D01*
X185874819Y-120156137D02*
X185874819Y-119537090D01*
X185827200Y-93535332D02*
X185874819Y-93392475D01*
X185874819Y-93392475D02*
X185874819Y-93154380D01*
X185874819Y-93154380D02*
X185827200Y-93059142D01*
X185827200Y-93059142D02*
X185779580Y-93011523D01*
X185779580Y-93011523D02*
X185684342Y-92963904D01*
X185684342Y-92963904D02*
X185589104Y-92963904D01*
X185589104Y-92963904D02*
X185493866Y-93011523D01*
X185493866Y-93011523D02*
X185446247Y-93059142D01*
X185446247Y-93059142D02*
X185398628Y-93154380D01*
X185398628Y-93154380D02*
X185351009Y-93344856D01*
X185351009Y-93344856D02*
X185303390Y-93440094D01*
X185303390Y-93440094D02*
X185255771Y-93487713D01*
X185255771Y-93487713D02*
X185160533Y-93535332D01*
X185160533Y-93535332D02*
X185065295Y-93535332D01*
X185065295Y-93535332D02*
X184970057Y-93487713D01*
X184970057Y-93487713D02*
X184922438Y-93440094D01*
X184922438Y-93440094D02*
X184874819Y-93344856D01*
X184874819Y-93344856D02*
X184874819Y-93106761D01*
X184874819Y-93106761D02*
X184922438Y-92963904D01*
X184874819Y-92630570D02*
X185874819Y-92392475D01*
X185874819Y-92392475D02*
X185160533Y-92201999D01*
X185160533Y-92201999D02*
X185874819Y-92011523D01*
X185874819Y-92011523D02*
X184874819Y-91773428D01*
X185208152Y-90963904D02*
X185874819Y-90963904D01*
X184827200Y-91201999D02*
X185541485Y-91440094D01*
X185541485Y-91440094D02*
X185541485Y-90821047D01*
X196278667Y-121819200D02*
X196421524Y-121866819D01*
X196421524Y-121866819D02*
X196659619Y-121866819D01*
X196659619Y-121866819D02*
X196754857Y-121819200D01*
X196754857Y-121819200D02*
X196802476Y-121771580D01*
X196802476Y-121771580D02*
X196850095Y-121676342D01*
X196850095Y-121676342D02*
X196850095Y-121581104D01*
X196850095Y-121581104D02*
X196802476Y-121485866D01*
X196802476Y-121485866D02*
X196754857Y-121438247D01*
X196754857Y-121438247D02*
X196659619Y-121390628D01*
X196659619Y-121390628D02*
X196469143Y-121343009D01*
X196469143Y-121343009D02*
X196373905Y-121295390D01*
X196373905Y-121295390D02*
X196326286Y-121247771D01*
X196326286Y-121247771D02*
X196278667Y-121152533D01*
X196278667Y-121152533D02*
X196278667Y-121057295D01*
X196278667Y-121057295D02*
X196326286Y-120962057D01*
X196326286Y-120962057D02*
X196373905Y-120914438D01*
X196373905Y-120914438D02*
X196469143Y-120866819D01*
X196469143Y-120866819D02*
X196707238Y-120866819D01*
X196707238Y-120866819D02*
X196850095Y-120914438D01*
X197183429Y-120866819D02*
X197421524Y-121866819D01*
X197421524Y-121866819D02*
X197612000Y-121152533D01*
X197612000Y-121152533D02*
X197802476Y-121866819D01*
X197802476Y-121866819D02*
X198040572Y-120866819D01*
X198897714Y-120866819D02*
X198421524Y-120866819D01*
X198421524Y-120866819D02*
X198373905Y-121343009D01*
X198373905Y-121343009D02*
X198421524Y-121295390D01*
X198421524Y-121295390D02*
X198516762Y-121247771D01*
X198516762Y-121247771D02*
X198754857Y-121247771D01*
X198754857Y-121247771D02*
X198850095Y-121295390D01*
X198850095Y-121295390D02*
X198897714Y-121343009D01*
X198897714Y-121343009D02*
X198945333Y-121438247D01*
X198945333Y-121438247D02*
X198945333Y-121676342D01*
X198945333Y-121676342D02*
X198897714Y-121771580D01*
X198897714Y-121771580D02*
X198850095Y-121819200D01*
X198850095Y-121819200D02*
X198754857Y-121866819D01*
X198754857Y-121866819D02*
X198516762Y-121866819D01*
X198516762Y-121866819D02*
X198421524Y-121819200D01*
X198421524Y-121819200D02*
X198373905Y-121771580D01*
D11*
%TO.C,U1*%
X112362000Y-94268424D02*
X112362000Y-99268424D01*
X112742000Y-87258424D02*
X180182000Y-87258424D01*
X112742000Y-127598424D02*
X112742000Y-87258424D01*
X120362000Y-89268424D02*
X172362000Y-89268424D01*
X120362000Y-125268424D02*
X120362000Y-89268424D01*
X172362000Y-89268424D02*
X172362000Y-125268424D01*
X172362000Y-125268424D02*
X120362000Y-125268424D01*
X180182000Y-87258424D02*
X180182000Y-127598424D01*
X180182000Y-127598424D02*
X112742000Y-127598424D01*
%TO.C,SW1*%
X193540000Y-103048724D02*
X193540000Y-102448724D01*
X193840000Y-102748724D02*
X193540000Y-103048724D01*
X193540000Y-102448724D02*
X193840000Y-102748724D01*
X191740000Y-101348724D02*
X203540000Y-101348724D01*
X191740000Y-97248724D02*
X191740000Y-101348724D01*
X203540000Y-97248724D02*
X203540000Y-101348724D01*
X197640000Y-95748724D02*
X197640000Y-94748724D01*
X197140000Y-95248724D02*
X198140000Y-95248724D01*
X191740000Y-93248724D02*
X191740000Y-89148724D01*
X191740000Y-89148724D02*
X194140000Y-89148724D01*
X196340000Y-89148724D02*
X198940000Y-89148724D01*
X201140000Y-89148724D02*
X203540000Y-89148724D01*
X203540000Y-89148724D02*
X203540000Y-93248724D01*
X200640000Y-95248724D02*
G75*
G03*
X200640000Y-95248724I-3000000J0D01*
G01*
%TO.C,SW3*%
X186117000Y-103019424D02*
X184617000Y-103019424D01*
X182117000Y-104269424D02*
X182117000Y-108769424D01*
X188617000Y-108769424D02*
X188617000Y-104269424D01*
X184617000Y-110019424D02*
X186117000Y-110019424D01*
%TO.C,SW2*%
X186117000Y-117370424D02*
X184617000Y-117370424D01*
X182117000Y-118620424D02*
X182117000Y-123120424D01*
X188617000Y-123120424D02*
X188617000Y-118620424D01*
X184617000Y-124370424D02*
X186117000Y-124370424D01*
%TO.C,SW4*%
X186117000Y-88668424D02*
X184617000Y-88668424D01*
X182117000Y-89918424D02*
X182117000Y-94418424D01*
X188617000Y-94418424D02*
X188617000Y-89918424D01*
X184617000Y-95668424D02*
X186117000Y-95668424D01*
%TO.C,SW5*%
X193540000Y-124038424D02*
X193540000Y-123438424D01*
X193840000Y-123738424D02*
X193540000Y-124038424D01*
X193540000Y-123438424D02*
X193840000Y-123738424D01*
X191740000Y-122338424D02*
X203540000Y-122338424D01*
X191740000Y-118238424D02*
X191740000Y-122338424D01*
X203540000Y-118238424D02*
X203540000Y-122338424D01*
X197640000Y-116738424D02*
X197640000Y-115738424D01*
X197140000Y-116238424D02*
X198140000Y-116238424D01*
X191740000Y-114238424D02*
X191740000Y-110138424D01*
X191740000Y-110138424D02*
X194140000Y-110138424D01*
X196340000Y-110138424D02*
X198940000Y-110138424D01*
X201140000Y-110138424D02*
X203540000Y-110138424D01*
X203540000Y-110138424D02*
X203540000Y-114238424D01*
X200640000Y-116238424D02*
G75*
G03*
X200640000Y-116238424I-3000000J0D01*
G01*
%TD*%
%LPC*%
D12*
%TO.C,U1*%
X115862000Y-90378424D03*
X115862000Y-124478424D03*
X177062000Y-90378424D03*
X177062000Y-124478424D03*
D13*
X114362000Y-97268424D03*
D14*
X114362000Y-99808424D03*
X114362000Y-102348424D03*
X114362000Y-104888424D03*
X114362000Y-107428424D03*
X114362000Y-109968424D03*
X114362000Y-112508424D03*
X114362000Y-115048424D03*
X114362000Y-117588424D03*
X177882000Y-102348424D03*
X177882000Y-104888424D03*
X177882000Y-107428424D03*
X177882000Y-109968424D03*
X177882000Y-112508424D03*
%TD*%
D15*
%TO.C,SW1*%
X195140000Y-102748724D03*
D16*
X200140000Y-102748724D03*
X197640000Y-102748724D03*
D17*
X192040000Y-95248724D03*
X203240000Y-95248724D03*
D16*
X200140000Y-88248724D03*
X195140000Y-88248724D03*
%TD*%
%TO.C,SW3*%
X187617000Y-103269424D03*
X187617000Y-109769424D03*
X183117000Y-103269424D03*
X183117000Y-109769424D03*
%TD*%
%TO.C,SW2*%
X187617000Y-117620424D03*
X187617000Y-124120424D03*
X183117000Y-117620424D03*
X183117000Y-124120424D03*
%TD*%
%TO.C,SW4*%
X187617000Y-88918424D03*
X187617000Y-95418424D03*
X183117000Y-88918424D03*
X183117000Y-95418424D03*
%TD*%
D15*
%TO.C,SW5*%
X195140000Y-123738424D03*
D16*
X200140000Y-123738424D03*
X197640000Y-123738424D03*
D17*
X192040000Y-116238424D03*
X203240000Y-116238424D03*
D16*
X200140000Y-109238424D03*
X195140000Y-109238424D03*
%TD*%
D18*
%TO.C,J1*%
X124955200Y-92169624D03*
D19*
X122415200Y-92169624D03*
X124955200Y-94709624D03*
X122415200Y-94709624D03*
X124955200Y-97249624D03*
X122415200Y-97249624D03*
X124955200Y-99789624D03*
X122415200Y-99789624D03*
X124955200Y-102329624D03*
X122415200Y-102329624D03*
%TD*%
D20*
%TO.C,JP1*%
X117132000Y-98042424D03*
X117132000Y-95502424D03*
%TD*%
D21*
%TO.C,M1*%
X173012000Y-119398424D03*
X170472000Y-119398424D03*
X167932000Y-119398424D03*
X165392000Y-119398424D03*
X162852000Y-119398424D03*
X160312000Y-119398424D03*
X157772000Y-119398424D03*
X155232000Y-119398424D03*
X152692000Y-119398424D03*
X150152000Y-119398424D03*
X147612000Y-119398424D03*
X145072000Y-119398424D03*
X142532000Y-119398424D03*
X139992000Y-119398424D03*
X137452000Y-119398424D03*
X137452000Y-93998424D03*
X139992000Y-93998424D03*
X142532000Y-93998424D03*
X145072000Y-93998424D03*
X147612000Y-93998424D03*
X150152000Y-93998424D03*
X152692000Y-93998424D03*
X155232000Y-93998424D03*
X157772000Y-93998424D03*
X160312000Y-93998424D03*
X162852000Y-93998424D03*
X165392000Y-93998424D03*
X167932000Y-93998424D03*
X170472000Y-93998424D03*
X173012000Y-93998424D03*
%TD*%
D22*
%TO.C,C4*%
X203942000Y-127000000D03*
X201442000Y-127000000D03*
%TD*%
%TO.C,C7*%
X185654000Y-127000000D03*
X183154000Y-127000000D03*
%TD*%
%TO.C,C11*%
X172974000Y-123698000D03*
X170474000Y-123698000D03*
%TD*%
%TO.C,C1*%
X198862000Y-127000000D03*
X196362000Y-127000000D03*
%TD*%
%TO.C,C2*%
X203942000Y-106172000D03*
X201442000Y-106172000D03*
%TD*%
%TO.C,C5*%
X198862000Y-106172000D03*
X196362000Y-106172000D03*
%TD*%
%TO.C,C6*%
X193782000Y-127000000D03*
X191282000Y-127000000D03*
%TD*%
%TO.C,C8*%
X185634000Y-112776000D03*
X183134000Y-112776000D03*
%TD*%
%TO.C,C9*%
X185634000Y-98298000D03*
X183134000Y-98298000D03*
%TD*%
D23*
%TO.C,RN1*%
X162814000Y-99568000D03*
D24*
X160274000Y-99568000D03*
X157734000Y-99568000D03*
X155194000Y-99568000D03*
X152654000Y-99568000D03*
X150114000Y-99568000D03*
X147574000Y-99568000D03*
X145034000Y-99568000D03*
X142494000Y-99568000D03*
X139954000Y-99568000D03*
%TD*%
D22*
%TO.C,C10*%
X172974000Y-89408000D03*
X170474000Y-89408000D03*
%TD*%
%TO.C,C3*%
X193782000Y-106172000D03*
X191282000Y-106172000D03*
%TD*%
%LPD*%
M02*
