%TF.GenerationSoftware,KiCad,Pcbnew,7.0.9*%
%TF.CreationDate,2024-03-08T21:09:09+01:00*%
%TF.ProjectId,SI4684,53493436-3834-42e6-9b69-6361645f7063,A*%
%TF.SameCoordinates,Original*%
%TF.FileFunction,Paste,Top*%
%TF.FilePolarity,Positive*%
%FSLAX46Y46*%
G04 Gerber Fmt 4.6, Leading zero omitted, Abs format (unit mm)*
G04 Created by KiCad (PCBNEW 7.0.9) date 2024-03-08 21:09:09*
%MOMM*%
%LPD*%
G01*
G04 APERTURE LIST*
G04 Aperture macros list*
%AMRoundRect*
0 Rectangle with rounded corners*
0 $1 Rounding radius*
0 $2 $3 $4 $5 $6 $7 $8 $9 X,Y pos of 4 corners*
0 Add a 4 corners polygon primitive as box body*
4,1,4,$2,$3,$4,$5,$6,$7,$8,$9,$2,$3,0*
0 Add four circle primitives for the rounded corners*
1,1,$1+$1,$2,$3*
1,1,$1+$1,$4,$5*
1,1,$1+$1,$6,$7*
1,1,$1+$1,$8,$9*
0 Add four rect primitives between the rounded corners*
20,1,$1+$1,$2,$3,$4,$5,0*
20,1,$1+$1,$4,$5,$6,$7,0*
20,1,$1+$1,$6,$7,$8,$9,0*
20,1,$1+$1,$8,$9,$2,$3,0*%
G04 Aperture macros list end*
%ADD10RoundRect,0.225000X-0.225000X-0.250000X0.225000X-0.250000X0.225000X0.250000X-0.225000X0.250000X0*%
%ADD11RoundRect,0.225000X-0.250000X0.225000X-0.250000X-0.225000X0.250000X-0.225000X0.250000X0.225000X0*%
%ADD12R,1.200000X1.400000*%
%ADD13RoundRect,0.150000X-0.587500X-0.150000X0.587500X-0.150000X0.587500X0.150000X-0.587500X0.150000X0*%
%ADD14RoundRect,0.200000X0.275000X-0.200000X0.275000X0.200000X-0.275000X0.200000X-0.275000X-0.200000X0*%
%ADD15RoundRect,0.218750X0.256250X-0.218750X0.256250X0.218750X-0.256250X0.218750X-0.256250X-0.218750X0*%
%ADD16RoundRect,0.200000X-0.200000X-0.275000X0.200000X-0.275000X0.200000X0.275000X-0.200000X0.275000X0*%
%ADD17RoundRect,0.225000X0.250000X-0.225000X0.250000X0.225000X-0.250000X0.225000X-0.250000X-0.225000X0*%
%ADD18RoundRect,0.250000X-0.295000X-0.295000X0.295000X-0.295000X0.295000X0.295000X-0.295000X0.295000X0*%
%ADD19RoundRect,0.062500X-0.337500X-0.062500X0.337500X-0.062500X0.337500X0.062500X-0.337500X0.062500X0*%
%ADD20RoundRect,0.062500X-0.062500X-0.337500X0.062500X-0.337500X0.062500X0.337500X-0.062500X0.337500X0*%
%ADD21RoundRect,0.225000X0.225000X0.250000X-0.225000X0.250000X-0.225000X-0.250000X0.225000X-0.250000X0*%
%ADD22RoundRect,0.200000X0.200000X0.275000X-0.200000X0.275000X-0.200000X-0.275000X0.200000X-0.275000X0*%
%ADD23RoundRect,0.250000X0.285000X-0.285000X0.285000X0.285000X-0.285000X0.285000X-0.285000X-0.285000X0*%
%ADD24RoundRect,0.062500X0.062500X-0.337500X0.062500X0.337500X-0.062500X0.337500X-0.062500X-0.337500X0*%
%ADD25RoundRect,0.062500X0.337500X-0.062500X0.337500X0.062500X-0.337500X0.062500X-0.337500X-0.062500X0*%
%ADD26RoundRect,0.218750X-0.256250X0.218750X-0.256250X-0.218750X0.256250X-0.218750X0.256250X0.218750X0*%
%ADD27RoundRect,0.150000X-0.512500X-0.150000X0.512500X-0.150000X0.512500X0.150000X-0.512500X0.150000X0*%
G04 APERTURE END LIST*
D10*
%TO.C,C17*%
X123409800Y-106451400D03*
X124959800Y-106451400D03*
%TD*%
D11*
%TO.C,C5*%
X120083000Y-116280600D03*
X120083000Y-117830600D03*
%TD*%
D12*
%TO.C,X1*%
X123564600Y-108551800D03*
X123564600Y-110751800D03*
X125264600Y-110751800D03*
X125264600Y-108551800D03*
%TD*%
D13*
%TO.C,D1*%
X122091900Y-122494000D03*
X122091900Y-124394000D03*
X123966900Y-123444000D03*
%TD*%
D14*
%TO.C,R5*%
X120142000Y-102539800D03*
X120142000Y-100889800D03*
%TD*%
D15*
%TO.C,L1*%
X122013400Y-117830600D03*
X122013400Y-116255600D03*
%TD*%
D10*
%TO.C,C35*%
X107789400Y-99136200D03*
X109339400Y-99136200D03*
%TD*%
%TO.C,C19*%
X126987000Y-78232000D03*
X128537000Y-78232000D03*
%TD*%
D15*
%TO.C,L2*%
X125925000Y-117830800D03*
X125925000Y-116255800D03*
%TD*%
D16*
%TO.C,R10*%
X128080000Y-82042000D03*
X129730000Y-82042000D03*
%TD*%
D14*
%TO.C,R25*%
X113284000Y-117919000D03*
X113284000Y-116269000D03*
%TD*%
D10*
%TO.C,C26*%
X111180000Y-99136200D03*
X112730000Y-99136200D03*
%TD*%
D14*
%TO.C,R11*%
X130556000Y-80073000D03*
X130556000Y-78423000D03*
%TD*%
D17*
%TO.C,C7*%
X123943800Y-114402200D03*
X123943800Y-112852200D03*
%TD*%
%TO.C,C29*%
X109364200Y-102489800D03*
X109364200Y-100939800D03*
%TD*%
%TO.C,C12*%
X121962600Y-114402200D03*
X121962600Y-112852200D03*
%TD*%
D18*
%TO.C,U5*%
X122597000Y-77573000D03*
X122597000Y-78923000D03*
X123947000Y-77573000D03*
X123947000Y-78923000D03*
D19*
X121322000Y-77248000D03*
X121322000Y-77748000D03*
X121322000Y-78248000D03*
X121322000Y-78748000D03*
X121322000Y-79248000D03*
D20*
X122272000Y-80198000D03*
X122772000Y-80198000D03*
X123272000Y-80198000D03*
X123772000Y-80198000D03*
X124272000Y-80198000D03*
D19*
X125222000Y-79248000D03*
X125222000Y-78748000D03*
X125222000Y-78248000D03*
X125222000Y-77748000D03*
X125222000Y-77248000D03*
D20*
X124272000Y-76298000D03*
X123772000Y-76298000D03*
X123272000Y-76298000D03*
X122772000Y-76298000D03*
X122272000Y-76298000D03*
%TD*%
D17*
%TO.C,C3*%
X123943800Y-117805800D03*
X123943800Y-116255800D03*
%TD*%
D14*
%TO.C,R26*%
X111252000Y-117919000D03*
X111252000Y-116269000D03*
%TD*%
D21*
%TO.C,C40*%
X110786600Y-106959400D03*
X109236600Y-106959400D03*
%TD*%
D22*
%TO.C,R8*%
X122237000Y-82042000D03*
X120587000Y-82042000D03*
%TD*%
D21*
%TO.C,C41*%
X110786600Y-108889800D03*
X109236600Y-108889800D03*
%TD*%
D16*
%TO.C,R1*%
X116968000Y-82042000D03*
X118618000Y-82042000D03*
%TD*%
D23*
%TO.C,U3*%
X114684600Y-110518600D03*
X116004600Y-110518600D03*
X117324600Y-110518600D03*
X118644600Y-110518600D03*
X114684600Y-109198600D03*
X116004600Y-109198600D03*
X117324600Y-109198600D03*
X118644600Y-109198600D03*
X114684600Y-107878600D03*
X116004600Y-107878600D03*
X117324600Y-107878600D03*
X118644600Y-107878600D03*
X114684600Y-106558600D03*
X116004600Y-106558600D03*
X117324600Y-106558600D03*
X118644600Y-106558600D03*
D24*
X113914600Y-111988600D03*
X114414600Y-111988600D03*
X114914600Y-111988600D03*
X115414600Y-111988600D03*
X115914600Y-111988600D03*
X116414600Y-111988600D03*
X116914600Y-111988600D03*
X117414600Y-111988600D03*
X117914600Y-111988600D03*
X118414600Y-111988600D03*
X118914600Y-111988600D03*
X119414600Y-111988600D03*
D25*
X120114600Y-111288600D03*
X120114600Y-110788600D03*
X120114600Y-110288600D03*
X120114600Y-109788600D03*
X120114600Y-109288600D03*
X120114600Y-108788600D03*
X120114600Y-108288600D03*
X120114600Y-107788600D03*
X120114600Y-107288600D03*
X120114600Y-106788600D03*
X120114600Y-106288600D03*
X120114600Y-105788600D03*
D24*
X119414600Y-105088600D03*
X118914600Y-105088600D03*
X118414600Y-105088600D03*
X117914600Y-105088600D03*
X117414600Y-105088600D03*
X116914600Y-105088600D03*
X116414600Y-105088600D03*
X115914600Y-105088600D03*
X115414600Y-105088600D03*
X114914600Y-105088600D03*
X114414600Y-105088600D03*
X113914600Y-105088600D03*
D25*
X113214600Y-105788600D03*
X113214600Y-106288600D03*
X113214600Y-106788600D03*
X113214600Y-107288600D03*
X113214600Y-107788600D03*
X113214600Y-108288600D03*
X113214600Y-108788600D03*
X113214600Y-109288600D03*
X113214600Y-109788600D03*
X113214600Y-110288600D03*
X113214600Y-110788600D03*
X113214600Y-111288600D03*
%TD*%
D10*
%TO.C,C15*%
X126987000Y-80010000D03*
X128537000Y-80010000D03*
%TD*%
D21*
%TO.C,C38*%
X110799600Y-105130600D03*
X109249600Y-105130600D03*
%TD*%
D14*
%TO.C,R3*%
X116586000Y-102539800D03*
X116586000Y-100889800D03*
%TD*%
D26*
%TO.C,L3*%
X118152600Y-116255600D03*
X118152600Y-117830600D03*
%TD*%
D17*
%TO.C,C6*%
X125925000Y-114402200D03*
X125925000Y-112852200D03*
%TD*%
D15*
%TO.C,L4*%
X116120600Y-117830800D03*
X116120600Y-116255800D03*
%TD*%
D14*
%TO.C,R2*%
X114808000Y-102539800D03*
X114808000Y-100889800D03*
%TD*%
D17*
%TO.C,C14*%
X119634000Y-74435000D03*
X119634000Y-72885000D03*
%TD*%
D10*
%TO.C,C4*%
X109207000Y-110744000D03*
X110757000Y-110744000D03*
%TD*%
D14*
%TO.C,R4*%
X118364000Y-102539800D03*
X118364000Y-100889800D03*
%TD*%
D10*
%TO.C,C21*%
X126974000Y-76454000D03*
X128524000Y-76454000D03*
%TD*%
D17*
%TO.C,C30*%
X107535400Y-102489800D03*
X107535400Y-100939800D03*
%TD*%
%TO.C,C25*%
X111193000Y-102489800D03*
X111193000Y-100939800D03*
%TD*%
%TO.C,C23*%
X113021800Y-102489800D03*
X113021800Y-100939800D03*
%TD*%
%TO.C,C18*%
X121412000Y-74448000D03*
X121412000Y-72898000D03*
%TD*%
D10*
%TO.C,C34*%
X131813000Y-82042000D03*
X133363000Y-82042000D03*
%TD*%
D21*
%TO.C,C1*%
X107455000Y-110744000D03*
X105905000Y-110744000D03*
%TD*%
D27*
%TO.C,U1*%
X106945000Y-112908000D03*
X106945000Y-113858000D03*
X106945000Y-114808000D03*
X109220000Y-114808000D03*
X109220000Y-112908000D03*
%TD*%
D11*
%TO.C,C39*%
X132461000Y-78473000D03*
X132461000Y-80023000D03*
%TD*%
D16*
%TO.C,R9*%
X124334000Y-82042000D03*
X125984000Y-82042000D03*
%TD*%
M02*
