M48
INCH
T1C0.0157
T2C0.0295
T3C0.0315
T4C0.0394
T5C0.0433
T6C0.0472
T7C0.0512
T8C0.0591
T9C0.0669
T10C0.1378
%
G90
G05
T1
X4.0474Y-3.72
X4.0474Y-3.82
X4.0474Y-3.92
X4.0474Y-4.02
X4.0474Y-4.12
X4.0474Y-4.22
X4.0474Y-4.32
X4.0474Y-4.42
X4.0474Y-4.52
X4.0474Y-4.62
X4.0474Y-4.7
X4.1Y-3.8
X4.1Y-3.85
X4.1Y-3.9
X4.1Y-3.95
X4.1Y-4.0
X4.1Y-4.05
X4.1Y-4.1
X4.1Y-4.15
X4.1Y-4.2
X4.1Y-4.25
X4.1Y-4.3
X4.1Y-4.35
X4.1Y-4.4
X4.1Y-4.45
X4.1Y-4.5
X4.1Y-4.55
X4.1Y-4.6
X4.1Y-4.65
X4.11Y-4.71
X4.12Y-3.72
X4.15Y-4.55
X4.15Y-4.6
X4.15Y-4.65
X4.17Y-4.36
X4.2Y-4.6
X4.2Y-4.65
X4.2Y-4.7
X4.25Y-3.75
X4.25Y-3.85
X4.25Y-4.6
X4.25Y-4.65
X4.255Y-4.4825
X4.2687Y-4.09
X4.2691Y-3.9408
X4.29Y-3.72
X4.3Y-4.6
X4.3Y-4.65
X4.35Y-3.72
X4.35Y-4.4
X4.35Y-4.5
X4.36Y-4.36
X4.38Y-4.5775
X4.4Y-4.4
X4.4Y-4.5
X4.42Y-3.75
X4.45Y-4.45
X4.45Y-4.7
X4.46Y-4.5775
X4.4637Y-3.75
X4.5Y-3.8
X4.5Y-3.85
X4.5Y-3.9
X4.51Y-4.71
X4.5163Y-4.4584
X4.5187Y-4.2
X4.5187Y-4.25
X4.5187Y-4.3
X4.5187Y-4.35
X4.53Y-3.72
X4.55Y-3.8
X4.5557Y-4.459
X4.56Y-4.71
X4.5687Y-4.2
X4.5687Y-4.25
X4.5687Y-4.3
X4.5687Y-4.35
X4.59Y-3.72
X4.6187Y-4.2
X4.6187Y-4.25
X4.6187Y-4.3
X4.6187Y-4.35
X4.65Y-4.7
X4.6521Y-4.6391
X4.6687Y-4.2
X4.6687Y-4.25
X4.6687Y-4.3
X4.6687Y-4.35
X4.7Y-4.5
X4.7Y-4.7
X4.71Y-2.87
X4.7273Y-4.6395
X4.7474Y-4.8163
X4.7474Y-4.8663
X4.7474Y-4.9163
X4.75Y-3.8
X4.75Y-3.85
X4.75Y-3.9
X4.75Y-4.45
X4.76Y-4.71
X4.78Y-2.87
X4.8Y-3.8
X4.8Y-3.85
X4.8174Y-4.7163
X4.8174Y-4.7763
X4.8174Y-4.9563
X4.818Y-3.045
X4.818Y-3.08
X4.818Y-3.115
X4.85Y-3.8
X4.85Y-3.95
X4.85Y-4.0
X4.85Y-4.05
X4.85Y-4.1
X4.853Y-3.045
X4.853Y-3.08
X4.853Y-3.115
X4.8637Y-4.36
X4.888Y-3.045
X4.888Y-3.08
X4.888Y-3.115
X4.9Y-3.9
X4.9Y-3.95
X4.9Y-4.0
X4.9Y-4.05
X4.9Y-4.1
X4.9187Y-4.19
X4.9337Y-4.275
X4.9374Y-4.7163
X4.9374Y-4.7763
X4.9374Y-4.8363
X4.9374Y-4.9
X4.9374Y-4.9563
X4.95Y-3.85
X4.95Y-3.9
X4.95Y-3.95
X4.95Y-4.0
X4.95Y-4.05
X4.95Y-4.1
X4.99Y-4.71
X5.0Y-3.72
X5.0Y-3.8
X5.0Y-3.85
X5.0Y-3.9
X5.0Y-3.95
X5.0Y-4.0
X5.0Y-4.05
X5.0Y-4.1
X5.0Y-4.15
X5.05Y-3.72
X5.05Y-3.82
X5.05Y-3.92
X5.05Y-4.02
X5.05Y-4.12
X5.05Y-4.22
X5.05Y-4.32
X5.05Y-4.42
X5.05Y-4.52
X5.05Y-4.62
X5.05Y-4.71
X5.06Y-3.01
X5.06Y-3.08
X5.06Y-3.15
X5.2159Y-3.1509
X5.2509Y-3.2297
X7.39Y-4.25
T2
X5.1983Y-2.8013
X5.1983Y-2.88
X5.1983Y-2.9587
T3
X4.2489Y-2.79
X4.2489Y-3.08
X4.3276Y-2.79
X4.3276Y-3.08
X4.5213Y-2.79
X4.5313Y-3.08
X4.6Y-2.79
X4.61Y-3.08
X4.9213Y-2.79
X5.0Y-2.79
X5.203Y-4.68
X5.203Y-4.7587
X5.2049Y-3.82
X5.2049Y-4.22
X5.2249Y-3.5616
X5.2249Y-3.66
X5.3849Y-3.82
X5.3849Y-4.22
X5.3849Y-4.44
X5.3849Y-4.84
X5.4049Y-3.26
X5.4049Y-3.66
X5.5049Y-2.92
X5.5049Y-2.9987
X5.5249Y-4.1216
X5.5249Y-4.22
X5.5849Y-3.26
X5.5849Y-3.66
X5.6449Y-4.32
X5.6449Y-4.5
X5.6449Y-4.92
X5.6449Y-5.1
X5.6849Y-4.68
X5.6849Y-4.7587
X5.7049Y-3.8296
X5.7049Y-3.9296
X5.7049Y-4.0296
X5.7049Y-4.1296
X5.7649Y-3.26
X5.7649Y-3.66
X5.8449Y-2.9225
X5.8449Y-3.0013
X5.9449Y-3.26
X5.9449Y-3.66
X5.9849Y-4.68
X5.9849Y-4.7587
X6.0049Y-3.8296
X6.0049Y-3.9296
X6.0049Y-4.0296
X6.0049Y-4.1296
X6.0449Y-4.32
X6.0449Y-4.5
X6.0449Y-4.92
X6.0449Y-5.1
X6.1249Y-3.26
X6.1249Y-3.66
X6.1849Y-3.82
X6.1849Y-4.22
X6.2049Y-2.92
X6.2049Y-2.9987
X6.3049Y-3.26
X6.3049Y-3.66
X6.3649Y-3.82
X6.3649Y-4.22
X6.4849Y-3.5616
X6.4849Y-3.66
X7.1038Y-3.0
X7.1049Y-3.29
X7.1825Y-3.0
X7.1837Y-3.29
T4
X4.4637Y-3.41
X4.4637Y-3.51
X4.5637Y-3.41
X4.5637Y-3.51
X4.6637Y-3.41
X4.6637Y-3.51
X4.7637Y-3.41
X4.7637Y-3.51
X4.8637Y-3.41
X4.8637Y-3.51
X6.6771Y-3.13
X6.6771Y-3.99
X6.6808Y-4.48
X6.8149Y-3.13
X6.8149Y-3.99
X6.8186Y-4.48
T5
X7.77Y-3.1
X7.77Y-3.2
X7.77Y-3.3
X7.77Y-3.9123
X7.77Y-3.9792
X7.77Y-4.0461
X7.77Y-4.1131
X7.77Y-4.18
T6
X6.4225Y-4.855
X6.58Y-5.0125
X6.7375Y-4.9042
X6.7549Y-3.5119
X6.7549Y-3.63
X7.0859Y-4.36
X7.204Y-4.36
T7
X7.1449Y-3.61
X7.1449Y-4.11
T8
X4.8774Y-5.14
T9
X4.7774Y-5.04
X4.7774Y-5.24
X4.9774Y-5.04
X4.9774Y-5.24
T10
X4.04Y-2.8024
X4.04Y-5.11
X7.7327Y-2.8024
X7.7327Y-5.11
T3
G00X4.2797Y-4.717
M15
G01X4.3191Y-4.717
M16
G05
G00X4.7797Y-3.717
M15
G01X4.8191Y-3.717
M16
G05
T4
G00X7.2329Y-4.7469
M15
G01X7.3117Y-4.7469
M16
G05
G00X7.2329Y-4.9831
M15
G01X7.3117Y-4.9831
M16
G05
G00X7.4573Y-4.9044
M15
G01X7.4573Y-4.8256
M16
G05
T0
M30
